<?xml version="1.0" standalone="no"?>
<!DOCTYPE svg PUBLIC "-//W3C//DTD SVG 20010904//EN"
 "http://www.w3.org/TR/2001/REC-SVG-20010904/DTD/svg10.dtd">
<svg version="1.0" xmlns="http://www.w3.org/2000/svg"
 width="260.000000pt" height="260.000000pt" viewBox="0 0 260.000000 260.000000"
 preserveAspectRatio="xMidYMid meet">
<metadata>
Created by potrace 1.11, written by Peter Selinger 2001-2013
</metadata>
<g transform="translate(0.000000,260.000000) scale(0.100000,-0.100000)"
fill="#000000" stroke="none">
<path d="M243 2584 c0 -7 4 -11 8 -9 4 3 9 -2 13 -10 3 -8 0 -17 -6 -21 -7 -4
-8 -3 -4 4 11 18 0 14 -15 -5 -10 -11 -10 -14 -1 -9 7 4 12 2 12 -4 0 -6 5 -8
10 -5 6 3 10 1 10 -4 0 -6 -10 -11 -22 -11 -18 0 -20 -2 -9 -9 16 -10 21 -81
10 -122 -4 -16 -3 -31 4 -38 16 -16 17 -38 1 -38 -7 0 -10 5 -7 10 3 6 1 7 -5
3 -9 -5 -8 -13 2 -29 16 -27 14 -150 -4 -172 -10 -12 -8 -14 12 -10 21 4 21 3
6 -9 -10 -7 -15 -16 -11 -19 12 -12 10 -118 -2 -113 -13 5 -13 -29 0 -41 4 -5
5 -3 1 4 -3 6 -3 14 2 17 4 2 8 -18 7 -45 0 -37 -4 -49 -15 -49 -13 0 -13 -2
-1 -9 8 -5 16 -17 17 -25 1 -9 -1 -14 -6 -11 -4 3 -10 -4 -13 -15 -3 -11 0
-23 5 -27 6 -3 8 -1 4 5 -3 6 -3 13 2 16 4 2 8 -18 7 -45 0 -37 -4 -49 -15
-49 -13 0 -13 -2 -1 -9 8 -5 16 -17 17 -25 1 -9 -1 -14 -6 -11 -4 3 -10 -2
-13 -9 -4 -11 0 -14 16 -11 20 4 21 3 5 -9 -10 -7 -15 -16 -11 -20 9 -9 11
-145 2 -177 -4 -16 -3 -31 4 -38 16 -16 17 -38 1 -38 -7 0 -10 5 -7 10 3 6 1
7 -5 3 -9 -5 -8 -13 2 -29 16 -27 14 -150 -4 -172 -10 -12 -8 -14 12 -10 21 4
21 3 6 -9 -10 -7 -15 -16 -11 -19 12 -12 10 -118 -2 -113 -13 5 -13 -29 0 -41
4 -5 5 -3 1 4 -3 6 -3 14 2 17 4 2 8 -18 7 -45 0 -37 -4 -49 -15 -49 -13 0
-13 -2 -1 -9 8 -5 16 -17 17 -25 1 -9 -1 -14 -6 -11 -4 3 -10 -4 -13 -15 -3
-11 0 -23 5 -27 6 -3 8 -1 4 5 -3 6 -3 13 2 16 4 2 8 -18 7 -45 0 -37 -4 -49
-15 -49 -13 0 -13 -2 -1 -9 8 -5 16 -17 17 -25 1 -9 -1 -14 -6 -11 -4 3 -10
-2 -13 -9 -4 -11 0 -14 16 -11 20 4 21 3 5 -9 -10 -7 -15 -16 -11 -20 9 -9 11
-145 2 -177 -4 -16 -3 -31 4 -38 16 -16 17 -38 1 -38 -7 0 -10 5 -7 10 3 6 1
7 -6 3 -9 -6 -9 -11 0 -22 6 -8 13 -35 14 -60 3 -40 2 -44 -13 -32 -15 12 -16
11 -3 -4 8 -10 12 -32 9 -53 -3 -25 0 -35 10 -35 7 0 10 5 6 12 -4 6 -3 8 4 5
13 -9 10 -30 -8 -53 -14 -17 -13 -18 1 -7 9 7 19 10 22 6 4 -3 7 1 7 10 0 9 5
19 12 23 6 4 8 3 5 -3 -3 -5 -8 -21 -11 -35 -4 -24 -2 -26 22 -22 l27 4 -25
-15 c-14 -8 -19 -14 -12 -15 7 0 11 -4 7 -9 -3 -5 0 -13 6 -17 8 -4 9 -3 5 4
-5 8 2 12 18 12 28 0 33 -9 15 -27 -9 -9 -7 -11 7 -9 12 2 18 10 17 22 -1 11
0 13 3 6 5 -10 9 -10 22 0 14 10 15 10 5 -2 -18 -19 -16 -35 1 -21 11 9 15 9
19 -1 4 -10 6 -10 6 0 1 6 6 12 12 12 5 0 7 -6 3 -12 -5 -8 -1 -8 10 1 13 11
19 12 25 3 8 -14 34 -10 55 7 9 7 16 10 16 5 0 -5 5 -2 11 6 9 13 10 13 6 0
-2 -8 -10 -14 -16 -12 -6 1 -11 -2 -11 -8 0 -13 17 -13 25 0 5 8 12 7 23 -2
15 -12 16 -11 3 5 -12 15 -11 21 9 42 13 14 27 25 32 25 5 0 -3 -11 -18 -23
-18 -16 -24 -26 -16 -31 7 -4 12 -1 12 8 0 18 34 39 45 28 5 -4 5 -1 1 6 -9
15 6 16 21 1 8 -8 13 -7 18 2 5 7 4 10 -2 6 -18 -11 -22 17 -5 33 14 13 15 12
9 -3 -3 -9 -2 -17 2 -17 15 0 20 27 8 41 -7 8 -8 11 -3 7 5 -4 18 -3 29 3 13
7 17 7 13 1 -3 -6 -2 -13 4 -17 5 -3 10 1 10 10 0 9 13 22 30 28 17 6 30 18
30 26 0 12 3 12 12 3 7 -7 17 -12 23 -12 5 0 3 5 -5 10 -13 8 -13 11 -1 22 8
7 11 8 8 2 -4 -7 2 -14 13 -17 16 -4 18 -2 10 13 -7 13 -6 21 2 26 6 4 8 3 4
-4 -3 -6 -2 -13 4 -17 5 -3 10 1 10 10 0 9 5 13 10 10 13 -8 13 7 0 23 -7 9
-7 9 1 3 8 -6 20 -4 35 6 13 8 29 11 36 7 10 -6 10 -5 0 8 -11 14 -10 16 7 11
13 -3 18 -11 14 -21 -4 -14 -3 -14 5 -3 6 8 8 19 6 26 -3 6 4 20 16 30 11 10
20 14 20 10 0 -4 10 0 22 11 12 10 18 14 15 8 -4 -7 -1 -14 7 -17 16 -6 17 33
1 46 -6 5 -3 7 8 3 9 -3 17 0 17 6 0 7 7 3 16 -8 8 -10 13 -14 9 -7 -7 16 24
31 53 27 12 -2 22 1 22 7 0 5 -4 8 -9 4 -6 -3 -9 4 -8 14 1 19 2 19 21 3 12
-11 16 -12 11 -3 -6 11 -4 13 9 8 10 -4 15 -3 11 3 -3 6 -1 10 5 10 6 0 9 4 6
9 -3 4 5 7 18 6 18 -2 22 2 21 19 -3 26 4 38 16 30 6 -4 6 -10 -1 -19 -7 -9
-6 -16 7 -26 16 -13 17 -12 4 4 -9 11 -10 17 -2 17 6 0 11 7 11 15 0 8 5 15
11 15 5 0 8 -4 4 -9 -6 -11 34 -6 44 5 3 4 -2 4 -11 1 -12 -4 -15 -2 -11 8 3
8 9 12 14 9 5 -3 9 2 9 10 0 8 5 18 12 22 7 5 8 3 3 -6 -6 -10 -4 -12 9 -7 10
4 20 7 22 7 3 0 2 6 -2 13 -5 7 -1 6 10 -3 16 -12 19 -12 28 3 5 10 14 15 19
12 5 -4 6 -11 3 -17 -4 -7 -2 -8 5 -4 8 6 9 12 2 20 -6 7 -8 16 -4 19 3 4 4 7
0 7 -3 0 -15 -10 -27 -22 -22 -23 -27 -13 -7 13 7 9 25 16 43 15 20 -1 30 3
27 10 -6 16 14 27 23 13 5 -8 3 -9 -6 -4 -9 5 -11 4 -6 -4 4 -6 12 -9 17 -5 5
3 7 10 3 16 -4 6 3 8 17 6 20 -2 23 1 21 20 -2 12 2 22 8 22 6 0 8 -5 4 -12
-6 -10 -5 -10 8 -1 8 7 19 9 24 5 4 -4 3 1 -4 10 -11 14 -10 16 7 11 12 -3 27
0 34 6 8 6 18 7 22 3 5 -4 5 -1 1 6 -6 10 -11 10 -22 1 -10 -8 -14 -8 -14 0 0
6 4 11 10 11 5 0 8 6 6 13 -1 6 -1 9 1 5 8 -14 45 -9 40 5 -3 8 1 14 9 14 7 0
11 -4 8 -8 -2 -4 0 -11 6 -14 6 -4 9 -1 8 7 -2 7 2 12 9 11 7 -2 10 4 7 12 -4
8 -11 12 -18 8 -6 -3 -7 -2 -3 3 5 5 14 9 20 9 7 1 11 7 9 15 -2 10 3 8 19 -5
12 -11 19 -14 14 -6 -6 11 -4 13 8 8 8 -3 21 1 28 9 10 12 14 12 21 2 6 -9 7
-5 3 10 -4 12 -3 22 2 21 23 -4 35 2 29 16 -3 8 0 16 7 16 7 1 19 2 27 3 8 0
14 7 12 15 -3 12 0 12 12 2 10 -8 16 -9 21 -1 3 6 10 8 15 5 4 -3 11 2 14 10
4 12 2 13 -13 6 -13 -7 -18 -6 -18 3 0 10 12 13 38 12 32 -1 36 1 28 16 -7 14
-6 16 6 12 9 -4 26 3 39 15 12 12 25 19 28 16 3 -3 11 1 18 10 8 10 9 15 1 15
-6 0 -11 -5 -11 -12 0 -6 -2 -9 -5 -6 -9 8 6 38 16 32 5 -3 9 6 9 20 0 39 0
40 16 49 8 5 12 12 10 16 -3 4 1 8 9 8 13 0 13 -3 -1 -18 -9 -10 -13 -23 -8
-30 4 -8 3 -10 -4 -5 -7 4 -12 2 -12 -3 0 -6 7 -11 15 -11 9 0 15 6 14 13 -3
24 1 38 10 33 4 -3 7 5 7 17 -1 12 2 28 7 35 7 9 5 11 -9 5 -17 -6 -17 -5 -5
11 12 15 11 21 -7 46 -25 33 -27 40 -11 40 5 0 7 -5 3 -12 -5 -7 -3 -8 6 -3 9
6 11 4 5 -6 -7 -12 -6 -12 6 0 11 10 11 15 1 18 -6 3 -10 8 -8 12 3 4 0 13 -6
21 -8 12 -8 11 -3 -5 3 -11 3 -16 -1 -12 -4 4 -13 2 -20 -4 -8 -7 -14 -7 -19
1 -4 6 -1 9 5 8 7 -2 16 8 21 21 l10 25 -22 -20 c-12 -10 -20 -14 -16 -8 3 6
8 22 11 37 4 24 2 26 -14 17 -27 -14 -34 -12 -20 5 7 9 10 18 6 22 -3 3 -6 1
-6 -6 0 -7 -5 -9 -10 -6 -6 4 -7 11 -4 17 4 6 -2 6 -15 -1 -17 -10 -21 -9 -21
4 0 10 5 13 12 9 7 -4 8 -3 4 4 -4 6 -14 8 -23 5 -9 -4 -14 -2 -10 3 3 6 1 16
-5 24 -8 12 -9 12 -4 -2 3 -10 1 -20 -4 -23 -6 -4 -10 5 -10 20 0 23 -3 25
-30 20 -21 -4 -30 -1 -30 9 0 7 -7 19 -15 26 -8 7 -12 17 -8 23 3 6 1 7 -6 3
-6 -4 -9 -12 -6 -17 4 -5 2 -9 -3 -9 -6 0 -13 7 -16 15 -5 13 -10 14 -27 4
-12 -6 -19 -7 -15 -1 7 11 -14 31 -29 29 -5 -1 -11 7 -12 18 -2 15 -1 16 5 5
8 -17 32 -25 32 -11 0 9 -19 19 -32 17 -12 -2 -58 47 -52 55 3 5 0 9 -5 9 -6
0 -11 -4 -11 -10 0 -5 -7 -10 -15 -10 -8 0 -15 5 -15 11 0 5 -5 7 -10 4 -6 -4
-8 -10 -6 -14 3 -4 1 -13 -4 -21 -7 -11 -9 -8 -8 10 1 14 6 32 12 40 9 13 9
13 -5 2 -13 -10 -18 -10 -28 1 -6 8 -8 17 -4 20 3 4 1 7 -5 7 -7 0 -12 -4 -12
-8 0 -5 -6 -9 -12 -9 -7 0 -19 -2 -27 -4 -7 -2 -16 2 -19 10 -2 8 0 11 5 8 5
-3 15 -1 23 5 13 8 12 9 -1 5 -9 -3 -22 0 -28 6 -7 7 -12 8 -11 2 5 -23 -1
-30 -25 -31 -14 -1 -23 1 -21 5 3 4 1 13 -4 21 -5 8 -5 21 0 30 6 12 5 17 -5
17 -8 0 -11 -7 -8 -16 4 -10 -2 -8 -16 6 -13 14 -27 20 -39 16 -15 -6 -16 -5
-2 12 13 16 10 16 -16 -3 -29 -20 -33 -20 -45 -6 -11 13 -11 15 2 14 28 -4 39
0 39 16 0 9 5 12 12 8 7 -4 8 -3 4 5 -4 6 -11 9 -16 6 -5 -3 -13 3 -19 12 -6
10 -11 13 -11 6 0 -6 5 -15 10 -18 6 -3 10 -11 10 -18 0 -8 -3 -8 -12 1 -17
17 -28 15 -28 -5 0 -15 -2 -15 -9 -4 -5 8 -8 22 -6 31 2 12 -4 16 -25 16 -16
0 -27 -2 -25 -6 2 -3 -5 -11 -16 -18 -23 -15 -24 -9 -2 25 17 26 17 26 -4 14
-30 -15 -41 -14 -18 3 15 11 17 17 7 28 -9 11 -9 18 1 28 6 8 2 7 -9 -3 -21
-17 -64 -31 -64 -21 0 3 5 14 10 24 8 15 7 18 -3 14 -7 -2 -22 4 -32 16 -10
11 -22 20 -28 20 -5 0 1 -9 14 -20 13 -10 20 -19 14 -19 -16 0 -50 29 -50 42
0 7 -12 11 -28 10 -33 -2 -35 4 -4 18 l22 10 -22 -5 c-25 -5 -48 17 -37 35 4
8 3 9 -5 5 -6 -4 -11 -13 -10 -19 3 -25 -1 -38 -11 -32 -5 3 -7 12 -4 19 3 7
-2 19 -11 26 -8 7 -15 9 -15 4 0 -5 -4 -3 -9 5 -7 10 -13 11 -30 2 -18 -10
-26 -9 -46 7 l-25 20 24 -2 c13 0 22 -4 20 -8 -9 -14 12 -16 35 -4 20 11 21
14 7 19 -10 4 -15 3 -11 -3 3 -6 1 -10 -4 -10 -6 0 -11 5 -11 10 0 6 -6 10
-12 9 -28 -3 -48 2 -48 12 0 5 4 7 10 4 6 -4 7 1 3 11 -5 15 -7 15 -17 -2 -14
-24 -32 -28 -40 -9 -3 8 0 12 7 9 7 -2 18 5 25 16 7 11 8 20 3 20 -5 0 -12 -7
-15 -16 -5 -13 -9 -14 -21 -4 -8 7 -12 17 -9 22 4 6 10 5 15 -3 5 -8 9 -9 9
-3 0 20 -13 24 -30 9 -15 -14 -19 -13 -38 3 -23 21 -20 34 6 24 14 -5 15 -4 2
10 -8 9 -17 12 -19 6 -1 -5 -9 -1 -15 8 -10 13 -15 14 -21 4 -5 -8 -4 -11 2
-7 6 4 13 0 17 -8 11 -29 -23 -13 -42 20 -6 11 -12 14 -12 8 0 -7 -5 -13 -11
-13 -6 0 -8 8 -4 19 7 22 -29 49 -40 31 -4 -6 -11 -7 -17 -4 -6 4 -5 10 3 15
10 6 11 9 2 9 -7 0 -13 5 -13 11 0 5 6 7 13 3 6 -4 8 -3 4 1 -10 11 -37 15
-37 6 0 -4 5 -12 12 -19 8 -8 8 -12 1 -12 -6 0 -16 7 -23 15 -10 12 -10 18 0
31 11 12 11 15 -1 12 -8 -2 -13 4 -13 14 1 10 -2 15 -7 12 -5 -3 -7 -18 -4
-34 4 -22 2 -28 -8 -24 -8 3 -13 16 -11 29 2 20 -1 23 -15 16 -10 -6 -24 -5
-36 0 -17 9 -18 8 -5 -3 8 -7 17 -22 18 -32 3 -16 1 -18 -11 -8 -7 6 -18 8
-22 4 -5 -4 -6 0 -3 9 4 9 1 16 -7 16 -7 0 -11 -6 -9 -12 7 -18 -24 -14 -43 7
-9 10 -11 18 -6 18 6 0 14 -7 17 -16 4 -9 9 -14 12 -11 10 10 -17 48 -29 40
-7 -4 -5 2 3 12 14 17 13 18 -2 12 -13 -5 -16 0 -13 26 2 18 1 26 -2 19 -2 -6
-9 -10 -14 -6 -5 3 -9 0 -9 -7 0 -7 -3 -9 -6 -6 -4 4 -1 13 5 21 16 19 6 37
-16 29 -12 -5 -14 -3 -8 8 7 11 5 11 -10 -1 -11 -9 -16 -10 -11 -2 4 7 1 12
-8 12 -9 0 -16 9 -16 20 0 11 -4 20 -10 20 -6 0 -9 5 -8 12 2 7 -7 17 -19 22
-16 8 -21 16 -17 31 4 16 3 17 -5 5 -16 -22 -14 -28 15 -43 17 -9 23 -17 15
-21 -6 -4 -11 -2 -11 3 0 6 -6 11 -14 11 -17 0 -29 30 -21 52 4 10 -2 14 -23
14 -17 0 -29 -5 -29 -12z m207 -204 c0 -5 -5 -10 -11 -10 -5 0 -7 5 -4 10 3 6
8 10 11 10 2 0 4 -4 4 -10z m157 -64 c-3 -7 3 -20 14 -30 23 -19 33 -21 23 -3
-5 8 -2 8 9 -2 26 -21 20 -30 -15 -26 -18 3 -28 1 -22 -3 6 -4 10 -23 10 -42
-1 -30 2 -35 20 -33 17 2 21 -3 18 -22 -1 -14 2 -23 7 -19 16 10 9 -8 -8 -23
-16 -13 -16 -13 5 -3 13 7 21 17 18 25 -2 7 2 19 10 26 13 10 14 9 10 -12 -7
-41 -18 -59 -32 -59 -8 0 -14 -4 -14 -8 0 -16 30 -9 35 8 6 20 32 22 39 4 3
-8 0 -11 -10 -7 -7 3 -14 1 -14 -3 -1 -5 -12 -22 -26 -39 -19 -21 -24 -24 -20
-10 6 16 5 18 -5 7 -11 -10 -10 -15 3 -28 20 -20 38 -11 31 15 -3 10 1 22 8
27 8 5 11 2 6 -8 -3 -9 -1 -20 5 -26 6 -6 2 -15 -13 -26 -20 -14 -25 -14 -39
-1 -15 13 -17 13 -17 0 0 -8 5 -11 11 -8 6 4 4 -2 -4 -13 -22 -29 -24 -30 -17
-12 3 10 2 20 -4 24 -6 4 -6 11 2 20 10 12 9 17 -1 27 -9 9 -11 9 -6 0 3 -6 1
-15 -6 -19 -7 -4 -10 -4 -6 1 4 4 3 14 -2 20 -8 9 -5 12 7 11 10 0 18 4 18 9
0 6 -3 9 -7 8 -11 -4 -10 5 4 30 11 21 10 21 -7 7 -17 -14 -18 -13 -13 2 4 10
1 19 -8 22 -8 3 -14 9 -13 13 3 21 -2 33 -15 33 -8 0 -17 4 -20 9 -3 5 0 8 7
7 6 0 13 4 15 9 1 6 -2 11 -8 11 -31 4 -33 6 -15 14 13 5 26 3 36 -6 13 -12
16 -12 16 1 0 8 -4 12 -8 9 -4 -2 -10 0 -14 5 -3 6 -12 8 -21 4 -9 -3 -14 0
-12 8 2 8 -3 13 -10 11 -8 -1 -11 2 -8 7 4 5 -2 14 -11 20 -11 6 -13 11 -5 12
6 1 18 2 25 3 6 1 18 -2 25 -7 6 -5 13 -6 14 -1 0 5 2 14 3 19 2 6 3 13 4 18
0 4 6 7 12 7 6 0 9 -6 6 -14z m107 -67 c10 16 37 1 32 -18 -7 -20 13 -52 20
-34 5 12 9 10 66 -41 13 -11 33 -21 43 -21 13 0 20 -7 20 -20 -1 -24 12 -34
36 -30 13 3 16 -2 14 -21 -2 -18 1 -22 10 -14 9 7 16 6 25 -5 7 -9 19 -14 25
-11 7 2 17 0 23 -6 8 -8 15 -8 25 1 12 9 16 8 20 -3 3 -8 -1 -20 -9 -26 -11
-10 -14 -10 -14 0 0 8 -3 10 -6 7 -4 -3 -15 -2 -26 4 -15 8 -23 6 -38 -13 -14
-17 -21 -20 -30 -12 -9 9 -9 17 0 34 11 20 10 21 -10 10 -20 -11 -21 -10 -11
9 9 17 8 22 -10 32 -13 6 -19 7 -15 1 3 -6 2 -13 -4 -17 -9 -6 -15 8 -11 29 1
5 -5 4 -13 -4 -11 -9 -16 -9 -16 -1 0 6 7 14 15 17 11 5 11 9 2 19 -9 10 -14
9 -24 -4 -9 -13 -14 -13 -24 -4 -20 20 -20 46 -1 38 12 -4 14 -3 6 5 -6 6 -20
12 -32 15 -11 2 -29 8 -40 14 -11 6 -22 7 -26 3 -4 -3 -4 1 0 11 4 11 0 19
-10 23 -9 3 -14 10 -11 14 4 7 -3 7 -34 1 -2 -1 2 -8 9 -16 7 -8 9 -15 4 -15
-5 -1 2 -7 16 -14 14 -8 28 -12 32 -10 13 8 9 -11 -4 -24 -17 -17 -33 -15 -19
2 18 21 -9 27 -33 7 -18 -15 -19 -15 -13 1 3 10 2 20 -3 23 -6 4 -10 11 -10
18 0 6 7 2 16 -9 14 -18 15 -18 4 4 -6 12 -8 27 -5 32 3 5 -1 7 -9 4 -9 -3
-15 -9 -14 -12 0 -4 0 -15 -1 -24 -1 -22 -21 -24 -21 -3 0 8 5 15 11 15 8 0 7
6 -2 17 -10 11 -10 14 -1 9 7 -4 12 -2 12 4 0 6 4 9 9 5 5 -3 13 -1 16 5 5 8
11 8 20 0 9 -7 15 -8 19 -1z m16 -51 c0 -15 -15 -8 -28 12 -12 19 -11 20 8 8
11 -7 20 -16 20 -20z m61 -43 c9 2 16 -4 16 -11 0 -8 -4 -14 -9 -14 -4 0 -8 5
-8 11 0 5 -5 7 -10 4 -6 -4 6 -18 26 -31 30 -21 39 -23 53 -12 14 12 14 11 3
-4 -14 -17 -8 -43 8 -33 4 3 11 -3 14 -12 4 -9 2 -20 -4 -23 -8 -5 -5 -10 6
-14 10 -4 15 -4 12 0 -10 9 10 44 25 44 7 0 8 -3 2 -8 -5 -4 -11 -15 -13 -26
-3 -13 1 -17 12 -13 10 4 13 1 10 -7 -3 -7 2 -19 11 -26 13 -11 19 -9 40 10
16 15 25 19 25 10 0 -7 3 -10 6 -7 4 3 15 2 25 -3 12 -7 20 -7 24 0 7 11 25 4
25 -10 0 -4 -11 -7 -25 -6 -14 2 -22 -1 -18 -7 4 -6 1 -7 -7 -2 -9 6 -11 4 -5
-5 5 -8 4 -11 -3 -6 -6 4 -8 14 -5 23 4 11 3 14 -5 9 -7 -4 -12 -15 -12 -24 0
-15 -2 -15 -10 -2 -5 8 -10 10 -10 5 0 -6 5 -16 11 -22 7 -7 6 -12 -6 -17 -9
-3 -13 -2 -10 4 3 5 1 18 -4 27 -10 17 -10 17 -11 1 0 -10 -4 -18 -10 -18 -5
0 -9 3 -9 8 3 18 -2 24 -14 14 -10 -8 -16 -6 -25 9 -8 12 -9 19 -1 19 5 0 7 5
3 11 -5 8 -10 6 -16 -5 -5 -9 -14 -16 -21 -16 -7 0 -6 4 3 10 8 5 11 12 7 17
-5 4 -12 1 -16 -6 -6 -9 -11 -10 -15 -2 -4 6 -2 11 4 11 6 0 8 5 4 11 -3 6 -9
7 -13 2 -7 -10 -26 -11 -37 0 -7 6 9 11 29 8 4 0 7 4 7 10 0 6 -8 8 -17 5 -16
-5 -16 -5 -2 7 14 10 14 14 3 25 -8 7 -14 8 -14 3 0 -6 -7 -8 -15 -5 -12 5
-13 10 -4 20 11 13 2 19 -23 15 -5 0 -8 4 -8 9 0 6 -5 10 -11 10 -8 0 -7 -6 2
-17 10 -11 10 -14 2 -9 -7 4 -13 2 -13 -3 0 -14 13 -14 27 0 9 9 12 7 10 -10
-1 -12 -6 -20 -13 -17 -13 5 -37 -17 -29 -26 10 -10 14 -49 4 -43 -20 13 -30
-8 -10 -22 12 -8 21 -19 21 -25 0 -6 -12 -1 -27 13 l-28 24 22 -25 c13 -16 20
-35 18 -52 -2 -16 2 -31 7 -35 7 -3 8 -1 4 5 -11 18 5 14 42 -8 17 -11 32 -25
32 -31 0 -7 -8 -5 -20 6 -11 10 -20 15 -20 12 0 -4 0 -10 0 -14 0 -5 3 -8 8
-8 4 0 13 -4 20 -9 11 -6 10 -12 -5 -29 l-18 -22 23 19 c22 19 23 19 37 0 15
-19 15 -19 30 0 8 11 15 16 15 12 0 -5 7 -3 15 4 18 15 19 1 1 -22 -7 -10 -16
-14 -21 -10 -4 4 -2 -3 5 -15 8 -12 20 -19 28 -15 10 3 13 1 8 -6 -4 -7 -2
-12 3 -12 6 0 11 5 11 12 0 6 10 3 22 -8 12 -10 18 -13 14 -6 -4 7 -1 12 8 12
23 0 20 -15 -6 -32 -17 -11 -19 -16 -8 -23 8 -5 11 -4 7 1 -3 6 3 15 13 22 12
7 21 8 25 2 3 -6 0 -10 -7 -10 -9 -1 -7 -5 4 -14 10 -7 15 -16 12 -19 -3 -3 2
-4 13 -2 10 1 28 -4 41 -11 14 -9 22 -10 22 -4 0 6 5 8 10 5 6 -4 7 -11 4 -17
-4 -6 3 -5 16 2 18 10 21 10 14 -2 -14 -22 -13 -37 3 -31 8 3 12 11 10 17 -3
7 1 23 9 37 13 23 13 23 10 -13 -2 -20 -7 -41 -10 -47 -5 -7 -1 -8 10 -4 10 4
15 2 11 -4 -3 -5 0 -10 8 -10 8 0 12 4 10 8 -6 8 25 22 33 14 3 -3 0 -5 -6 -5
-7 0 -12 -7 -12 -15 0 -18 12 -19 28 -3 9 9 12 9 12 1 0 -7 -4 -15 -10 -18 -5
-3 -10 -12 -10 -18 0 -7 4 -6 10 3 8 13 10 13 10 1 0 -12 3 -12 12 -3 7 7 17
12 23 12 5 -1 -1 -10 -14 -20 -13 -11 -19 -20 -14 -20 5 0 14 5 21 12 7 7 12
8 12 2 0 -5 -5 -15 -10 -20 -7 -7 -3 -14 14 -22 19 -8 27 -8 36 3 6 8 19 11
27 8 12 -5 15 -2 10 10 -4 10 -2 14 7 11 15 -6 17 -34 2 -35 -6 -1 -17 -2 -25
-3 -8 0 -16 -8 -18 -16 -4 -13 -3 -13 6 0 8 12 13 12 23 2 6 -6 17 -12 23 -12
5 0 3 5 -5 11 -12 8 -11 10 5 7 11 -2 21 -9 21 -16 1 -6 2 -17 3 -23 0 -6 10
-8 21 -4 11 4 20 2 20 -4 0 -6 -4 -11 -10 -11 -5 0 -10 -5 -10 -12 0 -6 9 -3
20 7 16 14 18 21 8 28 -10 6 -10 8 1 5 24 -7 23 -25 -1 -48 l-23 -22 23 11
c12 6 22 16 22 22 0 6 5 7 10 4 7 -4 6 -13 -1 -26 -6 -12 -8 -23 -5 -27 3 -3
6 0 6 8 0 10 3 10 15 0 8 -7 12 -17 8 -23 -4 -6 -1 -7 6 -2 9 5 10 10 2 18
-24 24 -9 29 16 6 15 -13 21 -16 14 -6 -16 20 1 23 18 3 10 -12 8 -17 -7 -25
-11 -6 -23 -7 -27 -3 -5 4 -5 2 -1 -5 8 -15 56 3 56 21 0 6 5 4 10 -4 6 -11 4
-18 -9 -25 -17 -10 -17 -11 2 -30 20 -20 20 -20 8 3 -6 12 -10 22 -7 22 2 0
13 3 23 7 15 6 16 4 6 -8 -10 -13 -10 -16 2 -16 8 0 12 4 9 9 -3 4 0 8 5 8 6
0 11 -6 12 -12 0 -7 2 -21 4 -30 2 -10 -1 -18 -6 -18 -5 0 -9 -4 -9 -8 0 -5 7
-9 15 -9 8 0 11 5 8 10 -3 6 -1 7 5 3 6 -4 9 -13 6 -21 -4 -8 -10 -12 -15 -9
-5 3 -9 -2 -9 -11 0 -10 5 -13 13 -9 9 6 9 5 0 -8 -7 -8 -10 -17 -7 -21 3 -3
-3 -3 -15 0 -12 3 -21 1 -21 -6 0 -6 -5 -11 -11 -11 -5 0 -7 6 -3 13 6 9 5 9
-8 0 -8 -7 -18 -9 -22 -5 -4 4 -6 2 -4 -5 2 -6 -6 -18 -16 -26 -15 -11 -16
-16 -6 -22 7 -5 11 -4 8 1 -3 5 4 17 16 26 18 13 23 13 23 3 0 -8 -4 -12 -8
-9 -4 2 -13 -5 -19 -17 -7 -11 -14 -18 -17 -15 -4 3 -12 1 -20 -5 -7 -6 -13
-8 -13 -4 0 4 -6 2 -14 -4 -10 -8 -16 -9 -21 -1 -12 19 -26 0 -15 -20 8 -16 8
-18 -5 -14 -8 4 -15 11 -15 18 0 6 -5 3 -11 -7 -6 -9 -14 -15 -19 -12 -5 3
-11 1 -15 -5 -4 -6 -11 -7 -17 -4 -7 4 -8 2 -4 -5 6 -9 11 -9 22 0 12 10 13 9
8 -5 -7 -19 -9 -19 -34 -6 -25 13 -33 -1 -19 -37 l10 -28 -21 23 c-25 27 -25
27 -27 2 -1 -13 2 -18 9 -14 7 4 8 2 4 -4 -5 -9 -15 -7 -34 5 -26 17 -27 17
-12 -2 15 -19 15 -19 -15 -1 l-30 19 20 -22 19 -22 -27 5 c-16 3 -25 1 -22 -5
4 -5 -2 -9 -12 -10 -10 0 -13 -3 -5 -6 6 -2 12 -9 12 -14 0 -6 -8 -5 -20 1
-16 9 -20 8 -21 -7 -1 -10 -1 -21 0 -25 1 -8 -20 -5 -37 5 -7 5 -9 13 -6 19 4
7 2 8 -5 4 -6 -4 -9 -11 -6 -16 3 -5 -4 -15 -16 -24 -15 -10 -20 -21 -15 -33
6 -16 5 -16 -9 1 -8 10 -12 23 -8 29 3 6 1 7 -5 3 -5 -3 -9 -21 -6 -39 3 -31
3 -31 -7 -6 l-10 27 -34 -35 c-19 -20 -32 -40 -29 -44 3 -5 -6 -5 -20 1 -21 8
-24 6 -21 -11 3 -16 1 -18 -16 -9 -23 13 -25 7 -3 -15 16 -15 16 -16 -2 -13
-10 2 -18 -1 -17 -7 1 -5 -9 -10 -22 -10 -13 0 -21 3 -19 7 2 4 -1 10 -8 14
-7 4 -10 4 -6 -1 8 -8 -42 -52 -55 -47 -4 1 -3 -7 3 -19 11 -19 10 -20 -9 -10
-12 7 -22 7 -25 2 -4 -5 0 -12 6 -15 7 -4 3 -4 -9 -2 -25 4 -29 -4 -12 -21 8
-8 7 -13 -2 -18 -7 -5 -10 -4 -6 2 4 6 0 16 -7 22 -10 8 -16 9 -21 1 -3 -6
-11 -7 -17 -4 -7 4 -8 2 -4 -5 6 -8 12 -9 20 -2 9 8 13 7 13 -2 0 -7 -12 -13
-28 -12 -15 0 -26 2 -24 4 8 8 -21 28 -35 24 -9 -3 -8 0 3 7 17 11 17 13 2 36
-14 22 -14 24 0 24 9 0 14 4 10 10 -3 5 -13 6 -23 3 -16 -5 -16 -5 0 8 19 15
34 79 19 79 -6 0 -8 -9 -6 -19 3 -14 -1 -18 -12 -14 -12 5 -12 7 -1 14 7 5 9
9 4 9 -5 0 -2 8 6 18 16 17 21 55 7 46 -5 -2 -5 -12 -2 -22 7 -18 5 -17 -17
12 -10 13 -10 17 -2 12 16 -10 16 35 0 54 -11 13 -11 13 2 2 23 -20 35 -14 15
8 -17 19 -17 20 -1 20 9 0 15 4 11 10 -3 5 -13 6 -23 3 -16 -5 -16 -5 0 8 19
15 34 79 19 79 -6 0 -8 -9 -6 -19 3 -14 -1 -18 -12 -14 -12 5 -12 7 -1 14 7 5
9 9 4 9 -5 0 -2 8 6 18 16 17 21 55 7 46 -5 -2 -5 -12 -2 -22 7 -18 5 -17 -17
12 -10 13 -10 17 -2 12 13 -8 18 33 5 49 -5 6 -4 7 1 3 21 -16 28 -7 11 12
-17 19 -17 20 -1 20 9 0 15 4 11 10 -3 5 -13 6 -23 3 -16 -5 -16 -5 0 8 19 15
34 79 19 79 -6 0 -8 -9 -6 -19 3 -14 -1 -18 -12 -14 -12 5 -12 7 -1 14 7 5 9
9 4 9 -5 0 -2 8 6 18 16 17 21 55 7 46 -5 -2 -5 -12 -2 -22 7 -18 5 -17 -17
12 -10 13 -10 17 -2 12 15 -9 17 34 2 52 -7 9 -7 9 2 2 22 -18 32 -10 13 10
-17 19 -17 20 -1 20 9 0 15 4 11 10 -3 5 -13 6 -23 3 -16 -5 -16 -5 0 8 19 15
34 79 19 79 -6 0 -8 -9 -6 -19 3 -14 -1 -18 -12 -14 -12 5 -12 7 -1 14 7 5 9
9 4 9 -5 0 -1 9 9 20 15 16 16 23 6 33 -10 9 -11 8 -5 -8 8 -21 6 -21 -16 9
-9 12 -10 17 -3 12 9 -5 12 1 9 23 -2 17 1 28 6 25 5 -3 7 -13 3 -23 -5 -12
-4 -13 6 -4 9 9 9 17 -3 35 -14 20 -13 24 6 41 l21 18 -22 -10 c-15 -8 -24 -8
-28 -1 -4 6 -1 9 6 8 6 -2 14 3 17 11 2 8 0 11 -5 8 -5 -3 -10 0 -10 7 0 9 7
12 16 8 9 -3 13 -2 9 3 -4 4 -3 13 2 20 7 8 5 12 -5 12 -8 0 -12 -3 -10 -7 2
-4 -2 -7 -9 -7 -7 0 -13 6 -13 13 0 7 4 11 8 9 3 -3 13 3 20 12 10 12 10 14 2
9 -14 -8 -14 -8 -17 45 -1 27 2 36 14 35 11 -1 15 9 15 36 0 20 3 39 7 43 4 4
4 13 2 19 -3 7 2 19 11 26 12 10 13 16 3 29 -12 15 -11 15 7 1 19 -15 19 -14
3 11 -18 28 -15 41 8 32 17 -6 18 1 3 28 -5 11 -14 17 -20 14 -20 -13 -8 7 18
30 16 13 30 20 33 16 3 -5 12 -7 21 -6z m-26 -95 c-3 -5 -2 -10 4 -10 5 0 12
4 16 9 3 6 15 9 26 8 19 -1 19 -2 3 -14 -10 -7 -14 -13 -8 -13 5 0 4 -4 -2 -8
-6 -4 -4 -13 8 -24 11 -11 18 -13 18 -6 0 6 11 1 24 -11 14 -13 29 -20 35 -16
6 3 16 -5 22 -19 11 -24 13 -24 26 -8 10 13 13 14 11 2 -2 -9 4 -14 14 -14 10
1 16 -3 15 -8 -1 -6 6 -12 16 -13 16 -3 22 7 18 29 -1 5 5 6 12 3 8 -3 20 0
26 6 6 6 11 7 11 2 0 -6 4 -4 8 3 6 8 9 2 9 -18 0 -17 -3 -27 -6 -23 -10 14
-46 9 -43 -5 1 -8 -2 -11 -8 -7 -5 3 -10 1 -10 -5 0 -7 7 -9 15 -6 8 3 21 9
29 12 9 3 14 0 12 -10 -3 -19 -16 -34 -16 -18 0 6 -12 10 -29 7 -24 -3 -29 0
-25 13 3 9 -2 6 -11 -8 -9 -14 -14 -17 -11 -8 3 12 -3 22 -17 30 -30 17 -47
18 -47 5 0 -7 -5 -5 -10 3 -5 8 -10 10 -10 5 0 -6 5 -16 12 -23 9 -9 9 -12 0
-12 -6 0 -16 9 -22 20 -10 19 -4 25 23 21 13 -2 7 17 -8 23 -8 3 -19 -2 -24
-12 -6 -9 -11 -12 -12 -7 -1 6 -2 15 -4 20 -1 6 -3 16 -3 23 -1 6 -7 12 -13
12 -5 0 -8 -4 -5 -9 4 -5 -5 -4 -18 2 -14 7 -20 15 -14 18 5 4 2 9 -8 13 -9 3
-19 4 -22 1 -3 -3 -1 -5 4 -5 5 0 10 -9 11 -19 2 -21 -20 -22 -40 -2 -9 10 -8
11 6 5 18 -6 18 -2 7 51 -3 14 -1 25 6 25 3 0 2 -4 -1 -10z m280 -20 c3 -5 1
-10 -4 -10 -6 0 -11 5 -11 10 0 6 2 10 4 10 3 0 8 -4 11 -10z m77 -48 c-7 -2
-12 -8 -12 -13 0 -6 5 -7 10 -4 6 3 10 1 10 -6 0 -10 3 -10 12 -1 14 14 42 16
33 2 -3 -5 5 -16 19 -25 27 -18 39 -41 30 -56 -8 -14 -31 7 -55 50 -11 20 -18
28 -15 18 5 -15 2 -16 -14 -7 -11 6 -20 7 -20 3 0 -4 -4 -2 -9 5 -7 11 -9 10
-14 -3 -4 -9 -3 -13 3 -10 5 3 8 -4 7 -15 -1 -11 -6 -20 -11 -20 -5 0 -7 -2
-4 -5 3 -3 13 -3 22 1 11 4 15 13 11 28 -6 20 -5 20 6 2 9 -15 9 -21 -3 -30
-9 -6 -13 -22 -11 -36 1 -14 0 -20 -4 -15 -5 6 -17 11 -28 13 -17 2 -17 0 4
-11 15 -9 20 -17 12 -21 -6 -4 -11 -3 -11 2 0 5 -6 9 -12 10 -7 1 -24 3 -38 5
-32 5 -52 -2 -44 -15 4 -6 10 -5 16 3 8 11 9 11 5 -1 -5 -20 -32 -19 -31 1 2
20 -21 19 -39 -1 -10 -12 -9 -12 6 -1 10 8 17 9 17 3 0 -6 -6 -12 -12 -15 -10
-4 -10 -7 -1 -17 10 -11 9 -16 -3 -25 -13 -9 -13 -11 5 -11 11 0 18 2 16 5 -7
6 16 31 28 31 7 0 7 -4 -1 -12 -7 -7 -12 -16 -12 -20 0 -12 33 -6 43 7 4 6 5
-1 3 -15 -2 -14 1 -31 6 -37 19 -24 -5 -13 -29 14 -20 21 -27 23 -34 12 -7
-11 -9 -11 -9 -1 0 7 -6 12 -12 11 -7 -1 -22 -1 -33 0 -17 1 -18 3 -5 11 8 5
11 10 6 10 -5 0 -3 7 4 15 14 17 4 39 -13 28 -12 -8 -17 -9 -38 -12 -5 0 -7
-5 -4 -11 10 -17 -4 -11 -25 10 -11 11 -15 22 -10 25 6 4 10 1 10 -5 0 -7 8
-6 21 4 15 10 28 12 45 6 18 -7 22 -6 18 4 -5 14 -34 15 -64 2 -9 -4 -29 4
-48 18 -26 19 -29 25 -17 30 11 4 14 2 9 -6 -4 -6 -3 -8 3 -5 6 4 19 0 29 -8
16 -13 17 -14 2 -9 -21 7 -24 -1 -4 -9 8 -3 20 2 28 11 11 13 11 14 -1 7 -10
-6 -12 -4 -6 5 6 9 4 11 -5 5 -9 -5 -11 -4 -6 3 4 8 2 10 -7 6 -20 -7 -32 15
-18 29 9 9 19 4 40 -22 17 -20 33 -31 40 -27 6 4 9 11 6 16 -9 14 20 18 38 5
14 -10 15 -14 4 -24 -8 -6 -18 -7 -22 -3 -5 4 -5 2 -2 -4 4 -6 19 -9 34 -7 61
9 68 9 79 1 7 -5 17 -2 24 7 7 8 9 15 5 15 -4 0 -2 7 5 15 6 8 9 19 6 24 -9
14 25 81 38 74 6 -4 6 -8 -2 -11z m-423 -21 c2 -1 -4 -10 -13 -20 -11 -12 -13
-21 -6 -24 7 -4 7 -5 -1 -3 -6 1 -10 5 -9 10 1 5 -4 12 -10 16 -17 11 -4 29
18 25 9 -2 19 -4 21 -4z m145 -4 c3 3 6 1 6 -5 0 -11 -13 -16 -32 -13 -5 0 -7
-2 -7 -6 3 -21 -3 -31 -20 -36 -32 -8 -44 6 -30 36 7 15 15 24 20 22 4 -3 10
-1 14 5 4 7 12 7 24 0 10 -5 21 -6 25 -3z m345 -69 c21 -26 25 -27 41 -13 9 8
20 12 24 8 10 -11 56 -11 56 -1 0 5 5 6 10 3 6 -3 10 -11 10 -16 0 -6 -4 -8
-9 -5 -5 4 -11 1 -13 -6 -2 -6 -12 -12 -22 -14 -13 -2 -16 2 -12 14 5 13 2 12
-9 -2 -8 -11 -15 -23 -15 -26 0 -3 -9 -6 -20 -7 -11 -1 -19 1 -19 5 4 28 -2
34 -15 17 -13 -18 -13 -17 -11 10 3 27 2 28 -9 13 -7 -10 -16 -18 -18 -18 -10
0 -4 35 7 43 6 5 4 7 -5 5 -9 -3 -14 -17 -14 -39 0 -19 -4 -37 -9 -40 -5 -4
-4 -10 2 -13 6 -4 11 -2 11 4 0 6 5 8 11 4 8 -4 7 -9 -2 -15 -7 -4 -10 -11 -6
-16 5 -4 13 -1 18 7 9 12 10 12 5 -2 -3 -10 -2 -17 2 -17 20 3 33 -2 27 -11
-8 -13 -65 16 -65 33 0 8 -3 8 -9 -2 -6 -9 -11 -10 -15 -2 -4 6 -2 11 4 11 6
0 8 5 5 11 -5 6 -13 3 -22 -10 -8 -12 -19 -18 -25 -15 -6 4 -5 10 3 15 10 6 8
8 -8 6 -12 -2 -26 -7 -30 -12 -5 -4 -2 -5 6 0 9 5 12 4 8 -2 -8 -12 17 -36 26
-26 4 3 7 -1 7 -10 0 -10 -3 -16 -7 -16 -29 5 -36 -2 -17 -17 18 -15 18 -15
-3 -5 -15 8 -21 18 -18 32 6 31 -3 41 -27 28 -16 -9 -19 -8 -12 3 5 7 9 15 10
18 3 18 18 40 26 40 5 0 6 -5 2 -11 -4 -7 -1 -10 7 -7 8 3 21 2 30 -3 18 -9
58 25 46 38 -4 3 0 17 8 30 9 13 13 29 9 35 -13 20 19 -5 45 -34z m66 22 c3
-5 -1 -10 -10 -10 -9 0 -13 5 -10 10 3 6 8 10 10 10 2 0 7 -4 10 -10z m-575
-20 c-20 -13 -33 -13 -25 0 3 6 14 10 23 10 15 0 15 -2 2 -10z m494 -55 c-7
-17 6 -20 24 -5 6 6 10 7 7 4 -3 -4 1 -14 8 -22 9 -13 9 -14 0 -8 -9 5 -11 2
-6 -10 4 -11 8 -13 11 -6 4 14 22 16 22 3 0 -5 -7 -11 -15 -15 -20 -7 -79 55
-62 66 16 11 17 10 11 -7z m116 -9 c0 -7 3 -7 8 -1 8 12 44 17 37 5 -9 -15
-44 -18 -61 -6 -15 12 -15 13 0 13 9 0 16 -5 16 -11z m116 -8 c4 -7 3 -8 -4
-4 -7 4 -12 2 -12 -4 0 -6 -4 -8 -10 -5 -5 3 -7 0 -4 -8 3 -8 -2 -20 -11 -27
-13 -11 -18 -11 -28 0 -10 10 -9 11 2 5 10 -6 12 -4 6 5 -5 8 1 19 16 31 28
22 35 23 45 7z m-422 -19 c-3 -5 -10 -7 -15 -3 -5 3 -7 10 -3 15 3 5 10 7 15
3 5 -3 7 -10 3 -15z m320 7 c28 -4 30 -19 5 -34 -17 -11 -20 -11 -17 4 2 9 -2
19 -9 21 -7 3 -11 -4 -10 -16 1 -12 6 -21 11 -21 5 0 7 -3 4 -6 -4 -3 -16 0
-28 6 -20 11 -21 10 -10 -9 8 -16 8 -26 0 -39 -9 -15 -10 -14 -5 6 7 24 -4 29
-24 10 -12 -11 -13 -9 -7 7 6 20 6 20 -9 1 -8 -11 -15 -14 -15 -7 0 7 -5 9
-11 5 -8 -5 -8 -9 1 -14 9 -5 9 -9 1 -14 -6 -4 -11 -2 -11 3 0 6 -5 11 -12 11
-9 0 -9 -3 0 -12 14 -14 45 -20 37 -8 -3 5 -1 11 5 15 5 3 11 -1 11 -9 3 -29
4 -34 12 -42 13 -13 8 -27 -6 -15 -10 8 -14 7 -14 -4 0 -8 4 -12 9 -9 4 3 8
-1 8 -8 0 -10 2 -10 9 1 6 9 11 10 15 2 6 -10 -6 -15 -26 -12 -5 0 -8 -4 -8
-10 0 -5 -4 -8 -9 -5 -5 3 -7 20 -6 38 4 40 -1 49 -20 42 -8 -4 -12 -10 -9
-15 5 -9 -11 -14 -31 -9 -12 3 -56 10 -70 12 -6 1 -16 7 -22 14 -16 16 12 28
35 15 12 -7 22 -5 34 6 10 9 18 11 18 6 0 -18 -27 -34 -46 -27 -16 5 -17 4 -3
-5 9 -6 26 -9 38 -6 12 2 21 -1 21 -8 0 -7 4 -6 10 3 6 9 5 19 -3 28 -9 11 -7
17 6 27 14 10 15 14 3 18 -8 3 -17 3 -21 -1 -4 -4 -12 -7 -18 -7 -7 0 -12 -5
-12 -12 0 -21 -11 -22 -23 -3 -7 11 -9 20 -5 19 20 -3 29 3 30 21 1 13 -2 18
-9 14 -7 -4 -8 -2 -4 5 6 8 12 9 20 2 7 -6 16 -8 19 -4 4 3 9 -2 13 -11 3 -9
10 -13 15 -10 5 3 9 1 9 -5 0 -12 18 -9 50 9 14 8 27 14 30 13 3 -1 6 7 6 17
0 10 -4 17 -7 14 -4 -2 -10 0 -13 5 -4 5 6 7 21 5 16 -3 37 -6 47 -8z m121
-33 c14 -16 23 -33 20 -40 -2 -6 3 -17 11 -23 8 -7 14 -17 14 -23 0 -5 -9 -2
-20 8 -12 10 -18 25 -15 32 2 8 0 11 -5 8 -6 -4 -9 -1 -8 5 2 7 -5 14 -14 15
-16 3 -23 -6 -19 -27 2 -12 -17 -9 -25 3 -4 7 -9 8 -17 0 -7 -7 -16 -7 -29 0
-27 14 -52 -10 -29 -28 13 -11 13 -12 1 -10 -8 2 -11 2 -7 -1 4 -2 0 -11 -10
-19 -17 -13 -16 -13 4 -4 28 14 32 14 29 -4 -3 -18 -16 -33 -16 -17 0 6 -9 10
-20 9 -11 -1 -20 -5 -20 -10 0 -5 6 -7 14 -4 11 4 13 -1 10 -21 l-4 -27 20 25
c11 14 20 20 20 15 0 -6 -6 -17 -12 -24 -10 -11 -10 -12 -1 -7 9 5 11 2 7 -8
-3 -8 3 -19 15 -26 12 -6 21 -15 21 -21 0 -6 -5 -7 -12 -3 -7 4 -8 3 -4 -5 4
-6 11 -9 16 -6 4 3 11 -1 14 -7 3 -7 3 -2 0 11 -4 16 -2 22 7 19 7 -2 13 -14
14 -26 1 -11 -2 -19 -6 -17 -4 3 -12 -2 -19 -10 -18 -22 -39 -7 -35 25 2 17
-3 34 -11 41 -10 8 -14 8 -14 0 0 -6 -5 -11 -12 -11 -9 0 -9 3 0 12 25 25 6
34 -28 13 -12 -7 -13 -6 -4 6 13 18 12 27 -6 59 -18 32 -22 68 -8 76 7 4 8 2
4 -4 -10 -16 2 -32 18 -26 8 3 13 16 11 29 -1 14 2 22 7 19 5 -3 18 2 28 11
19 17 46 12 35 -6 -15 -22 16 -6 37 20 13 17 24 30 26 30 2 1 14 -11 27 -26z
m74 -34 c11 -19 11 -21 -3 -16 -8 3 -18 1 -22 -5 -4 -6 -3 -8 2 -5 6 3 16 2
24 -4 10 -6 11 -9 3 -9 -7 0 -12 -3 -12 -7 3 -19 -2 -30 -13 -30 -7 0 -20 -4
-29 -7 -11 -5 -19 -1 -23 10 -5 14 -4 15 9 4 10 -8 15 -9 15 -1 0 10 -7 13
-26 10 -4 0 -10 5 -14 11 -5 9 -9 9 -14 1 -4 -6 -3 -11 1 -11 5 0 9 -8 10 -18
1 -11 -6 -18 -19 -19 -16 -2 -18 1 -9 10 18 18 13 29 -11 22 -22 -5 -21 -5 2
10 17 11 19 14 5 9 -11 -4 -27 -7 -36 -8 -9 0 -15 -6 -12 -13 3 -7 8 -12 11
-11 20 2 28 -4 29 -22 2 -22 -12 -27 -23 -8 -4 7 -3 8 4 4 8 -5 10 -2 6 8 -8
20 -26 10 -22 -11 2 -9 -2 -18 -7 -20 -6 -2 -11 6 -11 17 0 11 5 20 11 20 5 0
3 5 -5 10 -8 5 -11 10 -6 10 4 0 1 11 -7 24 -19 28 -12 39 14 26 12 -7 20 -7
24 0 5 8 11 7 20 0 15 -12 39 -4 30 10 -3 4 2 11 11 14 9 3 12 2 8 -5 -9 -15
45 -69 63 -62 11 4 9 11 -9 31 -13 14 -17 22 -9 17 11 -6 13 -4 8 7 -5 15 0
28 12 28 4 0 12 -10 20 -21z m54 -31 c-2 -5 1 -8 7 -8 6 0 4 -8 -6 -17 -9 -10
-24 -18 -33 -18 -9 0 -15 -6 -13 -12 1 -7 -2 -13 -8 -13 -5 0 -10 -7 -10 -15
0 -8 -4 -15 -10 -15 -5 0 -8 6 -6 13 1 6 1 8 -2 3 -2 -4 -8 -2 -13 5 -7 11 -9
11 -9 1 0 -7 -4 -10 -10 -7 -5 3 -10 1 -10 -6 0 -10 -3 -10 -11 -2 -17 17 -3
31 26 28 14 -2 25 1 25 6 0 6 4 8 8 5 12 -7 39 28 36 47 -1 9 2 17 8 17 6 0 8
-7 5 -15 -7 -17 9 -30 18 -15 3 5 -5 21 -19 33 -14 13 -23 27 -19 31 8 8 52
-36 46 -46z m-409 -16 c3 -5 -1 -9 -9 -9 -8 0 -12 4 -9 9 3 4 7 8 9 8 2 0 6
-4 9 -8z m455 -23 c-11 -7 -11 -9 4 -9 9 0 17 6 17 13 0 8 3 8 8 2 10 -15 62
-17 62 -4 0 8 4 8 14 0 8 -7 13 -23 11 -37 -1 -13 2 -27 7 -30 5 -3 4 -12 -3
-20 -8 -9 -8 -14 -1 -14 6 0 16 8 21 18 12 19 14 12 5 -12 -3 -9 -12 -16 -20
-16 -8 0 -14 -7 -14 -16 0 -14 3 -14 15 -4 9 7 18 10 22 6 3 -3 1 -6 -6 -6 -7
0 -9 -5 -6 -10 5 -8 12 -7 23 2 10 7 14 8 10 4 -4 -5 0 -14 9 -21 13 -9 13
-14 3 -20 -8 -5 -11 -4 -7 2 4 6 0 13 -8 17 -20 7 -19 -3 5 -41 11 -18 15 -33
10 -33 -6 0 -10 6 -10 13 0 8 -4 7 -10 -3 -14 -22 -12 -30 8 -24 13 5 14 4 3
-4 -8 -6 -21 -7 -30 -4 -14 5 -14 4 -2 -12 10 -12 17 -14 25 -6 5 5 15 10 20
10 6 0 3 -5 -7 -11 -9 -6 -14 -15 -11 -21 5 -7 2 -8 -5 -4 -8 6 -11 2 -9 -10
2 -10 -3 -19 -9 -20 -7 -1 -18 -2 -24 -3 -5 0 -8 -5 -4 -11 3 -5 13 -7 23 -4
14 5 14 4 2 -4 -8 -6 -18 -8 -22 -6 -4 3 -8 -2 -8 -11 0 -9 5 -13 10 -10 6 3
10 1 10 -5 0 -7 -7 -10 -14 -7 -11 4 -13 1 -9 -10 4 -11 2 -14 -8 -11 -8 3
-14 11 -14 19 -1 21 -15 59 -23 58 -20 -3 -32 2 -27 11 3 6 1 10 -4 10 -22 0
-26 2 -44 18 -15 14 -16 17 -3 24 9 5 13 15 9 25 -4 11 -3 14 6 9 7 -5 10 -15
7 -23 -4 -8 -2 -11 5 -7 8 4 7 -1 -1 -17 -11 -23 -10 -23 4 -5 9 11 17 17 17
13 1 -4 2 -13 3 -19 1 -7 7 -12 14 -11 6 2 9 -4 6 -15 -3 -9 1 -6 9 8 9 14 13
28 11 32 -10 16 9 7 22 -9 12 -17 12 -17 11 2 -1 11 3 19 9 18 6 -1 11 5 11
13 0 8 -5 14 -11 14 -6 0 -4 4 4 9 8 6 18 7 22 5 10 -6 10 -1 2 20 -6 15 -8
15 -21 -1 -8 -10 -12 -12 -8 -5 4 7 1 11 -7 10 -7 -2 -11 4 -10 12 10 40 10
50 3 54 -4 3 -7 18 -6 33 1 15 -2 36 -7 45 -6 14 -5 16 7 12 8 -4 15 -2 15 4
0 5 -7 12 -15 16 -13 5 -19 -5 -16 -26 0 -4 -6 -5 -14 -1 -12 4 -13 9 -5 18 8
10 8 15 -1 21 -8 5 -9 3 -4 -5 6 -10 3 -11 -14 -2 -12 7 -21 8 -20 4 3 -20 -2
-34 -11 -28 -6 4 -7 11 -4 17 4 7 2 8 -4 4 -7 -4 -12 -2 -12 3 0 6 -5 11 -11
11 -5 0 -8 -4 -5 -9 3 -5 -2 -15 -11 -22 -9 -8 -14 -9 -11 -4 4 6 -2 11 -12
12 -13 1 -18 -4 -15 -18 2 -10 -2 -19 -8 -19 -7 0 -6 -4 3 -10 9 -6 10 -10 3
-10 -6 0 -15 5 -19 11 -5 8 -9 8 -14 -1 -5 -9 -9 -9 -14 -1 -7 10 6 16 28 12
5 -1 6 5 3 13 -4 9 -2 18 4 21 5 4 6 11 3 17 -5 7 -1 9 9 5 8 -3 20 0 25 6 6
7 23 13 38 14 19 1 23 -1 13 -8z m-165 -65 c9 -1 16 2 16 7 0 6 5 7 10 4 6 -4
8 -10 5 -15 -14 -22 45 -32 90 -15 14 5 16 4 7 -3 -8 -5 -13 -13 -13 -18 2
-11 -38 -14 -45 -3 -2 4 -12 5 -20 2 -13 -5 -13 -8 -2 -15 10 -8 9 -9 -3 -5
-9 3 -21 1 -27 -5 -7 -7 -10 -5 -8 8 2 14 -44 74 -58 74 -1 0 -2 -13 -2 -29 0
-19 4 -27 12 -24 7 2 11 -2 11 -11 -1 -8 3 -16 8 -17 10 -3 35 -25 35 -31 0
-2 -9 -4 -20 -5 -11 -1 -19 1 -17 5 3 12 -47 63 -58 58 -6 -2 -19 2 -30 10
-18 14 -18 14 0 28 11 8 24 12 30 9 7 -2 18 3 25 12 11 14 14 14 25 -2 7 -9
20 -18 29 -19z m192 20 c6 16 25 23 23 9 -3 -17 1 -33 9 -32 30 5 41 -16 17
-33 -16 -12 -30 -9 -17 4 7 7 12 17 12 23 0 5 -5 3 -10 -5 -5 -8 -10 -10 -10
-3 0 12 -24 12 -36 0 -4 -4 -12 -2 -19 3 -8 7 -12 5 -12 -5 0 -8 4 -12 8 -9 4
2 10 0 14 -6 5 -9 -7 -14 -27 -11 -3 0 -5 -10 -4 -23 2 -17 -1 -23 -10 -19 -8
3 -11 10 -7 16 3 6 1 7 -5 3 -9 -5 -9 -13 -2 -26 16 -30 11 -37 -7 -10 -10 14
-17 30 -15 35 1 6 -7 -1 -18 -15 -11 -14 -20 -19 -20 -12 0 7 -5 10 -11 6 -8
-4 -7 -9 2 -16 11 -7 10 -8 -4 -4 -12 4 -16 2 -11 -6 4 -7 3 -8 -4 -4 -8 5
-10 1 -5 -9 5 -13 7 -14 14 -3 6 10 12 9 24 -7 16 -20 16 -20 6 2 -6 12 -7 24
-2 27 11 7 29 -34 25 -57 -2 -18 -2 -18 18 0 21 18 21 18 9 -4 -8 -16 -8 -24
1 -29 7 -4 8 -3 4 4 -4 7 -3 12 3 12 5 0 8 15 6 33 -2 17 -1 26 2 19 4 -10 9
-9 20 5 13 16 13 16 3 -5 -11 -22 -10 -23 9 -13 22 12 37 -1 25 -20 -5 -8 -1
-8 14 0 11 6 28 8 36 5 9 -3 16 -2 16 4 0 6 -12 9 -27 7 -26 -3 -26 -2 -8 12
11 8 19 19 18 24 -2 5 3 9 10 9 6 0 4 5 -6 11 -9 6 -14 15 -11 21 5 7 1 9 -9
5 -9 -3 -19 -3 -21 2 -3 4 0 8 7 8 7 0 21 4 32 8 14 5 16 4 7 -3 -11 -7 -11
-10 2 -15 14 -6 15 -34 2 -56 -3 -5 0 -14 8 -20 7 -6 13 -21 12 -34 -1 -18 -7
-22 -34 -22 -28 1 -31 -1 -18 -11 15 -10 15 -12 1 -17 -8 -4 -14 -2 -12 2 4
15 -44 72 -54 65 -6 -3 -8 -13 -4 -22 3 -9 3 -13 -1 -9 -5 4 -14 -3 -21 -15
-7 -13 -12 -17 -13 -9 0 8 -6 11 -16 7 -8 -3 -12 -2 -9 3 3 5 1 12 -5 16 -6 4
-8 10 -5 15 10 17 -55 33 -66 17 -4 -5 -10 -4 -13 2 -4 6 -2 11 5 11 7 0 4 7
-7 15 -18 14 -18 16 9 19 6 0 12 10 12 21 0 13 7 20 20 20 11 0 19 6 17 13 -2
9 2 11 10 6 26 -16 47 -13 62 8 18 25 11 41 -13 33 -12 -3 -18 0 -18 10 0 9 6
14 13 11 7 -3 18 2 25 10 10 13 14 12 30 -2 17 -15 19 -15 25 0z m195 -10 c17
-18 19 -23 6 -18 -9 3 -17 10 -17 16 0 5 -4 6 -10 3 -5 -3 -10 1 -10 9 0 21 2
20 31 -10z m-399 -42 c15 -25 15 -29 2 -29 -8 0 -13 6 -10 14 3 8 -1 16 -9 19
-8 4 -15 10 -15 15 0 18 16 8 32 -19z m225 -7 c0 -8 -4 -13 -8 -12 -7 2 -9 -3
-9 -22 0 -5 9 -11 20 -14 23 -6 23 -26 0 -44 -9 -7 -19 -8 -26 -2 -6 5 -14 6
-18 2 -4 -4 -4 0 0 10 7 19 -6 23 -23 6 -7 -7 -12 -6 -16 5 -4 9 -1 15 5 13
11 -2 13 2 17 34 1 8 6 8 16 -1 13 -11 14 -10 9 4 -3 9 -1 16 5 16 6 0 11 5
11 11 0 5 -5 7 -12 3 -7 -4 -8 -3 -4 4 9 15 33 5 33 -13z m137 -1 c3 -8 2 -12
-4 -9 -6 3 -10 10 -10 16 0 14 7 11 14 -7z m-251 -73 c-2 -6 2 -11 7 -11 6 0
10 -6 10 -14 0 -18 -17 -30 -17 -13 -1 22 -8 42 -18 50 -6 5 -4 7 5 4 8 -2 14
-10 13 -16z m504 -33 c-3 -8 -6 -5 -6 6 -1 11 2 17 5 13 3 -3 4 -12 1 -19z
m128 -88 c-3 -5 -12 -10 -18 -10 -7 0 -6 4 3 10 19 12 23 12 15 0z m50 -141
c-4 -5 -12 -9 -18 -8 -9 0 -8 2 1 6 6 2 9 10 6 15 -4 7 -2 8 5 4 6 -4 9 -12 6
-17z m-737 -194 c-3 -3 -9 2 -12 12 -6 14 -5 15 5 6 7 -7 10 -15 7 -18z m635
-6 c-14 -14 -23 -17 -28 -10 -4 7 -1 10 7 9 7 -2 12 3 10 10 -1 8 2 11 8 7 5
-3 10 -1 10 6 0 7 3 9 7 5 4 -3 -2 -16 -14 -27z m-713 -14 c7 -9 8 -15 2 -15
-5 0 -12 7 -16 15 -3 8 -4 15 -2 15 2 0 9 -7 16 -15z m-117 -91 c-4 -12 -8
-13 -14 -3 -9 15 -2 32 11 24 5 -3 6 -13 3 -21z m627 -14 c0 -5 -5 -10 -11
-10 -5 0 -7 5 -4 10 3 6 8 10 11 10 2 0 4 -4 4 -10z m-725 -43 c6 -5 -1 -5
-14 -2 -14 4 -21 3 -18 -2 4 -5 0 -10 -8 -10 -13 0 -12 4 2 19 9 10 19 15 22
11 3 -4 11 -11 16 -16z m685 -3 c0 -8 -19 -13 -24 -6 -3 5 1 9 9 9 8 0 15 -2
15 -3z m-796 -39 c-4 -8 -10 -15 -16 -15 -5 0 -7 -4 -4 -8 3 -5 -2 -9 -10 -9
-11 0 -9 6 8 24 25 27 30 29 22 8z m-197 -145 c-12 -10 -26 -16 -30 -13 -13 8
23 42 39 36 10 -4 8 -9 -9 -23z m738 20 c3 -6 -1 -7 -9 -4 -18 7 -21 14 -7 14
6 0 13 -4 16 -10z m-925 -84 c0 -3 -4 -8 -10 -11 -5 -3 -10 -1 -10 4 0 6 5 11
10 11 6 0 10 -2 10 -4z m124 -384 c3 -5 -1 -9 -9 -9 -8 0 -12 4 -9 9 3 4 7 8
9 8 2 0 6 -4 9 -8z m-467 -138 c-3 -3 -12 -4 -19 -1 -8 3 -5 6 6 6 11 1 17 -2
13 -5z m183 -28 c0 -2 -7 -7 -16 -10 -8 -3 -12 -2 -9 4 6 10 25 14 25 6z"/>
<path d="M547 2268 c12 -12 26 -17 33 -13 9 6 8 11 -6 18 -34 20 -49 17 -27
-5z"/>
<path d="M600 2280 c0 -5 5 -10 11 -10 5 0 7 5 4 10 -3 6 -8 10 -11 10 -2 0
-4 -4 -4 -10z"/>
<path d="M596 2181 c-4 -6 -3 -11 3 -11 5 0 8 -9 6 -20 -2 -11 -1 -20 3 -21 4
0 14 -2 23 -4 9 -1 16 4 16 11 0 8 -3 12 -5 9 -3 -3 -13 7 -23 21 -10 16 -19
22 -23 15z"/>
<path d="M830 2120 c0 -5 5 -10 10 -10 6 0 10 5 10 10 0 6 -4 10 -10 10 -5 0
-10 -4 -10 -10z"/>
<path d="M964 2033 c2 -10 -2 -21 -8 -25 -6 -4 -8 -9 -5 -13 3 -3 13 3 23 14
14 16 15 20 2 30 -12 10 -14 9 -12 -6z"/>
<path d="M741 2136 c-9 -11 -9 -16 0 -22 7 -4 9 -3 5 4 -3 6 2 15 11 21 10 6
13 11 7 11 -6 0 -17 -6 -23 -14z"/>
<path d="M857 2045 c3 -8 9 -12 14 -9 12 7 11 11 -5 17 -10 4 -13 1 -9 -8z"/>
<path d="M985 1980 c-3 -6 1 -7 9 -4 18 7 21 14 7 14 -6 0 -13 -4 -16 -10z"/>
<path d="M710 1940 c0 -5 5 -10 10 -10 6 0 10 5 10 10 0 6 -4 10 -10 10 -5 0
-10 -4 -10 -10z"/>
<path d="M710 1900 c0 -5 5 -10 10 -10 6 0 10 5 10 10 0 6 -4 10 -10 10 -5 0
-10 -4 -10 -10z"/>
<path d="M765 1872 c-10 -7 -18 -32 -10 -32 2 0 9 9 15 20 12 22 11 24 -5 12z"/>
<path d="M687 1856 c-10 -8 -14 -17 -9 -20 6 -3 13 1 16 10 3 8 11 12 17 8 8
-4 9 -3 5 4 -9 14 -7 15 -29 -2z"/>
<path d="M785 1820 c-3 -6 1 -7 9 -4 18 7 21 14 7 14 -6 0 -13 -4 -16 -10z"/>
<path d="M864 1762 c4 -3 14 -7 22 -8 9 -1 13 0 10 4 -4 3 -14 7 -22 8 -9 1
-13 0 -10 -4z"/>
<path d="M996 1682 c-3 -5 1 -9 9 -9 8 0 12 4 9 9 -3 4 -7 8 -9 8 -2 0 -6 -4
-9 -8z"/>
<path d="M1075 1640 c2 -27 10 -33 12 -10 1 11 -2 22 -6 24 -4 3 -7 -4 -6 -14z"/>
<path d="M1170 1580 c0 -5 5 -10 11 -10 5 0 7 5 4 10 -3 6 -8 10 -11 10 -2 0
-4 -4 -4 -10z"/>
<path d="M1396 1445 c4 -8 8 -15 10 -15 2 0 4 7 4 15 0 8 -4 15 -10 15 -5 0
-7 -7 -4 -15z"/>
<path d="M1630 1260 c0 -5 5 -10 11 -10 5 0 7 5 4 10 -3 6 -8 10 -11 10 -2 0
-4 -4 -4 -10z"/>
<path d="M1640 1233 c0 -6 8 -17 18 -24 16 -13 16 -13 2 6 -8 11 -16 22 -17
24 -2 2 -3 0 -3 -6z"/>
<path d="M1523 1123 c-7 -2 -13 -9 -13 -15 0 -7 5 -7 13 1 8 6 17 8 20 4 4 -3
7 -1 7 5 0 13 -7 14 -27 5z"/>
<path d="M1187 923 c-4 -3 -7 -11 -7 -17 0 -6 5 -5 12 2 6 6 9 14 7 17 -3 3
-9 2 -12 -2z"/>
<path d="M915 759 c-10 -15 3 -25 16 -12 7 7 7 13 1 17 -6 3 -14 1 -17 -5z"/>
<path d="M780 2045 c-7 -9 -8 -15 -2 -15 5 0 12 7 16 15 3 8 4 15 2 15 -2 0
-9 -7 -16 -15z"/>
<path d="M1186 1925 c3 -7 12 -16 19 -19 9 -3 12 0 9 9 -3 7 -12 16 -19 19 -9
3 -12 0 -9 -9z"/>
<path d="M835 1920 c3 -5 8 -10 11 -10 2 0 4 5 4 10 0 6 -5 10 -11 10 -5 0 -7
-4 -4 -10z"/>
<path d="M920 1887 c-12 -19 -11 -21 2 -10 8 7 18 10 21 6 4 -3 7 -1 7 5 0 21
-16 21 -30 -1z"/>
<path d="M1087 1885 c3 -8 9 -12 14 -9 12 7 11 11 -5 17 -10 4 -13 1 -9 -8z"/>
<path d="M874 1834 c-18 -15 -18 -15 2 -5 12 6 25 7 29 3 5 -4 5 -1 1 6 -9 15
-8 15 -32 -4z"/>
<path d="M666 1958 c3 -5 10 -6 15 -3 13 9 11 12 -6 12 -8 0 -12 -4 -9 -9z"/>
<path d="M782 1949 c-27 -24 -20 -44 9 -26 10 6 14 14 9 15 -7 3 -7 9 1 18 17
21 6 17 -19 -7z"/>
<path d="M1231 1876 c-10 -12 -6 -26 10 -26 11 0 19 29 10 35 -5 2 -14 -1 -20
-9z"/>
<path d="M1350 1799 c0 -5 5 -7 10 -4 6 3 10 8 10 11 0 2 -4 4 -10 4 -5 0 -10
-5 -10 -11z"/>
<path d="M1120 1770 c-9 -6 -10 -10 -3 -10 6 0 15 5 18 10 8 12 4 12 -15 0z"/>
<path d="M1374 1768 c-19 -23 -19 -23 2 -5 11 9 24 14 27 10 4 -3 7 -1 7 5 0
19 -15 14 -36 -10z"/>
<path d="M1310 1759 c0 -5 5 -7 10 -4 6 3 10 8 10 11 0 2 -4 4 -10 4 -5 0 -10
-5 -10 -11z"/>
<path d="M1241 1691 c-8 -5 -9 -11 -3 -15 5 -3 12 1 16 9 6 17 6 18 -13 6z"/>
<path d="M1326 1518 c3 -5 10 -6 15 -3 13 9 11 12 -6 12 -8 0 -12 -4 -9 -9z"/>
<path d="M1314 1716 c13 -11 23 -12 31 -6 7 5 16 6 20 2 5 -4 5 -1 0 6 -5 10
-10 11 -18 3 -7 -7 -17 -7 -31 0 -20 10 -20 10 -2 -5z"/>
<path d="M1396 1722 c-3 -5 1 -9 9 -9 8 0 12 4 9 9 -3 4 -7 8 -9 8 -2 0 -6 -4
-9 -8z"/>
<path d="M1551 1667 c-8 -10 -7 -14 2 -14 8 0 14 6 14 14 0 7 -1 13 -2 13 -2
0 -8 -6 -14 -13z"/>
<path d="M1703 1605 c0 -8 4 -12 9 -9 5 3 6 10 3 15 -9 13 -12 11 -12 -6z"/>
<path d="M1713 1510 c-10 -27 -10 -29 7 -20 15 8 21 6 29 -7 16 -28 13 -5 -4
27 -9 17 -17 30 -18 30 -1 0 -8 -13 -14 -30z"/>
<path d="M1710 1398 c0 -6 8 -7 18 -3 13 5 14 4 5 -6 -7 -7 -22 -13 -35 -14
-12 -1 -24 -8 -26 -15 -3 -9 1 -11 13 -6 14 5 15 4 7 -7 -7 -8 -7 -18 -2 -27
7 -11 10 -11 11 -2 1 6 3 17 4 22 1 6 3 14 4 19 0 6 9 8 19 6 14 -2 18 2 17
18 -2 20 -35 35 -35 15z"/>
<path d="M1333 1607 c-7 -11 3 -20 25 -22 10 -1 18 6 18 15 0 16 -33 22 -43 7z"/>
<path d="M1430 1601 c0 -5 7 -12 16 -15 8 -3 12 -11 8 -17 -4 -8 -3 -9 4 -5
17 10 15 19 -8 34 -11 7 -20 8 -20 3z"/>
<path d="M1575 1630 c-4 -6 -4 -14 -1 -17 3 -4 6 0 6 8 0 12 2 12 10 -1 5 -8
12 -12 15 -9 3 4 -1 12 -9 18 -10 9 -16 9 -21 1z"/>
<path d="M1652 1438 c2 -6 15 -12 28 -13 21 -2 22 -1 5 12 -23 16 -38 17 -33
1z"/>
<path d="M1610 1512 c20 -26 40 -34 40 -16 0 3 -4 2 -10 -1 -5 -3 -10 -1 -10
4 0 6 5 11 12 11 15 0 4 11 -14 14 -7 1 -19 5 -27 10 -7 5 -3 -5 9 -22z"/>
<path d="M859 693 c-13 -16 -12 -17 4 -4 9 7 17 15 17 17 0 8 -8 3 -21 -13z"/>
<path d="M388 2483 c7 -3 16 -2 19 1 4 3 -2 6 -13 5 -11 0 -14 -3 -6 -6z"/>
<path d="M235 2421 c-3 -5 -2 -12 3 -15 5 -3 9 1 9 9 0 17 -3 19 -12 6z"/>
<path d="M516 2407 c3 -10 9 -15 12 -12 3 3 0 11 -7 18 -10 9 -11 8 -5 -6z"/>
<path d="M483 2389 c9 -6 15 -14 12 -18 -7 -12 22 -34 37 -28 7 3 4 6 -7 7
l-20 1 20 15 c12 10 14 14 5 12 -8 -3 -21 1 -28 9 -7 7 -19 13 -25 13 -7 0 -4
-5 6 -11z"/>
<path d="M230 2336 c0 -2 7 -7 16 -10 8 -3 12 -2 9 4 -6 10 -25 14 -25 6z"/>
<path d="M797 2243 c-4 -3 -7 -11 -7 -17 0 -6 5 -5 12 2 6 6 9 14 7 17 -3 3
-9 2 -12 -2z"/>
<path d="M235 2181 c-3 -5 -2 -12 3 -15 5 -3 9 1 9 9 0 17 -3 19 -12 6z"/>
<path d="M872 2174 c-7 -8 -8 -14 -3 -14 10 0 25 19 20 25 -2 1 -10 -3 -17
-11z"/>
<path d="M977 2113 c3 -7 6 -13 8 -13 2 0 5 6 8 13 3 8 -1 14 -8 14 -7 0 -11
-6 -8 -14z"/>
<path d="M1072 2071 c-11 -7 -11 -9 0 -14 9 -3 15 1 15 9 0 8 -1 14 -1 14 -1
0 -7 -4 -14 -9z"/>
<path d="M1139 2033 c-12 -16 -12 -17 2 -6 9 7 20 9 24 5 5 -4 5 -1 1 6 -9 16
-11 15 -27 -5z"/>
<path d="M235 2001 c-3 -5 -2 -12 3 -15 5 -3 9 1 9 9 0 17 -3 19 -12 6z"/>
<path d="M1187 1999 c7 -7 15 -10 18 -7 3 3 -2 9 -12 12 -14 6 -15 5 -6 -5z"/>
<path d="M1233 1985 c0 -8 4 -12 9 -9 5 3 6 10 3 15 -9 13 -12 11 -12 -6z"/>
<path d="M1350 1900 c0 -5 5 -10 11 -10 5 0 7 5 4 10 -3 6 -8 10 -11 10 -2 0
-4 -4 -4 -10z"/>
<path d="M1375 1879 c-4 -6 -4 -13 -1 -16 3 -4 6 -1 6 7 0 10 4 10 18 -1 15
-13 16 -12 3 4 -16 20 -18 20 -26 6z"/>
<path d="M1590 1733 c5 -2 8 -9 4 -14 -3 -5 0 -9 6 -9 15 0 7 23 -8 26 -7 1
-8 0 -2 -3z"/>
<path d="M1895 1580 c-8 -13 9 -20 24 -11 10 6 9 10 -3 14 -8 3 -18 2 -21 -3z"/>
<path d="M235 1521 c-3 -5 -2 -12 3 -15 5 -3 9 1 9 9 0 17 -3 19 -12 6z"/>
<path d="M235 1461 c-3 -5 -2 -12 3 -15 5 -3 9 1 9 9 0 17 -3 19 -12 6z"/>
<path d="M230 1376 c0 -2 7 -7 16 -10 8 -3 12 -2 9 4 -6 10 -25 14 -25 6z"/>
<path d="M235 1221 c-3 -5 -2 -12 3 -15 5 -3 9 1 9 9 0 17 -3 19 -12 6z"/>
<path d="M235 1041 c-3 -5 -2 -12 3 -15 5 -3 9 1 9 9 0 17 -3 19 -12 6z"/>
<path d="M1946 917 c3 -10 9 -15 12 -12 3 3 0 11 -7 18 -10 9 -11 8 -5 -6z"/>
<path d="M1805 840 c-3 -5 -1 -10 4 -10 6 0 11 5 11 10 0 6 -2 10 -4 10 -3 0
-8 -4 -11 -10z"/>
<path d="M235 561 c-3 -5 -2 -12 3 -15 5 -3 9 1 9 9 0 17 -3 19 -12 6z"/>
<path d="M235 501 c-3 -5 -2 -12 3 -15 5 -3 9 1 9 9 0 17 -3 19 -12 6z"/>
<path d="M1174 438 c-3 -5 -3 -12 0 -15 3 -4 6 -1 6 5 0 6 10 9 21 7 12 -3 19
-1 15 2 -11 11 -35 12 -42 1z"/>
<path d="M1125 421 c-3 -5 -2 -12 3 -15 5 -3 9 1 9 9 0 17 -3 19 -12 6z"/>
<path d="M230 416 c0 -2 7 -7 16 -10 8 -3 12 -2 9 4 -6 10 -25 14 -25 6z"/>
<path d="M1075 380 c-4 -6 -10 -8 -15 -5 -4 3 -13 -2 -19 -9 -10 -11 -9 -14 2
-12 8 1 21 7 29 14 8 6 19 8 23 4 5 -4 5 -1 1 6 -9 15 -13 15 -21 2z"/>
<path d="M956 307 c-16 -12 -16 -14 -2 -14 9 0 16 4 16 9 0 5 5 6 12 2 7 -4 8
-3 4 4 -9 15 -8 15 -30 -1z"/>
<path d="M733 153 c-1 -19 1 -22 8 -12 11 17 12 39 2 39 -5 0 -9 -12 -10 -27z"/>
</g>
</svg>
