<svg xmlns="http://www.w3.org/2000/svg" viewBox="0 0 70 28" width="70" height="28">
	<style>
		tspan { white-space:pre }
		.shp0 { fill: #ffffff } 
	</style>
	<g id="Layer">
		<path id="Layer" fill-rule="evenodd" class="shp0" d="M0.53 4.14L21.31 4.14L21.31 23.78L0.53 23.78L0.53 4.14ZM24.5 23.78L24.5 4.14L45.28 4.14L45.28 23.78L24.5 23.78ZM48.46 23.78L48.46 4.14L69.25 4.14L69.25 23.78L48.46 23.78ZM38 13.02C38.22 12.82 38.41 12.6 38.57 12.35C38.73 12.1 38.85 11.83 38.94 11.55C39.02 11.26 39.06 10.97 39.06 10.68C39.06 10.38 39.34 7.32 34.89 6.9L29.96 6.9L29.96 20.99L35.62 20.99C35.62 20.99 40.35 20.99 40.35 17.02C40.34 16.6 40.25 16.18 40.1 15.78C39.94 15.39 39.72 15.02 39.44 14.7C39.16 14.38 38.83 14.12 38.46 13.91C38.09 13.71 37.68 13.57 37.26 13.5C37.53 13.37 37.78 13.21 38 13.02ZM32.46 9.1L34.49 9.1C36.59 9.21 36.5 10.77 36.5 10.77C36.5 12.71 34.18 12.74 34.18 12.74L32.46 12.74L32.46 9.1ZM37.74 16.81C37.74 18.94 35.09 18.81 35.09 18.81L32.46 18.81L32.46 14.96L35.1 14.96C37.83 14.95 37.75 16.81 37.75 16.81L37.74 16.81ZM14.04 13.02C14.26 12.83 14.45 12.6 14.61 12.35C14.77 12.1 14.89 11.83 14.98 11.55C15.06 11.27 15.1 10.97 15.1 10.68C15.1 10.38 15.38 7.32 10.93 6.9L6 6.9L6 20.99L11.65 20.99C11.65 20.99 16.38 21.01 16.38 16.98C16.37 16.56 16.28 16.15 16.13 15.75C15.98 15.36 15.75 15 15.47 14.68C15.2 14.37 14.86 14.1 14.49 13.9C14.13 13.7 13.72 13.56 13.31 13.5C13.57 13.38 13.82 13.21 14.04 13.02ZM8.5 9.1L10.51 9.1C12.61 9.22 12.53 10.77 12.53 10.77C12.53 12.71 10.21 12.74 10.21 12.74L8.5 12.74L8.5 9.1ZM13.78 16.81C13.78 18.94 11.13 18.81 11.13 18.81L8.5 18.81L8.5 14.96L11.14 14.96C13.87 14.95 13.79 16.81 13.79 16.81L13.78 16.81ZM65 7.93C64.69 7.79 64.38 7.67 64.06 7.56C63.74 7.45 63.42 7.35 63.09 7.26C62.77 7.17 62.44 7.09 62.11 7.02C61.78 6.95 61.44 6.9 61.11 6.85C60.76 6.81 60.41 6.78 60.07 6.77C59.72 6.76 59.37 6.77 59.02 6.79C58.67 6.82 58.33 6.86 57.98 6.93C57.64 6.99 57.3 7.07 56.96 7.17C55.53 7.52 54.24 8.31 53.27 9.44C52.31 10.56 51.73 11.96 51.61 13.44C51.5 14.91 51.85 16.39 52.62 17.65C53.39 18.91 54.54 19.9 55.9 20.47C56.64 20.76 57.41 20.96 58.2 21.08C58.99 21.19 59.78 21.23 60.57 21.18C61.37 21.13 62.15 20.99 62.92 20.78C63.68 20.56 64.42 20.27 65.12 19.89L65.12 17.19C64.72 17.48 64.3 17.74 63.86 17.96C63.42 18.18 62.97 18.37 62.5 18.52C62.03 18.67 61.55 18.78 61.06 18.85C60.58 18.92 60.08 18.95 59.59 18.95C54 18.67 54.19 13.96 54.19 13.96C54.43 8.82 59.66 8.92 59.66 8.92C60.13 8.95 60.6 9 61.06 9.08C61.52 9.16 61.98 9.27 62.43 9.4C62.88 9.54 63.32 9.7 63.75 9.88C64.18 10.07 64.6 10.28 65 10.52L65 7.93ZM13.31 13.5L13.31 13.5L13.3 13.5L13.31 13.5Z" />
	</g>
</svg>