<svg xmlns="http://www.w3.org/2000/svg" viewBox="0 0 102 28" width="102" height="28">
	<style>
		tspan { white-space:pre }
		.shp0 { fill: #ffffff } 
	</style>
	<g id="Layer">
		<path id="Layer" fill-rule="evenodd" class="shp0" d="M70.15 20.2L77.41 7.84L101.75 7.84L101.75 9.88L83.5 9.88L81.7 13L91.34 13L90.17 15.04L80.48 15.04L78.62 18.15L88.31 18.15L87.1 20.2L70.15 20.2ZM52.67 16.98L59.98 16.98C59.73 17.34 59.62 17.7 59.78 17.92C60.04 18.32 60.98 18.12 61.23 18.04C61.33 18.01 61.44 17.96 61.53 17.91C61.63 17.85 61.72 17.78 61.81 17.71C61.89 17.64 61.97 17.55 62.04 17.46C62.11 17.37 62.16 17.28 62.21 17.18L63.43 15.04L55.98 15.04C54.43 15.04 54.37 14.11 55 13L57.3 9.11C57.44 8.88 57.61 8.67 57.82 8.49C58.02 8.31 58.25 8.17 58.49 8.06C58.74 7.94 59 7.87 59.26 7.83C59.53 7.79 59.8 7.8 60.07 7.84L73.02 7.84C74.33 7.84 74.33 8.91 73.8 9.88L73.07 11.19L65.72 11.19C65.77 11.12 65.81 11.04 65.84 10.95C65.87 10.86 65.89 10.77 65.9 10.68C65.9 10.59 65.89 10.5 65.88 10.41C65.86 10.32 65.82 10.23 65.78 10.15C65.5 9.77 64.74 9.85 64.35 10.05C64.25 10.11 64.17 10.17 64.08 10.24C64 10.31 63.92 10.39 63.85 10.47C63.78 10.55 63.71 10.63 63.65 10.72C63.58 10.81 63.53 10.9 63.48 11L62.31 13L69.51 13C71.03 13 71.26 14.11 70.78 15.04L68.59 18.7C68.45 18.93 68.27 19.15 68.07 19.34C67.87 19.53 67.64 19.69 67.4 19.82C67.16 19.96 66.9 20.06 66.63 20.12C66.36 20.18 66.09 20.21 65.81 20.21L52.95 20.21C51.69 20.21 51.25 19.37 51.79 18.45L52.67 16.98ZM37.28 9.88C38.45 7.84 40.4 7.84 41.91 7.84L52.92 7.84C54.08 7.84 55.06 8.81 54.43 9.88L49.56 18.15C48.53 19.8 47.71 20.2 46.39 20.2L33.58 20.2C32.32 20.2 31.74 19.27 32.42 18.15L37.28 9.88ZM39.96 17.17C39.93 17.21 39.91 17.26 39.89 17.31C39.87 17.36 39.86 17.41 39.85 17.46C39.84 17.51 39.84 17.56 39.84 17.61C39.84 17.66 39.85 17.71 39.86 17.76C40.1 18.27 41.54 18.18 42.03 18.08C42.15 18.05 42.26 18 42.37 17.95C42.48 17.89 42.57 17.83 42.67 17.75C42.76 17.67 42.84 17.58 42.91 17.48C42.98 17.39 43.04 17.28 43.08 17.17L46.74 11C46.99 10.56 46.97 10.27 46.74 10.1C46.59 10.03 46.44 9.98 46.29 9.95C46.13 9.91 45.97 9.89 45.81 9.88C45.65 9.87 45.49 9.87 45.34 9.89C45.18 9.9 45.02 9.93 44.87 9.97C44.74 10.01 44.61 10.07 44.49 10.13C44.38 10.2 44.26 10.27 44.16 10.36C44.06 10.45 43.97 10.55 43.88 10.65C43.8 10.76 43.73 10.87 43.67 11L39.96 17.17ZM19.51 7.84L33.64 7.84C33.91 7.81 34.18 7.87 34.42 7.99C34.66 8.12 34.86 8.31 35 8.55C35.13 8.79 35.19 9.06 35.17 9.33C35.16 9.6 35.06 9.86 34.9 10.08L33.44 12.56C33.33 12.79 33.18 13.01 33 13.2C32.83 13.39 32.63 13.56 32.42 13.71C32.2 13.85 31.97 13.97 31.72 14.05C31.48 14.14 31.22 14.19 30.96 14.21C31.12 14.3 31.27 14.42 31.38 14.57C31.49 14.72 31.56 14.89 31.6 15.07C31.64 15.25 31.63 15.44 31.59 15.62C31.55 15.8 31.46 15.97 31.35 16.11L29.89 18.65C29.77 18.9 29.61 19.14 29.42 19.34C29.22 19.55 29 19.73 28.75 19.86C28.51 20 28.24 20.1 27.96 20.16C27.69 20.22 27.4 20.23 27.12 20.21L-0.02 20.21L-0.02 18.16L13.43 18.16L19.51 7.84ZM23.75 13L27.35 13C27.49 13.01 27.64 12.99 27.78 12.96C27.91 12.93 28.05 12.87 28.17 12.8C28.29 12.73 28.4 12.64 28.49 12.53C28.59 12.42 28.66 12.3 28.72 12.17L29.45 11C29.75 10.47 29.75 9.88 29.12 9.88L25.6 9.88L23.75 13ZM20.69 18.15L24.28 18.15C24.43 18.16 24.57 18.15 24.71 18.12C24.85 18.09 24.98 18.03 25.1 17.96C25.22 17.88 25.33 17.79 25.43 17.69C25.52 17.58 25.6 17.46 25.65 17.33L26.39 16.16C26.68 15.62 26.68 15.03 26.04 15.03L22.54 15.03L20.69 18.15ZM99.86 11.72C99.7 11.34 99.79 10.9 100.08 10.6C100.37 10.31 100.82 10.22 101.2 10.38C101.58 10.54 101.83 10.91 101.83 11.33C101.83 11.46 101.8 11.59 101.75 11.72C101.7 11.84 101.63 11.96 101.53 12.05C101.43 12.15 101.32 12.22 101.2 12.27C101.07 12.32 100.94 12.35 100.81 12.35C100.39 12.35 100.02 12.1 99.86 11.72ZM100.2 11.93C100.36 12.1 100.58 12.19 100.8 12.19C101.03 12.19 101.25 12.1 101.41 11.93C101.56 11.77 101.65 11.55 101.63 11.32C101.65 11.09 101.56 10.87 101.41 10.71C101.25 10.54 101.03 10.45 100.8 10.45C100.58 10.45 100.36 10.54 100.2 10.71C100.05 10.87 99.96 11.09 99.97 11.32C99.96 11.55 100.05 11.77 100.2 11.93ZM100.59 11.4L100.59 11.91L100.41 11.91L100.41 10.73L100.86 10.73C101.14 10.73 101.27 10.83 101.27 11.07C101.28 11.11 101.27 11.15 101.26 11.19C101.24 11.23 101.22 11.26 101.19 11.3C101.16 11.33 101.13 11.35 101.09 11.37C101.05 11.38 101.01 11.39 100.97 11.39L101.3 11.91L101.1 11.91L100.8 11.4L100.59 11.4ZM100.59 11.25L100.81 11.25C100.96 11.25 101.09 11.24 101.09 11.06C101.09 10.92 100.96 10.89 100.84 10.89L100.59 10.89L100.59 11.25Z" />
	</g>
</svg>