<svg xmlns="http://www.w3.org/2000/svg" viewBox="0 0 131 28" width="131" height="28">
	<style>
		tspan { white-space:pre }
		.shp0 { fill: #ffffff } 
	</style>
	<g id="Layer">
		<path id="Layer" fill-rule="evenodd" class="shp0" d="M42.62 4.63L41.82 4.79C41.7 4.3 41.51 3.84 41.24 3.42C40.96 3.01 40.62 2.64 40.23 2.34C39.83 2.03 39.38 1.8 38.91 1.65C38.43 1.5 37.94 1.43 37.44 1.45C34.79 1.45 32.8 3.8 32.8 6.95C32.8 10.2 34.85 12.59 37.68 12.59C38.2 12.6 38.72 12.52 39.21 12.36C39.7 12.19 40.15 11.94 40.55 11.61C40.96 11.28 41.29 10.88 41.56 10.44C41.82 9.99 41.99 9.5 42.08 8.99L42.88 9.1L42.55 12.04C42.15 12.27 41.73 12.49 41.31 12.67C40.88 12.85 40.44 13.01 40 13.13C39.55 13.26 39.09 13.36 38.63 13.42C38.17 13.49 37.71 13.53 37.25 13.54C33.09 13.54 30.26 10.84 30.26 6.87C30.26 3.04 33 0.48 37.11 0.48C37.51 0.48 37.9 0.5 38.29 0.54C38.67 0.58 39.06 0.64 39.44 0.72C39.83 0.8 40.2 0.9 40.58 1.03C40.95 1.15 41.31 1.29 41.67 1.45C41.7 1.46 41.73 1.47 41.76 1.48C41.79 1.49 41.81 1.5 41.84 1.51C41.87 1.52 41.9 1.54 41.93 1.55C41.96 1.56 41.99 1.57 42.02 1.59L42.62 4.63ZM57.96 2.64C58.33 3.46 58.47 3.75 58.95 4.68C59.37 5.52 59.64 6.05 59.75 6.29L60.39 7.64L61.03 8.92L61.25 9.38C61.62 8.68 61.75 8.41 62.13 7.57L62.84 6.03L63.57 4.41L64.17 3.04L64.34 2.64L68.01 2.64L68.01 3.13C67.97 3.12 67.93 3.11 67.89 3.1C67.85 3.1 67.81 3.09 67.77 3.08C67.73 3.08 67.69 3.07 67.65 3.07C67.61 3.07 67.57 3.06 67.53 3.06C66.51 3.08 66.33 3.44 66.33 5.36L66.33 9.21C66.33 11.06 66.55 11.51 67.5 11.51C67.55 11.5 67.6 11.5 67.65 11.5C67.71 11.5 67.76 11.49 67.81 11.49C67.86 11.48 67.91 11.47 67.96 11.47C68 11.46 68.05 11.45 68.1 11.44L68.1 11.93L62.84 11.93L62.84 11.44C62.88 11.45 62.91 11.46 62.94 11.46C62.98 11.47 63.01 11.48 63.05 11.48C63.08 11.49 63.12 11.49 63.16 11.5C63.19 11.5 63.23 11.5 63.26 11.5C64.15 11.5 64.36 11.04 64.36 9.2L64.36 4.48C64.25 4.72 64.16 4.88 64.1 5.01C64.05 5.1 63.83 5.56 63.43 6.42L62.71 8.01L61.9 9.82C61.49 10.75 61.26 11.28 61.2 11.42C61.15 11.5 61.11 11.64 61.02 11.84L60.42 11.84L60.22 11.37C59.47 9.69 59.34 9.43 58.78 8.28L58.05 6.73C57.65 5.93 57.4 5.43 57.29 5.21C57.23 5.05 57.09 4.83 56.94 4.54L56.94 9.64C56.94 11.04 57.25 11.48 58.22 11.48C58.26 11.48 58.29 11.48 58.32 11.47C58.36 11.47 58.39 11.47 58.42 11.46C58.46 11.46 58.49 11.45 58.52 11.44C58.56 11.43 58.59 11.42 58.62 11.41L58.62 11.9L54.55 11.9L54.55 11.41C54.59 11.42 54.63 11.43 54.66 11.44C54.7 11.45 54.73 11.45 54.77 11.46C54.81 11.47 54.85 11.47 54.88 11.47C54.92 11.48 54.96 11.48 55 11.48C55.92 11.48 56.12 11.06 56.12 9.18L56.12 4.9C56.12 3.42 55.9 3.06 55.02 3.06C54.99 3.06 54.95 3.06 54.92 3.07C54.88 3.07 54.84 3.07 54.81 3.08C54.77 3.09 54.74 3.09 54.7 3.1C54.67 3.11 54.64 3.12 54.6 3.13L54.6 2.64L57.96 2.64ZM96.82 11.44L96.82 11.92L90.72 11.92L90.72 11.44C90.78 11.45 90.84 11.46 90.9 11.46C90.96 11.47 91.02 11.48 91.08 11.48C91.14 11.49 91.2 11.49 91.26 11.5C91.32 11.5 91.38 11.5 91.45 11.5C92.55 11.5 92.77 11.13 92.77 9.2L92.77 5.36C92.77 3.44 92.57 3.09 91.42 3.09C91.37 3.08 91.32 3.08 91.27 3.08C91.22 3.09 91.17 3.09 91.12 3.09C91.07 3.1 91.02 3.11 90.97 3.12C90.92 3.13 90.87 3.14 90.82 3.15L90.82 2.67L96.75 2.67L96.75 3.15C96.69 3.14 96.63 3.13 96.58 3.12C96.52 3.12 96.46 3.11 96.41 3.1C96.35 3.1 96.29 3.09 96.24 3.09C96.18 3.09 96.12 3.09 96.06 3.09C94.91 3.09 94.69 3.44 94.69 5.36L94.69 9.21C94.69 11.11 94.91 11.51 96.04 11.51C96.11 11.51 96.17 11.5 96.24 11.5C96.3 11.5 96.37 11.49 96.43 11.49C96.5 11.48 96.56 11.48 96.62 11.47C96.69 11.46 96.75 11.45 96.82 11.44ZM119.25 2.87L119.72 5.24L119.03 5.37C118.43 3.71 117.49 2.96 115.98 2.96C113.82 2.96 112.38 4.57 112.38 7.03C112.38 9.63 114 11.47 116.25 11.47C116.38 11.47 116.51 11.47 116.63 11.46C116.76 11.45 116.89 11.43 117.01 11.41C117.14 11.39 117.26 11.36 117.39 11.32C117.51 11.29 117.63 11.25 117.75 11.2L117.75 8.66C117.75 7.93 117.51 7.67 116.87 7.67C116.84 7.67 116.81 7.67 116.78 7.67C116.75 7.67 116.73 7.67 116.7 7.67C116.67 7.67 116.64 7.67 116.62 7.68C116.59 7.68 116.56 7.68 116.53 7.69L116.43 7.69L116.43 7.14L121.07 7.14L121.07 7.69L120.91 7.69L120.71 7.67L120.65 7.67C119.81 7.67 119.63 7.91 119.63 9.06C119.63 9.72 119.65 10.69 119.67 11.49C119.12 11.6 118.52 11.71 118.06 11.82C117.83 11.88 117.61 11.93 117.38 11.98C117.15 12.03 116.92 12.07 116.69 12.1C116.46 12.13 116.23 12.15 116 12.17C115.76 12.19 115.53 12.19 115.3 12.2C114.65 12.24 114 12.15 113.39 11.93C112.78 11.7 112.22 11.35 111.75 10.9C111.29 10.45 110.92 9.9 110.68 9.3C110.44 8.7 110.32 8.05 110.35 7.4C110.35 4.38 112.38 2.5 115.63 2.5C115.78 2.5 115.93 2.51 116.08 2.51C116.23 2.52 116.38 2.53 116.53 2.54C116.68 2.55 116.83 2.57 116.97 2.59C117.12 2.61 117.27 2.63 117.42 2.66L118.22 2.79L118.95 2.88L119.25 2.87ZM129.84 2.64L130.19 4.65L129.64 4.76C129.39 3.57 128.82 3.24 126.96 3.24C126.84 3.24 126.71 3.24 126.58 3.25C126.46 3.25 126.33 3.26 126.21 3.28C126.08 3.29 125.96 3.3 125.83 3.32C125.71 3.34 125.59 3.37 125.46 3.39L125.46 6.64L127.1 6.64C128 6.64 128.27 6.44 128.27 5.74C128.27 5.71 128.27 5.68 128.27 5.65C128.27 5.62 128.27 5.59 128.26 5.56C128.26 5.53 128.26 5.5 128.26 5.47C128.25 5.44 128.25 5.41 128.25 5.38L128.8 5.38L128.8 8.54L128.25 8.54C128.27 8.26 128.27 8.21 128.27 8.1C128.27 7.48 127.96 7.28 127.1 7.28L125.46 7.28L125.46 11.11L127.47 11.11C129.02 11.11 129.53 10.8 130.1 9.45C130.13 9.4 130.17 9.32 130.21 9.21L130.81 9.41L129.93 11.91L121.49 11.91L121.49 11.42C121.55 11.43 121.61 11.44 121.67 11.45C121.74 11.46 121.8 11.46 121.86 11.47C121.92 11.47 121.99 11.48 122.05 11.48C122.11 11.48 122.18 11.49 122.24 11.49C123.32 11.49 123.56 11.07 123.56 9.19L123.56 5.34C123.56 3.41 123.34 3.06 122.22 3.06C122.17 3.06 122.12 3.06 122.07 3.07C122.02 3.07 121.97 3.07 121.93 3.08C121.88 3.08 121.83 3.09 121.78 3.1C121.74 3.11 121.69 3.12 121.64 3.13L121.64 2.64L129.84 2.64ZM30.98 16.57L34.3 16.57L34.3 16.88L34.21 16.86L33.94 16.82L33.9 16.82C33.46 16.82 33.22 17.13 33.22 17.68L33.22 20.2C33.22 21.57 33.75 22.19 34.96 22.19C35.19 22.2 35.41 22.17 35.62 22.09C35.83 22.01 36.03 21.89 36.19 21.74C36.35 21.58 36.48 21.39 36.57 21.18C36.65 20.98 36.69 20.75 36.69 20.53L36.69 18.05C36.69 17.15 36.51 16.86 35.96 16.86L35.91 16.86L35.78 16.88L35.6 16.9L35.54 16.93L35.54 16.57L38.37 16.57L38.37 16.88L38.3 16.86L37.99 16.82L37.95 16.82C37.37 16.82 37.19 17.1 37.19 18.01L37.19 20.17C37.19 21.92 36.39 22.71 34.59 22.71C32.97 22.71 32 21.91 32 20.59L32 18.01L31.98 17.66C31.96 17.08 31.74 16.79 31.32 16.79C31.29 16.81 31.26 16.82 31.23 16.82C31.21 16.83 31.18 16.84 31.15 16.85C31.12 16.86 31.1 16.86 31.07 16.87C31.04 16.87 31.01 16.88 30.98 16.88L30.98 16.57ZM41.14 16.57L41.29 16.77L41.87 17.54L42.57 18.43L43.24 19.27C43.48 19.55 43.68 19.82 43.84 20C44.15 20.37 44.32 20.6 44.39 20.66C44.44 20.7 44.48 20.79 44.57 20.88L44.57 18.05C44.57 17.19 44.37 16.86 43.79 16.86C43.78 16.86 43.77 16.86 43.75 16.86C43.74 16.86 43.73 16.86 43.72 16.86C43.7 16.87 43.69 16.87 43.68 16.87C43.66 16.87 43.65 16.88 43.64 16.88L43.51 16.9L43.44 16.92L43.44 16.57L46.14 16.57L46.14 16.88C46.11 16.87 46.08 16.87 46.05 16.86C46.02 16.86 45.99 16.85 45.96 16.85C45.93 16.85 45.9 16.84 45.88 16.84C45.85 16.84 45.82 16.84 45.79 16.84C45.21 16.84 45.01 17.17 45.01 18.03L45.01 22.47C44.9 22.53 44.9 22.53 44.75 22.62C44.61 22.69 44.59 22.71 44.46 22.78C44.45 22.76 44.43 22.75 44.42 22.73C44.41 22.71 44.39 22.7 44.38 22.68C44.37 22.66 44.35 22.65 44.34 22.63C44.33 22.61 44.32 22.6 44.31 22.58C44.22 22.47 44 22.18 43.62 21.69C43.4 21.41 43.18 21.14 43 20.89C42.76 20.59 42.6 20.41 42.54 20.29C42.52 20.28 42.51 20.26 42.5 20.24C42.48 20.22 42.47 20.21 42.46 20.19C42.44 20.17 42.43 20.15 42.42 20.13C42.41 20.11 42.39 20.09 42.38 20.07L40.53 17.75L40.53 21.42C40.55 21.97 40.79 22.24 41.28 22.24C41.3 22.24 41.33 22.24 41.36 22.24C41.38 22.24 41.41 22.24 41.44 22.23C41.46 22.23 41.49 22.23 41.51 22.22C41.54 22.21 41.56 22.2 41.59 22.19L41.59 22.54L38.89 22.54L38.89 22.21C38.92 22.21 38.95 22.22 38.99 22.22C39.02 22.23 39.05 22.23 39.09 22.24C39.12 22.24 39.15 22.24 39.19 22.25C39.22 22.25 39.25 22.25 39.29 22.25C39.84 22.25 40.04 21.96 40.04 21.06L40.04 18.06C40.04 17.17 39.84 16.86 39.24 16.86L39.22 16.86L39.04 16.89L38.88 16.91L38.82 16.93L38.82 16.58L41.14 16.57ZM50.78 22.28C50.78 22.28 50.78 22.28 50.78 22.28L50.78 22.28L50.78 22.28ZM50.78 22.61L46.81 22.61L46.81 22.28C46.85 22.29 46.89 22.29 46.93 22.3C46.97 22.31 47.01 22.31 47.05 22.31C47.09 22.32 47.13 22.32 47.17 22.32C47.21 22.32 47.25 22.32 47.29 22.32C47.4 22.34 47.52 22.33 47.62 22.3C47.73 22.26 47.83 22.2 47.91 22.12C47.99 22.04 48.05 21.95 48.08 21.84C48.12 21.73 48.13 21.62 48.11 21.51L48.11 17.71C48.12 17.6 48.11 17.48 48.08 17.37C48.04 17.27 47.98 17.17 47.91 17.09C47.83 17.01 47.73 16.95 47.62 16.91C47.52 16.87 47.4 16.86 47.29 16.87C47.27 16.87 47.26 16.87 47.24 16.87C47.22 16.87 47.21 16.87 47.19 16.87C47.17 16.88 47.16 16.88 47.14 16.88C47.12 16.88 47.11 16.89 47.09 16.89L46.96 16.91L46.89 16.93L46.89 16.63L50.74 16.63L50.74 16.94L50.65 16.91L50.47 16.89C50.45 16.89 50.43 16.89 50.41 16.88C50.39 16.88 50.37 16.88 50.35 16.88C50.33 16.88 50.31 16.87 50.29 16.87C50.27 16.87 50.25 16.87 50.23 16.87C49.59 16.87 49.39 17.16 49.39 18.06L49.39 21.14C49.39 22.06 49.59 22.33 50.23 22.33C50.28 22.33 50.32 22.33 50.37 22.33C50.42 22.32 50.46 22.32 50.51 22.32C50.55 22.31 50.6 22.31 50.65 22.3C50.69 22.3 50.74 22.29 50.78 22.28L50.78 22.61ZM57.87 16.57L57.87 16.88L57.75 16.86C57.74 16.85 57.73 16.85 57.71 16.85C57.7 16.84 57.68 16.84 57.67 16.84C57.65 16.84 57.64 16.84 57.62 16.84C57.61 16.84 57.59 16.84 57.58 16.84C57.49 16.83 57.4 16.84 57.31 16.86C57.22 16.89 57.14 16.93 57.07 16.98C56.99 17.03 56.93 17.1 56.88 17.17C56.82 17.24 56.78 17.32 56.76 17.41L56.58 17.83L56.36 18.4L56.16 18.91L56.07 19.15L54.73 22.76L54.33 22.76C54.19 22.4 54.15 22.31 53.95 21.81C53.71 21.17 53.62 20.9 53.31 20.15L52.89 19.09C52.73 18.71 52.62 18.4 52.51 18.14C52.36 17.76 52.25 17.54 52.25 17.5C52.05 16.99 51.83 16.81 51.41 16.81C51.37 16.81 51.34 16.82 51.3 16.82C51.27 16.82 51.23 16.82 51.2 16.83C51.16 16.83 51.13 16.83 51.09 16.84C51.06 16.84 51.02 16.85 50.99 16.86L50.99 16.57L54.33 16.57L54.33 16.88L54.22 16.86L54.08 16.84L53.99 16.81L53.95 16.81C53.69 16.81 53.49 16.95 53.49 17.14C53.49 17.17 53.49 17.19 53.49 17.21C53.49 17.24 53.5 17.26 53.5 17.28C53.51 17.3 53.51 17.33 53.52 17.35C53.53 17.37 53.54 17.39 53.55 17.41C53.56 17.43 53.56 17.44 53.57 17.46C53.57 17.47 53.58 17.49 53.58 17.5C53.59 17.51 53.59 17.53 53.6 17.54C53.6 17.56 53.61 17.57 53.62 17.59C53.62 17.6 53.63 17.61 53.63 17.62C53.64 17.63 53.64 17.64 53.65 17.65C53.65 17.66 53.65 17.67 53.66 17.69C53.66 17.7 53.66 17.71 53.66 17.72L54.86 20.84L56.12 17.5L56.21 17.28L56.23 17.19L56.23 17.1C56.23 16.86 56.08 16.77 55.75 16.77C55.73 16.77 55.72 16.77 55.71 16.77C55.69 16.77 55.68 16.77 55.67 16.77C55.65 16.78 55.64 16.78 55.63 16.78C55.62 16.79 55.6 16.79 55.59 16.79L55.48 16.88L55.41 16.88L55.41 16.57L57.87 16.57ZM63.49 16.57L63.71 17.87L63.36 17.94C63.23 17.16 62.83 16.94 61.59 16.94C61.53 16.94 61.46 16.95 61.4 16.95C61.33 16.95 61.27 16.96 61.2 16.96C61.14 16.97 61.07 16.98 61.01 16.98C60.94 16.99 60.88 17 60.82 17.01L60.64 17.03L60.64 19.13L61.86 19.13C62.28 19.13 62.48 18.95 62.48 18.56C62.48 18.54 62.47 18.52 62.47 18.5C62.47 18.48 62.47 18.46 62.47 18.43C62.47 18.41 62.47 18.39 62.46 18.37C62.46 18.35 62.46 18.33 62.45 18.31L62.81 18.31L62.81 20.37L62.45 20.37C62.46 20.34 62.46 20.32 62.46 20.3C62.46 20.27 62.47 20.25 62.47 20.22C62.47 20.2 62.47 20.18 62.47 20.15C62.47 20.13 62.47 20.11 62.48 20.08C62.48 19.75 62.25 19.55 61.88 19.55L60.64 19.55L60.64 22.02L61.94 22.02C62.14 22.06 62.34 22.06 62.54 22.02C62.73 21.97 62.92 21.89 63.08 21.78C63.25 21.66 63.39 21.52 63.5 21.35C63.6 21.18 63.67 20.99 63.71 20.79L64.08 20.92L63.53 22.56L58.05 22.56L58.05 22.22C58.09 22.23 58.13 22.24 58.17 22.24C58.22 22.25 58.26 22.25 58.3 22.26C58.34 22.26 58.38 22.26 58.42 22.27C58.46 22.27 58.5 22.27 58.54 22.27C59.18 22.27 59.38 21.98 59.38 21.08L59.38 18.05C59.38 17.17 59.16 16.86 58.56 16.86C58.54 16.86 58.52 16.86 58.51 16.86C58.49 16.86 58.47 16.86 58.45 16.86C58.43 16.87 58.41 16.87 58.4 16.87C58.38 16.87 58.36 16.88 58.34 16.88L58.21 16.9L58.14 16.92L58.14 16.57L63.49 16.57ZM76.79 16.69L76.79 18.24L76.44 18.24C76.3 17.26 75.86 16.84 75.02 16.84C74.38 16.84 73.92 17.22 73.92 17.71C73.92 18.11 74.16 18.37 74.82 18.68L75.49 18.99C76.68 19.56 77.1 20.03 77.1 20.84C77.1 21.94 76.08 22.72 74.6 22.72C74.48 22.72 74.37 22.71 74.25 22.7C74.14 22.7 74.02 22.68 73.91 22.67C73.79 22.65 73.68 22.63 73.57 22.6C73.45 22.58 73.34 22.55 73.23 22.52C73.2 22.51 73.16 22.51 73.13 22.5C73.1 22.49 73.06 22.49 73.03 22.48C73 22.48 72.96 22.47 72.93 22.47C72.9 22.46 72.86 22.46 72.83 22.46L72.87 20.69L73.25 20.69C73.24 20.89 73.27 21.09 73.34 21.28C73.41 21.47 73.51 21.65 73.65 21.8C73.79 21.95 73.95 22.07 74.14 22.15C74.32 22.23 74.52 22.28 74.73 22.28C74.87 22.29 75.02 22.27 75.16 22.22C75.29 22.17 75.42 22.09 75.53 22C75.63 21.9 75.72 21.78 75.78 21.64C75.84 21.51 75.87 21.37 75.88 21.22C75.88 20.69 75.65 20.47 74.39 19.83C73.16 19.19 72.83 18.84 72.83 18.11C72.83 17.11 73.71 16.45 75.01 16.45C75.12 16.45 75.22 16.46 75.32 16.47C75.42 16.47 75.53 16.49 75.63 16.5C75.73 16.52 75.83 16.53 75.93 16.55C76.03 16.57 76.13 16.6 76.23 16.63C76.27 16.64 76.31 16.65 76.34 16.66C76.38 16.66 76.42 16.67 76.46 16.68C76.5 16.68 76.54 16.69 76.58 16.69C76.62 16.69 76.65 16.69 76.69 16.69L76.79 16.69ZM82.3 22.28C82.3 22.28 82.29 22.28 82.29 22.28L82.29 22.28L82.3 22.28ZM82.29 22.61L78.34 22.61L78.34 22.28C78.38 22.29 78.43 22.29 78.47 22.3C78.51 22.31 78.55 22.31 78.6 22.31C78.64 22.32 78.68 22.32 78.72 22.32C78.77 22.32 78.81 22.32 78.85 22.32C79.49 22.32 79.69 22.06 79.69 21.13L79.69 18.06C79.69 17.15 79.49 16.87 78.85 16.87C78.83 16.87 78.82 16.87 78.8 16.87C78.78 16.87 78.77 16.87 78.75 16.87C78.73 16.88 78.72 16.88 78.7 16.88C78.68 16.88 78.67 16.89 78.65 16.89L78.52 16.91L78.41 16.89L78.41 16.58L82.25 16.58L82.25 16.89L82.16 16.87L81.99 16.85C81.97 16.84 81.95 16.84 81.93 16.84C81.91 16.83 81.89 16.83 81.87 16.83C81.85 16.83 81.83 16.83 81.81 16.83C81.79 16.83 81.77 16.82 81.75 16.82C81.63 16.81 81.52 16.82 81.41 16.86C81.31 16.9 81.21 16.96 81.13 17.04C81.05 17.12 80.99 17.22 80.96 17.33C80.92 17.44 80.91 17.55 80.93 17.66L80.93 21.44C80.91 21.55 80.93 21.66 80.97 21.77C81 21.88 81.07 21.97 81.15 22.05C81.23 22.13 81.33 22.19 81.43 22.22C81.54 22.26 81.66 22.27 81.77 22.25C81.81 22.27 81.85 22.28 81.9 22.29C81.94 22.29 81.99 22.3 82.03 22.3C82.08 22.3 82.12 22.3 82.17 22.3C82.21 22.3 82.25 22.29 82.29 22.28L82.29 22.61ZM88.14 16.59L88.13 16.59L88.13 16.57L88.14 16.59ZM88.28 18.21L87.9 18.21L87.88 18.05C87.77 17.23 87.64 17.06 87.13 17.03L86.18 17.03L86.18 21.12C86.18 22.03 86.36 22.34 86.91 22.34C86.94 22.34 86.97 22.34 86.99 22.33C87.02 22.33 87.05 22.33 87.08 22.32C87.1 22.32 87.13 22.32 87.16 22.31C87.19 22.31 87.21 22.3 87.24 22.29L87.24 22.62L83.83 22.62L83.83 22.29C83.86 22.3 83.88 22.31 83.91 22.31C83.94 22.32 83.97 22.32 84 22.32C84.03 22.33 84.06 22.33 84.09 22.33C84.12 22.33 84.15 22.34 84.18 22.34C84.62 22.34 84.89 22.03 84.89 21.47L84.89 17.04L83.98 17.04C83.41 17.04 83.23 17.28 83.16 18.23L82.79 18.23L82.94 16.59L88.13 16.59L88.28 18.21ZM95.66 16.57L95.66 16.88C95.63 16.87 95.61 16.86 95.58 16.86C95.55 16.85 95.52 16.85 95.5 16.84C95.47 16.84 95.44 16.84 95.41 16.84C95.38 16.83 95.35 16.84 95.33 16.84C95.26 16.83 95.19 16.84 95.12 16.86C95.05 16.87 94.98 16.89 94.92 16.92C94.85 16.95 94.8 16.99 94.74 17.04C94.69 17.08 94.64 17.13 94.6 17.19L94.24 17.72L94.13 17.9L92.83 19.88L92.83 21.48C92.85 22.03 93.1 22.34 93.54 22.34C93.57 22.34 93.6 22.34 93.63 22.33C93.67 22.33 93.7 22.33 93.73 22.32C93.76 22.32 93.79 22.32 93.82 22.31C93.85 22.31 93.88 22.3 93.91 22.29L93.91 22.63L90.5 22.63L90.5 22.29C90.53 22.3 90.56 22.31 90.59 22.31C90.62 22.32 90.65 22.32 90.68 22.33C90.71 22.33 90.75 22.33 90.78 22.33C90.81 22.34 90.84 22.34 90.87 22.34C91.31 22.34 91.58 22.03 91.6 21.48L91.6 19.93L90.58 18.45L90.12 17.79L89.83 17.39C89.79 17.3 89.74 17.23 89.68 17.16C89.61 17.09 89.54 17.03 89.46 16.98C89.38 16.94 89.29 16.9 89.2 16.88C89.11 16.86 89.02 16.85 88.93 16.86C88.9 16.86 88.88 16.86 88.85 16.86C88.82 16.86 88.8 16.86 88.77 16.86C88.75 16.86 88.72 16.87 88.69 16.87C88.67 16.87 88.64 16.87 88.62 16.88L88.51 16.9L88.51 16.57L91.83 16.57L91.83 16.88L91.74 16.88L91.63 16.86C91.62 16.86 91.6 16.85 91.59 16.85C91.58 16.85 91.57 16.85 91.56 16.85C91.55 16.85 91.54 16.84 91.53 16.84C91.52 16.84 91.5 16.84 91.49 16.83C91.29 16.83 91.14 16.94 91.14 17.12C91.14 17.21 91.16 17.25 91.25 17.39L92.6 19.38L93.68 17.7L93.75 17.56L93.86 17.41C93.87 17.39 93.89 17.36 93.9 17.34C93.91 17.31 93.92 17.29 93.93 17.26C93.94 17.24 93.95 17.21 93.95 17.18C93.96 17.16 93.96 17.13 93.97 17.1C93.97 16.95 93.81 16.84 93.57 16.84C93.56 16.84 93.54 16.84 93.53 16.84C93.52 16.84 93.51 16.84 93.5 16.84C93.49 16.84 93.48 16.85 93.47 16.85C93.46 16.85 93.44 16.85 93.43 16.86L93.33 16.88L93.26 16.9L93.26 16.57L95.66 16.57ZM117.91 16.57L118.13 17.87L117.78 17.94C117.67 17.19 117.25 16.94 116.01 16.94C115.95 16.94 115.88 16.95 115.82 16.95C115.75 16.95 115.69 16.96 115.62 16.96C115.56 16.97 115.5 16.97 115.43 16.98C115.37 16.99 115.3 17 115.24 17.01L115.06 17.03L115.06 19.13L116.28 19.13C116.7 19.13 116.9 18.95 116.9 18.6L116.9 18.31L117.25 18.31L117.25 20.37L116.9 20.37L116.9 20.26L116.92 20.1L116.92 20.06C116.92 19.75 116.7 19.55 116.32 19.55L115.08 19.55L115.08 22.02L116.38 22.02C117.4 22.02 117.71 21.82 118.08 20.94C118.09 20.93 118.09 20.92 118.1 20.91C118.11 20.89 118.11 20.88 118.12 20.87C118.12 20.85 118.13 20.84 118.13 20.83C118.14 20.81 118.14 20.8 118.15 20.79L118.52 20.92L117.97 22.56L112.51 22.56L112.51 22.22C112.55 22.23 112.59 22.24 112.63 22.24C112.67 22.25 112.71 22.25 112.75 22.26C112.79 22.26 112.83 22.26 112.87 22.27C112.91 22.27 112.95 22.27 112.99 22.27C113.1 22.28 113.21 22.27 113.32 22.23C113.43 22.2 113.52 22.14 113.6 22.06C113.68 21.98 113.74 21.89 113.77 21.78C113.81 21.67 113.82 21.56 113.81 21.45L113.81 17.7C113.82 17.59 113.81 17.47 113.77 17.37C113.74 17.26 113.68 17.17 113.6 17.09C113.52 17.01 113.43 16.94 113.32 16.9C113.22 16.87 113.1 16.85 112.99 16.86C112.97 16.86 112.95 16.86 112.94 16.86C112.92 16.86 112.9 16.86 112.88 16.87C112.86 16.87 112.84 16.87 112.83 16.87C112.81 16.87 112.79 16.88 112.77 16.88L112.62 16.9L112.55 16.92L112.55 16.57L117.91 16.57ZM123.78 16.69L123.78 18.24L123.45 18.24C123.31 17.29 122.87 16.84 122.03 16.84C121.39 16.84 120.93 17.22 120.93 17.71C120.93 18.11 121.17 18.39 121.81 18.68L122.47 18.99C123.69 19.56 124.09 20.03 124.09 20.84C124.09 21.97 123.07 22.72 121.59 22.72C121.47 22.72 121.36 22.71 121.24 22.7C121.13 22.69 121.01 22.68 120.9 22.66C120.78 22.64 120.67 22.62 120.56 22.6C120.44 22.58 120.33 22.55 120.22 22.52C120.19 22.51 120.15 22.51 120.12 22.5C120.09 22.49 120.05 22.49 120.02 22.48C119.99 22.48 119.95 22.47 119.92 22.47C119.89 22.46 119.85 22.46 119.82 22.46L119.88 20.69L120.26 20.69C120.35 21.7 120.9 22.28 121.74 22.28C121.89 22.29 122.03 22.27 122.17 22.22C122.31 22.17 122.44 22.09 122.55 21.99C122.65 21.89 122.74 21.78 122.81 21.64C122.87 21.51 122.9 21.37 122.91 21.22C122.91 20.69 122.65 20.45 121.43 19.83C120.19 19.19 119.86 18.83 119.86 18.11C119.86 17.09 120.72 16.43 122.05 16.43C122.15 16.43 122.26 16.43 122.36 16.44C122.46 16.44 122.56 16.46 122.66 16.47C122.77 16.49 122.87 16.5 122.97 16.53C123.07 16.55 123.17 16.57 123.27 16.6C123.3 16.61 123.34 16.63 123.38 16.63C123.42 16.64 123.46 16.65 123.5 16.66C123.53 16.66 123.57 16.66 123.61 16.67C123.65 16.67 123.69 16.67 123.73 16.67L123.78 16.69ZM129.5 16.69L129.5 18.24L129.15 18.24C129.01 17.26 128.57 16.84 127.73 16.84C127.6 16.83 127.47 16.84 127.35 16.87C127.22 16.91 127.11 16.97 127 17.05C126.9 17.13 126.81 17.23 126.75 17.34C126.69 17.45 126.64 17.58 126.63 17.71C126.63 18.11 126.87 18.37 127.53 18.68L128.17 18.99C129.41 19.59 129.81 20.03 129.81 20.84C129.81 21.97 128.79 22.72 127.31 22.72C127.19 22.72 127.08 22.71 126.96 22.7C126.84 22.69 126.72 22.68 126.61 22.66C126.49 22.65 126.38 22.63 126.26 22.6C126.15 22.58 126.03 22.55 125.92 22.52C125.89 22.51 125.85 22.51 125.82 22.5C125.79 22.49 125.75 22.49 125.72 22.48C125.69 22.48 125.65 22.47 125.62 22.47C125.59 22.46 125.55 22.46 125.52 22.46L125.56 20.69L125.94 20.69C125.93 20.89 125.96 21.09 126.03 21.29C126.09 21.48 126.2 21.65 126.34 21.8C126.48 21.95 126.65 22.07 126.83 22.15C127.02 22.23 127.22 22.28 127.42 22.28C127.56 22.29 127.71 22.27 127.85 22.22C127.99 22.17 128.11 22.09 128.22 22C128.33 21.9 128.41 21.78 128.47 21.64C128.53 21.51 128.57 21.37 128.57 21.22C128.57 20.69 128.35 20.49 127.09 19.85C125.85 19.21 125.52 18.86 125.52 18.13C125.52 17.11 126.38 16.45 127.71 16.45C127.81 16.45 127.91 16.46 128.01 16.46C128.12 16.47 128.22 16.48 128.32 16.5C128.42 16.51 128.52 16.53 128.62 16.55C128.72 16.57 128.82 16.6 128.92 16.63C128.96 16.64 129 16.65 129.04 16.66C129.07 16.67 129.11 16.67 129.15 16.68C129.19 16.68 129.23 16.69 129.27 16.69C129.31 16.69 129.35 16.69 129.39 16.69L129.5 16.69ZM48.88 2.09L50.56 6.31L50.65 6.55C52.35 10.88 52.75 11.5 53.72 11.5C53.76 11.5 53.79 11.5 53.83 11.49C53.86 11.49 53.9 11.49 53.94 11.48C53.97 11.48 54.01 11.47 54.04 11.46C54.07 11.45 54.11 11.44 54.14 11.43L54.14 11.92L49.02 11.92L49.02 11.44C49.06 11.45 49.1 11.46 49.14 11.47C49.18 11.48 49.22 11.49 49.27 11.49C49.31 11.5 49.35 11.5 49.4 11.5C49.44 11.51 49.48 11.51 49.52 11.5C50.05 11.5 50.3 11.3 50.3 10.93C50.29 10.89 50.29 10.85 50.28 10.81C50.28 10.77 50.27 10.73 50.26 10.69C50.25 10.65 50.24 10.62 50.23 10.58C50.22 10.54 50.2 10.5 50.19 10.46L49.63 8.99L46.47 8.99L46.03 10.11L45.94 10.33L45.86 10.6C45.85 10.63 45.84 10.65 45.84 10.68C45.83 10.71 45.83 10.73 45.83 10.76C45.82 10.79 45.82 10.82 45.82 10.85C45.81 10.87 45.81 10.9 45.81 10.93C45.81 11.3 46.14 11.53 46.67 11.53C46.72 11.53 46.77 11.52 46.81 11.52C46.86 11.52 46.91 11.51 46.95 11.51C47 11.5 47.04 11.5 47.09 11.49C47.14 11.48 47.18 11.47 47.23 11.46L47.23 11.94L43.16 11.94L43.16 11.44C43.19 11.45 43.23 11.46 43.27 11.46C43.3 11.47 43.34 11.48 43.38 11.48C43.41 11.49 43.45 11.49 43.49 11.5C43.53 11.5 43.56 11.5 43.6 11.5C44.35 11.5 44.7 11.1 45.32 9.63L45.57 9.05L45.7 8.72L48.46 2.09L48.88 2.09ZM47.98 5.03L46.74 8.3L49.26 8.34C49.28 8.32 47.98 5.03 47.98 5.03L47.98 5.03ZM69.17 2.67L72.49 2.67C72.77 2.67 73.29 2.64 74.1 2.62C74.5 2.6 74.81 2.6 75.01 2.6C76.71 2.6 77.71 3.33 77.71 4.57C77.71 5.76 76.91 6.53 75.34 6.89C77.2 7.02 78.08 7.75 78.08 9.19C78.08 11 76.67 11.99 74.04 11.99C73.84 11.99 73.55 11.99 73.15 11.97L72.25 11.95L69.01 11.95L69.01 11.46C69.08 11.47 69.14 11.48 69.2 11.49C69.26 11.5 69.32 11.51 69.38 11.51C69.44 11.52 69.5 11.52 69.56 11.52C69.62 11.53 69.68 11.53 69.74 11.53C70.85 11.53 71.07 11.15 71.07 9.23L71.07 5.38C71.07 3.44 70.87 3.11 69.72 3.11C69.68 3.1 69.63 3.1 69.58 3.1C69.54 3.09 69.49 3.09 69.44 3.1C69.4 3.1 69.35 3.11 69.31 3.12C69.26 3.13 69.21 3.14 69.17 3.15L69.17 2.67ZM72.93 6.66C72.99 6.68 73.05 6.69 73.11 6.7C73.17 6.71 73.23 6.72 73.29 6.73C73.35 6.73 73.41 6.74 73.47 6.74C73.53 6.75 73.59 6.75 73.65 6.75C73.94 6.77 74.22 6.72 74.48 6.63C74.75 6.53 74.99 6.38 75.19 6.18C75.4 5.99 75.56 5.76 75.67 5.5C75.79 5.24 75.84 4.96 75.84 4.68C75.83 4.45 75.78 4.22 75.68 4.02C75.58 3.81 75.44 3.62 75.26 3.47C75.09 3.32 74.89 3.21 74.67 3.14C74.45 3.07 74.22 3.04 73.99 3.06C73.9 3.07 73.81 3.07 73.72 3.08C73.63 3.09 73.54 3.11 73.45 3.13C73.36 3.14 73.27 3.17 73.18 3.19C73.1 3.22 73.01 3.25 72.93 3.28L72.93 6.66ZM72.93 11.22C73.02 11.24 73.11 11.26 73.2 11.27C73.29 11.29 73.38 11.3 73.47 11.31C73.57 11.32 73.66 11.33 73.75 11.34C73.85 11.34 73.94 11.35 74.03 11.35C74.32 11.35 74.6 11.29 74.86 11.18C75.12 11.06 75.36 10.9 75.55 10.69C75.74 10.48 75.89 10.23 75.99 9.96C76.08 9.69 76.11 9.4 76.09 9.12C76.09 7.92 75.23 7.24 73.7 7.24C73.64 7.24 73.57 7.24 73.51 7.25C73.44 7.25 73.38 7.26 73.31 7.26C73.25 7.27 73.18 7.28 73.12 7.29C73.05 7.3 72.99 7.31 72.93 7.32L72.93 11.22ZM79.61 3.15C79.61 3.15 79.61 3.15 79.61 3.15L79.61 3.15L79.61 3.15ZM79.61 2.67L82.66 2.67L83.34 2.64L84.05 2.62C84.65 2.6 84.87 2.6 85.02 2.6C87.12 2.6 88.16 3.33 88.16 4.83C88.16 6.2 87.34 7.02 85.75 7.19C85.97 7.3 86.18 7.43 86.37 7.58C86.57 7.72 86.75 7.89 86.92 8.07C87.08 8.25 87.23 8.44 87.36 8.65C87.49 8.85 87.61 9.07 87.7 9.29C88.6 10.97 89.11 11.48 89.84 11.48C89.88 11.48 89.91 11.48 89.95 11.48C89.98 11.48 90.02 11.47 90.05 11.47C90.09 11.47 90.12 11.46 90.16 11.46C90.19 11.45 90.23 11.44 90.26 11.44L90.26 11.92L88.96 11.92L88.52 11.95L88.12 11.95C87.21 11.95 86.82 11.66 86.22 10.53L85.84 9.82C84.87 7.97 84.43 7.59 83.34 7.59L83.34 9.2C83.34 11.13 83.56 11.5 84.67 11.5C84.72 11.5 84.78 11.5 84.83 11.5C84.88 11.5 84.94 11.49 84.99 11.49C85.04 11.48 85.1 11.47 85.15 11.47C85.2 11.46 85.26 11.45 85.31 11.44L85.31 11.92L79.48 11.92L79.48 11.44C79.54 11.45 79.6 11.46 79.66 11.46C79.72 11.47 79.78 11.48 79.84 11.48C79.9 11.49 79.96 11.49 80.02 11.5C80.08 11.5 80.14 11.5 80.21 11.5C81.22 11.5 81.53 11.06 81.53 9.67L81.53 4.94C81.53 3.52 81.22 3.1 80.21 3.1C80.16 3.1 80.11 3.1 80.05 3.1C80 3.1 79.95 3.1 79.9 3.1C79.85 3.11 79.8 3.11 79.75 3.12C79.7 3.13 79.66 3.14 79.61 3.15L79.61 2.67ZM83.34 7.06C83.63 7.08 83.74 7.08 83.96 7.08C84.26 7.13 84.56 7.1 84.85 7.01C85.13 6.92 85.4 6.77 85.61 6.56C85.83 6.35 86 6.1 86.1 5.82C86.21 5.54 86.25 5.24 86.22 4.94C86.24 4.69 86.21 4.43 86.12 4.2C86.04 3.96 85.91 3.75 85.73 3.56C85.56 3.38 85.35 3.24 85.12 3.14C84.88 3.05 84.63 3.01 84.38 3.01C84.3 3.02 84.21 3.02 84.12 3.03C84.04 3.04 83.95 3.05 83.87 3.06C83.78 3.08 83.7 3.1 83.61 3.12C83.53 3.14 83.45 3.16 83.37 3.19L83.37 7.06L83.34 7.06ZM97.88 3.15L97.88 2.67L101.1 2.67L101.77 2.64L102.57 2.62C103.12 2.6 103.49 2.6 103.69 2.6C106.94 2.6 108.64 4.04 108.64 6.75C108.64 9.93 106.39 11.97 102.92 11.97L101.88 11.94L97.79 11.94L97.79 11.46C97.85 11.47 97.91 11.48 97.97 11.49C98.04 11.49 98.1 11.5 98.16 11.51C98.22 11.51 98.29 11.52 98.35 11.52C98.41 11.52 98.48 11.52 98.54 11.52C99.64 11.52 99.89 11.12 99.89 9.22L99.89 5.38C99.89 3.46 99.67 3.11 98.52 3.11C98.46 3.1 98.41 3.1 98.36 3.09C98.3 3.09 98.25 3.09 98.19 3.1C98.14 3.1 98.09 3.11 98.03 3.12C97.98 3.13 97.93 3.14 97.88 3.15ZM101.79 11.15C101.9 11.2 102.02 11.23 102.14 11.27C102.26 11.3 102.38 11.33 102.51 11.35C102.63 11.37 102.75 11.39 102.87 11.4C103 11.41 103.12 11.42 103.25 11.42C105.28 11.42 106.56 9.67 106.56 6.93C106.56 4.52 105.33 3.13 103.2 3.13C103.08 3.13 102.96 3.14 102.84 3.15C102.72 3.16 102.59 3.17 102.47 3.19C102.35 3.21 102.23 3.24 102.12 3.27C102 3.3 101.88 3.34 101.77 3.38C101.79 3.38 101.79 11.15 101.79 11.15L101.79 11.15ZM64.94 16.88L64.94 16.57L67.37 16.57L67.83 16.55C68.07 16.55 68.32 16.53 68.45 16.53C69.84 16.53 70.51 16.99 70.51 17.99C70.51 18.87 69.98 19.4 68.94 19.53C69.08 19.61 69.21 19.69 69.34 19.79C69.46 19.89 69.58 19.99 69.69 20.11C69.79 20.23 69.89 20.35 69.98 20.48C70.06 20.62 70.14 20.76 70.2 20.9C70.86 22.12 71.08 22.32 71.68 22.32C71.69 22.32 71.71 22.32 71.72 22.32C71.74 22.32 71.75 22.32 71.77 22.31C71.78 22.31 71.8 22.31 71.81 22.31C71.83 22.3 71.84 22.3 71.86 22.3L71.86 22.63L70.53 22.63C69.86 22.63 69.62 22.45 69.23 21.72C69.2 21.68 69.18 21.65 69.16 21.61C69.14 21.57 69.12 21.53 69.1 21.49C69.08 21.45 69.06 21.41 69.04 21.38C69.02 21.34 69 21.3 68.98 21.26C68.36 20.09 68.08 19.82 67.35 19.8L67.35 21.15C67.35 22.05 67.55 22.34 68.19 22.34C68.22 22.34 68.26 22.34 68.29 22.34C68.33 22.34 68.36 22.33 68.4 22.33C68.43 22.33 68.47 22.32 68.5 22.32C68.54 22.31 68.57 22.3 68.61 22.3L68.61 22.63L64.83 22.63L64.83 22.3C64.87 22.3 64.91 22.31 64.95 22.31C64.99 22.32 65.03 22.32 65.07 22.33C65.11 22.33 65.15 22.34 65.19 22.34C65.23 22.34 65.27 22.34 65.31 22.34C65.95 22.34 66.15 22.05 66.15 21.15L66.15 18.05C66.15 17.17 65.93 16.86 65.33 16.86C65.32 16.86 65.3 16.86 65.28 16.86C65.27 16.86 65.25 16.86 65.23 16.87C65.22 16.87 65.2 16.87 65.18 16.87C65.17 16.88 65.15 16.88 65.13 16.88L64.98 16.9L64.94 16.88ZM67.35 19.45C67.38 19.45 67.42 19.45 67.46 19.46C67.49 19.46 67.53 19.46 67.57 19.46C67.6 19.47 67.64 19.47 67.68 19.47C67.71 19.47 67.75 19.47 67.79 19.47C67.98 19.49 68.17 19.47 68.35 19.41C68.53 19.35 68.69 19.26 68.83 19.12C68.96 18.99 69.07 18.83 69.13 18.65C69.2 18.48 69.22 18.29 69.2 18.1C69.22 17.93 69.2 17.77 69.15 17.61C69.1 17.46 69.01 17.31 68.9 17.19C68.78 17.07 68.64 16.98 68.49 16.92C68.34 16.86 68.17 16.83 68.01 16.84C67.95 16.84 67.9 16.84 67.84 16.85C67.79 16.85 67.73 16.86 67.67 16.87C67.62 16.88 67.56 16.89 67.51 16.9C67.45 16.92 67.4 16.93 67.35 16.95L67.35 19.45ZM101.23 21.48C101.25 22.05 101.52 22.34 102.05 22.34C102.09 22.34 102.12 22.34 102.16 22.34C102.19 22.34 102.23 22.34 102.26 22.33C102.3 22.33 102.33 22.32 102.37 22.32C102.4 22.31 102.44 22.31 102.47 22.3L102.47 22.63L98.85 22.63L98.85 22.3C98.88 22.3 98.92 22.31 98.95 22.32C98.98 22.32 99.02 22.33 99.05 22.33C99.09 22.33 99.13 22.34 99.16 22.34C99.2 22.34 99.23 22.34 99.27 22.34C99.88 22.34 100.08 22.03 100.08 21.13L100.08 18.05C100.08 17.17 99.86 16.84 99.27 16.84C99.25 16.84 99.23 16.84 99.21 16.84C99.19 16.84 99.17 16.84 99.15 16.84C99.14 16.85 99.12 16.85 99.1 16.85C99.08 16.85 99.06 16.86 99.04 16.86L98.89 16.88L98.8 16.91L98.8 16.6L101.17 16.6L101.67 16.57C101.94 16.57 102.16 16.55 102.27 16.55C103.73 16.55 104.38 17.02 104.38 18.08C104.38 19.18 103.45 19.93 102.1 19.93L102.01 19.93L101.66 19.91C101.62 19.9 101.59 19.9 101.55 19.89C101.52 19.88 101.48 19.88 101.45 19.87C101.41 19.87 101.37 19.86 101.34 19.86C101.3 19.85 101.27 19.85 101.23 19.84L101.23 21.48ZM101.23 19.43C101.28 19.43 101.32 19.44 101.36 19.45C101.41 19.45 101.45 19.46 101.5 19.46C101.54 19.47 101.59 19.47 101.63 19.47C101.67 19.47 101.72 19.47 101.76 19.47C101.95 19.49 102.13 19.46 102.3 19.4C102.47 19.33 102.63 19.23 102.76 19.1C102.89 18.97 102.99 18.81 103.05 18.64C103.11 18.47 103.13 18.28 103.11 18.1C103.13 17.94 103.11 17.77 103.06 17.61C103 17.46 102.92 17.31 102.8 17.19C102.69 17.07 102.55 16.98 102.4 16.92C102.25 16.86 102.08 16.83 101.92 16.84C101.86 16.84 101.8 16.84 101.75 16.85C101.69 16.85 101.64 16.86 101.58 16.87C101.52 16.88 101.47 16.9 101.42 16.91C101.36 16.93 101.31 16.95 101.25 16.97L101.25 19.42L101.23 19.43ZM105.25 16.88L105.25 16.57L107.68 16.57L108.15 16.55C108.39 16.55 108.63 16.53 108.77 16.53C110.16 16.53 110.82 17 110.82 17.99C110.82 18.87 110.29 19.4 109.25 19.51C109.4 19.58 109.53 19.67 109.66 19.76C109.78 19.86 109.9 19.97 110.01 20.08C110.12 20.2 110.21 20.33 110.3 20.46C110.38 20.59 110.46 20.74 110.51 20.88C111.18 22.1 111.4 22.3 112 22.3C112.01 22.3 112.03 22.3 112.04 22.3C112.06 22.3 112.07 22.29 112.09 22.29C112.1 22.29 112.11 22.29 112.13 22.29C112.14 22.28 112.16 22.28 112.17 22.27L112.17 22.61L110.85 22.61C110.18 22.61 109.94 22.43 109.55 21.7C109.52 21.66 109.5 21.62 109.48 21.59C109.46 21.55 109.44 21.51 109.42 21.47C109.4 21.43 109.38 21.39 109.36 21.35C109.34 21.32 109.32 21.28 109.3 21.24C108.68 20.06 108.4 19.8 107.67 19.78L107.67 21.13C107.67 22.03 107.87 22.32 108.51 22.32C108.54 22.32 108.58 22.32 108.62 22.31C108.66 22.31 108.69 22.31 108.73 22.31C108.77 22.3 108.8 22.3 108.84 22.29C108.88 22.29 108.91 22.28 108.95 22.27L108.95 22.61L105.17 22.61L105.17 22.27C105.21 22.28 105.25 22.29 105.3 22.29C105.34 22.3 105.38 22.3 105.42 22.31C105.46 22.31 105.51 22.31 105.55 22.32C105.59 22.32 105.63 22.32 105.68 22.32C106.32 22.32 106.52 22.03 106.52 21.13L106.52 18.05C106.52 17.17 106.3 16.86 105.7 16.86C105.68 16.86 105.67 16.86 105.65 16.86C105.63 16.86 105.62 16.86 105.6 16.87C105.58 16.87 105.57 16.87 105.55 16.87C105.53 16.88 105.52 16.88 105.5 16.88L105.34 16.9L105.25 16.88ZM107.68 19.45C107.72 19.45 107.75 19.45 107.79 19.46C107.82 19.46 107.86 19.46 107.89 19.47C107.93 19.47 107.96 19.47 108 19.47C108.03 19.47 108.07 19.47 108.11 19.47C108.29 19.5 108.49 19.48 108.67 19.42C108.85 19.36 109.02 19.26 109.15 19.13C109.29 19 109.4 18.84 109.47 18.66C109.53 18.48 109.56 18.29 109.54 18.1C109.56 17.94 109.54 17.77 109.49 17.61C109.43 17.46 109.35 17.31 109.23 17.2C109.12 17.08 108.98 16.98 108.83 16.92C108.68 16.86 108.51 16.83 108.35 16.84C108.29 16.84 108.24 16.84 108.18 16.85C108.12 16.85 108.07 16.86 108.01 16.87C107.96 16.88 107.9 16.89 107.85 16.9C107.79 16.92 107.74 16.93 107.68 16.95L107.68 19.45Z" />
		<path id="Layer" fill-rule="evenodd" class="shp0" d="M0 0.22C7.93 0.35 15.87 0.35 23.81 0.22C23.81 0.26 23.83 0.33 23.83 0.37C23.78 2.23 23.74 4.08 23.72 5.94C23.69 9.05 23.72 12.15 23.72 15.26C23.73 15.62 23.72 15.98 23.7 16.35C23.69 16.71 23.65 17.07 23.61 17.43C23.56 17.78 23.5 18.14 23.43 18.49C23.35 18.85 23.27 19.2 23.16 19.55C23.03 19.93 22.88 20.29 22.69 20.65C22.5 21 22.29 21.34 22.05 21.66C21.81 21.98 21.54 22.28 21.26 22.56C20.97 22.84 20.66 23.09 20.33 23.32C19.96 23.59 19.57 23.85 19.18 24.1C18.79 24.35 18.39 24.59 17.99 24.82C17.59 25.05 17.18 25.27 16.77 25.48C16.36 25.69 15.94 25.89 15.52 26.09C14.39 26.64 13.26 27.21 12.13 27.76C12.05 27.81 11.89 27.85 11.82 27.81C9.75 26.77 7.67 25.73 5.61 24.67C5.29 24.51 4.98 24.34 4.68 24.15C4.37 23.96 4.08 23.76 3.79 23.55C3.5 23.34 3.23 23.11 2.96 22.88C2.69 22.64 2.43 22.39 2.19 22.13C1.91 21.84 1.66 21.52 1.44 21.18C1.22 20.85 1.02 20.49 0.86 20.12C0.7 19.75 0.57 19.37 0.48 18.97C0.38 18.58 0.32 18.18 0.29 17.78C0.18 16.74 0.13 15.7 0.11 14.66C0.09 10.42 0.09 6.18 0.09 1.96C0.09 1.39 0.02 0.79 0 0.22ZM9.39 0.59L9.39 9.76L0.42 9.76L0.42 14.71L9.42 14.71L9.42 26C9.41 26.04 9.42 26.09 9.43 26.13C9.44 26.17 9.45 26.22 9.48 26.25C9.5 26.29 9.53 26.33 9.57 26.35C9.6 26.38 9.64 26.4 9.69 26.42C10.37 26.75 11.06 27.1 11.72 27.45C11.75 27.48 11.79 27.49 11.82 27.5C11.86 27.52 11.9 27.52 11.94 27.52C11.98 27.52 12.02 27.52 12.06 27.5C12.09 27.49 12.13 27.48 12.16 27.45C12.82 27.1 13.49 26.77 14.17 26.44C14.22 26.42 14.26 26.4 14.3 26.37C14.34 26.34 14.37 26.31 14.39 26.27C14.42 26.23 14.44 26.19 14.45 26.14C14.46 26.09 14.46 26.04 14.46 26L14.46 14.69L23.46 14.69L23.46 9.74L14.43 9.74L14.43 0.57C12.73 0.59 11.07 0.59 9.39 0.59ZM7.89 2.03C7.49 1.83 7.12 1.65 6.75 1.48C6.83 1.49 6.92 1.5 7 1.52C7.09 1.53 7.17 1.55 7.26 1.57C7.34 1.59 7.43 1.61 7.51 1.64C7.59 1.66 7.68 1.69 7.76 1.72C7.96 1.78 8.13 1.78 8.2 1.58C8.24 1.45 8.13 1.27 8.11 1.12C8.09 1.12 8.07 1.14 8.05 1.14C8 1.56 8 1.56 7.58 1.43C7.48 1.4 7.38 1.37 7.27 1.35C7.17 1.32 7.06 1.3 6.96 1.27C6.85 1.25 6.75 1.23 6.64 1.21C6.53 1.2 6.43 1.18 6.32 1.17C6.23 1.16 6.15 1.16 6.06 1.18C5.97 1.2 5.89 1.23 5.81 1.27C5.74 1.32 5.67 1.37 5.61 1.44C5.55 1.5 5.5 1.57 5.46 1.65C5.41 1.73 5.38 1.81 5.35 1.9C5.33 1.99 5.32 2.07 5.32 2.16C5.32 2.25 5.34 2.34 5.37 2.43C5.39 2.51 5.43 2.59 5.48 2.67C5.54 2.75 5.61 2.83 5.68 2.91C5.76 2.98 5.84 3.05 5.92 3.11C6.01 3.17 6.1 3.22 6.19 3.26C6.29 3.31 6.38 3.35 6.48 3.38C6.9 3.55 7.34 3.69 7.76 3.88C7.94 3.95 8.12 4.08 8.05 4.3C7.99 4.5 7.79 4.55 7.59 4.52C7.19 4.46 6.77 4.37 6.37 4.32C6.21 4.29 6.05 4.28 5.88 4.28C5.72 4.28 5.55 4.3 5.39 4.34C5.23 4.38 5.08 4.43 4.93 4.5C4.78 4.58 4.64 4.66 4.51 4.77C4.45 4.83 4.31 4.83 4.23 4.88C4.19 4.89 4.16 4.91 4.12 4.93C4.08 4.94 4.05 4.96 4.01 4.98C3.98 5 3.94 5.02 3.91 5.04C3.87 5.06 3.84 5.08 3.81 5.1C3.79 5.11 3.77 5.13 3.76 5.15C3.74 5.17 3.73 5.18 3.71 5.2C3.7 5.22 3.68 5.24 3.67 5.26C3.65 5.28 3.64 5.3 3.63 5.32C3.45 5.05 3.28 4.83 3.1 4.57C3.11 4.54 3.13 4.51 3.14 4.48C3.16 4.45 3.17 4.42 3.19 4.39C3.21 4.36 3.22 4.33 3.24 4.3C3.26 4.27 3.28 4.25 3.29 4.22C3.38 4.46 3.45 4.68 3.51 4.9L3.63 4.9C3.69 4.7 3.78 4.5 3.85 4.3L4.11 4.63C4.12 4.63 4.13 4.62 4.14 4.62C4.15 4.61 4.16 4.61 4.17 4.6C4.18 4.6 4.19 4.59 4.2 4.59C4.2 4.58 4.21 4.57 4.22 4.57C4.24 4.41 4.27 4.24 4.29 4.1C4.42 4.15 4.53 4.21 4.71 4.28C4.57 3.95 4.53 3.66 4.13 3.79C4.16 3.73 4.18 3.67 4.2 3.6C4.22 3.54 4.24 3.47 4.25 3.41C4.27 3.34 4.29 3.28 4.31 3.21C4.32 3.15 4.34 3.08 4.35 3.02C4.4 2.75 4.42 2.49 4.44 2.22L4.53 2.22C4.55 2.33 4.55 2.44 4.57 2.59C4.86 2.39 4.91 2.19 4.75 1.95C4.62 1.75 4.49 1.58 4.33 1.35C4.22 1.44 4.09 1.55 3.91 1.7C3.95 1.4 3.95 1.15 3.65 1.04C3.53 1.24 3.43 1.42 3.34 1.57C3.23 1.51 3.12 1.42 2.96 1.31C2.92 1.53 2.89 1.71 2.87 1.79C2.72 1.86 2.52 1.86 2.47 1.95C2.38 2.19 2.52 2.41 2.74 2.61L2.74 2.19C2.74 2.19 2.75 2.19 2.75 2.19C2.76 2.19 2.77 2.19 2.77 2.19C2.78 2.19 2.78 2.18 2.79 2.18C2.79 2.18 2.8 2.18 2.8 2.17C2.95 2.7 3.09 3.21 3.24 3.74C2.98 3.63 2.93 3.78 2.93 4.05C2.93 4.18 2.93 4.31 2.93 4.45C2.94 4.58 2.95 4.71 2.97 4.84C3 4.97 3.02 5.1 3.06 5.23C3.09 5.36 3.13 5.48 3.18 5.61C3.2 5.67 3.22 5.73 3.23 5.79C3.24 5.86 3.24 5.92 3.24 5.98C3.24 6.05 3.23 6.11 3.22 6.17C3.2 6.24 3.18 6.3 3.16 6.36C3.09 6.51 3 6.66 2.9 6.8C2.8 6.95 2.69 7.08 2.57 7.2C2.44 7.32 2.31 7.43 2.17 7.53C2.03 7.63 1.88 7.72 1.72 7.79C1.64 7.82 1.57 7.86 1.51 7.91C1.44 7.97 1.39 8.03 1.35 8.11C1.31 8.18 1.29 8.26 1.29 8.35C1.28 8.43 1.3 8.52 1.32 8.59C1.68 8.31 1.99 8.06 2.3 7.82C2.23 8.06 2.14 8.31 2.5 8.51C2.63 8.09 2.74 7.69 2.85 7.31C2.98 7.53 3.07 7.53 3.2 7.27C3.22 7.22 3.24 7.17 3.25 7.12C3.27 7.07 3.28 7.02 3.29 6.97C3.31 6.92 3.32 6.87 3.33 6.82C3.34 6.77 3.35 6.72 3.36 6.67C3.43 6.78 3.47 6.87 3.51 6.96C3.52 6.96 3.53 6.95 3.54 6.96C3.55 6.96 3.56 6.96 3.57 6.96C3.58 6.96 3.59 6.96 3.6 6.97C3.61 6.97 3.62 6.97 3.63 6.98C3.71 6.74 3.78 6.49 3.87 6.23C3.94 6.29 3.96 6.34 4 6.38C4.13 6.27 4.29 6.18 4.09 5.96C4.08 5.94 4.07 5.91 4.07 5.89C4.06 5.86 4.05 5.84 4.05 5.81C4.05 5.78 4.05 5.76 4.05 5.73C4.06 5.7 4.06 5.68 4.07 5.65C4.09 5.61 4.1 5.57 4.12 5.53C4.14 5.49 4.16 5.46 4.18 5.42C4.2 5.38 4.22 5.34 4.24 5.3C4.27 5.26 4.29 5.22 4.31 5.19C4.31 5.16 4.35 5.16 4.4 5.14C4.42 5.23 4.42 5.3 4.44 5.39C4.57 5.34 4.69 5.3 4.8 5.25C4.84 5.24 4.89 5.23 4.94 5.22C4.99 5.21 5.03 5.2 5.08 5.19C5.13 5.18 5.18 5.17 5.23 5.16C5.27 5.16 5.32 5.15 5.37 5.14C5.39 5.14 5.41 5.13 5.44 5.13C5.46 5.13 5.48 5.12 5.5 5.12C5.52 5.12 5.55 5.12 5.57 5.12C5.59 5.12 5.61 5.12 5.64 5.12C5.61 5.03 5.61 4.94 5.59 4.85C5.59 4.84 5.59 4.83 5.58 4.82C5.58 4.81 5.57 4.8 5.57 4.79C5.56 4.78 5.56 4.77 5.55 4.76C5.54 4.76 5.53 4.75 5.53 4.74C5.55 4.72 5.57 4.72 5.57 4.7C5.59 4.71 5.6 4.73 5.62 4.74C5.63 4.75 5.65 4.77 5.66 4.78C5.68 4.8 5.69 4.81 5.71 4.83C5.72 4.84 5.73 4.86 5.75 4.88C6.21 5.6 6.63 6.38 7.58 6.62C7.63 6.64 7.67 6.66 7.71 6.7C7.74 6.73 7.77 6.77 7.79 6.82C7.81 6.87 7.81 6.92 7.81 6.97C7.8 7.02 7.79 7.06 7.76 7.11C7.65 7.35 7.49 7.55 7.36 7.79C7.33 7.85 7.31 7.9 7.28 7.96C7.25 8.02 7.23 8.07 7.21 8.13C7.18 8.19 7.16 8.24 7.14 8.3C7.11 8.36 7.09 8.42 7.07 8.48C7.67 8.59 7.58 8.17 7.67 7.83C7.83 8.06 7.96 8.24 8.07 8.39C8.08 8.38 8.09 8.38 8.1 8.37C8.11 8.37 8.12 8.36 8.13 8.36C8.14 8.36 8.14 8.35 8.15 8.35C8.16 8.35 8.17 8.35 8.18 8.34C8.12 8.01 8.05 7.68 7.98 7.33C8.05 7.35 8.09 7.35 8.16 7.37C8.36 7.04 8.09 6.84 7.92 6.55C8.05 6.55 8.14 6.58 8.23 6.58L8.29 6.52C8.2 6.38 8.09 6.14 8 6.14C7.49 6.16 7.27 5.85 7.16 5.43C7.14 5.32 7.11 5.22 7.06 5.12C7.01 5.02 6.95 4.93 6.87 4.85C6.8 4.77 6.71 4.69 6.62 4.64C6.53 4.58 6.43 4.53 6.32 4.5C6.45 4.5 6.5 4.48 6.54 4.5C6.89 4.57 7.23 4.66 7.58 4.72C8.02 4.79 8.33 4.52 8.29 4.12C8.28 4.04 8.26 3.96 8.23 3.88C8.2 3.8 8.16 3.72 8.11 3.65C8.06 3.59 8.01 3.52 7.94 3.47C7.88 3.41 7.81 3.36 7.73 3.32C7.69 3.39 7.67 3.46 7.62 3.52C7.38 3.26 7.29 2.82 6.81 2.92C6.85 3.03 6.87 3.14 6.94 3.32C6.56 3.04 6.38 2.57 5.92 2.51C5.94 2.62 5.97 2.71 5.99 2.79C5.95 2.77 5.92 2.75 5.89 2.73C5.86 2.71 5.83 2.69 5.8 2.66C5.77 2.63 5.75 2.61 5.72 2.58C5.7 2.55 5.68 2.52 5.65 2.48C5.61 2.43 5.58 2.37 5.56 2.3C5.54 2.23 5.54 2.16 5.54 2.1C5.54 2.03 5.55 1.96 5.58 1.89C5.6 1.83 5.64 1.77 5.68 1.72C5.74 1.68 5.8 1.65 5.87 1.62C5.93 1.6 6 1.58 6.07 1.57C6.14 1.57 6.21 1.57 6.28 1.58C6.35 1.58 6.42 1.6 6.48 1.63C6.54 1.65 6.59 1.68 6.65 1.7C6.7 1.73 6.76 1.76 6.81 1.79C6.86 1.82 6.92 1.85 6.97 1.88C7.02 1.91 7.07 1.95 7.12 1.98C7.18 2.03 7.24 2.06 7.3 2.08C7.36 2.11 7.43 2.12 7.5 2.13C7.57 2.13 7.64 2.13 7.7 2.11C7.77 2.09 7.83 2.06 7.89 2.03L7.89 2.03ZM22.77 1.14C22.72 1.14 22.7 1.17 22.66 1.17C22.63 1.59 22.61 1.59 22.21 1.48C22.11 1.45 22.01 1.42 21.9 1.39C21.8 1.37 21.69 1.34 21.59 1.32C21.48 1.3 21.38 1.28 21.27 1.26C21.17 1.24 21.06 1.23 20.95 1.21C20.86 1.2 20.78 1.21 20.69 1.23C20.6 1.24 20.52 1.28 20.44 1.32C20.36 1.36 20.29 1.42 20.23 1.48C20.16 1.54 20.11 1.62 20.07 1.7C20.02 1.77 19.99 1.86 19.96 1.95C19.94 2.03 19.93 2.12 19.93 2.21C19.94 2.3 19.95 2.39 19.99 2.48C20.02 2.56 20.06 2.64 20.11 2.72C20.19 2.81 20.27 2.89 20.35 2.97C20.44 3.04 20.53 3.11 20.63 3.17C20.73 3.23 20.83 3.29 20.94 3.33C21.04 3.38 21.15 3.42 21.26 3.45C21.64 3.6 22.01 3.73 22.39 3.89C22.44 3.9 22.48 3.92 22.52 3.95C22.56 3.97 22.59 4.01 22.62 4.05C22.64 4.09 22.66 4.14 22.67 4.19C22.67 4.23 22.67 4.28 22.65 4.33C22.59 4.55 22.39 4.57 22.19 4.53C21.79 4.46 21.37 4.38 20.98 4.33C20.81 4.3 20.65 4.28 20.48 4.28C20.32 4.29 20.15 4.31 19.99 4.35C19.83 4.39 19.68 4.45 19.53 4.52C19.38 4.6 19.24 4.69 19.12 4.79C19.05 4.84 18.96 4.9 18.88 4.88C18.82 4.87 18.77 4.87 18.72 4.88C18.67 4.89 18.62 4.91 18.57 4.94C18.52 4.96 18.48 4.99 18.45 5.03C18.41 5.07 18.39 5.12 18.37 5.17C18.35 5.24 18.26 5.28 18.21 5.32C18.03 5.06 17.88 4.84 17.7 4.59C17.75 4.51 17.84 4.37 17.9 4.24C17.99 4.49 18.06 4.71 18.13 4.9L18.24 4.9C18.3 4.7 18.39 4.5 18.46 4.3C18.48 4.33 18.51 4.35 18.53 4.38C18.56 4.4 18.58 4.43 18.6 4.46C18.63 4.48 18.65 4.51 18.68 4.53C18.7 4.56 18.72 4.59 18.74 4.61C18.77 4.61 18.81 4.59 18.83 4.59C18.85 4.44 18.88 4.26 18.9 4.11C19.03 4.15 19.14 4.22 19.25 4.26C19.27 4.24 19.27 4.22 19.3 4.17C19.19 3.97 19.16 3.64 18.79 3.77C18.9 3.24 19.01 2.71 19.1 2.2L19.14 2.2C19.16 2.31 19.19 2.43 19.21 2.56C19.47 2.36 19.56 2.03 19.36 1.94C19.1 1.83 19.07 1.59 19.01 1.32C18.83 1.45 18.7 1.56 18.61 1.63C18.52 1.43 18.43 1.23 18.37 1.03C18.36 1.03 18.35 1.03 18.34 1.03C18.33 1.03 18.32 1.03 18.31 1.03C18.3 1.03 18.29 1.04 18.28 1.04C18.27 1.04 18.26 1.05 18.25 1.05C18.14 1.23 18.03 1.4 17.94 1.58C17.83 1.51 17.72 1.43 17.57 1.34C17.52 1.56 17.5 1.74 17.48 1.82C17.33 1.89 17.11 1.91 17.08 1.98C16.99 2.22 17.13 2.42 17.37 2.64L17.37 2.2L17.43 2.2C17.59 2.74 17.74 3.24 17.88 3.77C17.63 3.66 17.57 3.79 17.57 4.04C17.56 4.16 17.55 4.28 17.55 4.4C17.56 4.52 17.57 4.64 17.58 4.76C17.6 4.88 17.62 4.99 17.65 5.11C17.69 5.23 17.72 5.34 17.77 5.45C17.81 5.55 17.85 5.64 17.86 5.75C17.88 5.85 17.89 5.95 17.87 6.06C17.86 6.16 17.84 6.26 17.8 6.36C17.75 6.45 17.7 6.54 17.63 6.62C17.55 6.75 17.46 6.87 17.36 6.98C17.26 7.09 17.15 7.2 17.04 7.3C16.93 7.4 16.81 7.49 16.68 7.57C16.56 7.65 16.43 7.73 16.29 7.79C16.22 7.82 16.16 7.86 16.1 7.9C16.04 7.95 16 8.01 15.96 8.07C15.93 8.14 15.91 8.21 15.9 8.28C15.89 8.36 15.9 8.43 15.91 8.5C15.96 8.49 16 8.47 16.04 8.45C16.08 8.43 16.12 8.41 16.16 8.39C16.2 8.37 16.24 8.35 16.28 8.33C16.32 8.31 16.36 8.28 16.4 8.26C16.44 8.22 16.48 8.18 16.52 8.14C16.56 8.1 16.6 8.05 16.64 8.01C16.68 7.97 16.72 7.93 16.75 7.88C16.79 7.84 16.83 7.79 16.86 7.75C16.86 8.01 16.78 8.26 17.13 8.46C17.26 8.04 17.37 7.64 17.48 7.24C17.5 7.29 17.55 7.35 17.59 7.44C17.97 7.29 17.93 6.96 17.95 6.58C17.96 6.61 17.98 6.64 17.99 6.67C18.01 6.7 18.02 6.73 18.04 6.76C18.06 6.79 18.07 6.82 18.09 6.85C18.11 6.88 18.13 6.91 18.15 6.93C18.16 6.93 18.17 6.93 18.18 6.93C18.19 6.93 18.2 6.93 18.21 6.94C18.21 6.94 18.22 6.94 18.23 6.94C18.24 6.95 18.25 6.95 18.26 6.95C18.35 6.71 18.41 6.47 18.5 6.2C18.57 6.27 18.59 6.31 18.63 6.36C18.79 6.23 18.92 6.14 18.72 5.94C18.71 5.92 18.7 5.89 18.7 5.87C18.69 5.85 18.69 5.82 18.69 5.8C18.69 5.77 18.69 5.75 18.7 5.72C18.7 5.7 18.71 5.67 18.72 5.65C18.74 5.61 18.76 5.57 18.78 5.53C18.8 5.49 18.82 5.46 18.84 5.42C18.86 5.38 18.88 5.34 18.9 5.3C18.92 5.26 18.94 5.23 18.97 5.19C18.99 5.17 19.01 5.17 19.05 5.14C19.08 5.23 19.08 5.3 19.1 5.39C19.12 5.38 19.15 5.36 19.18 5.35C19.21 5.34 19.23 5.33 19.26 5.32C19.29 5.32 19.32 5.31 19.35 5.3C19.37 5.29 19.4 5.28 19.43 5.28C19.47 5.26 19.51 5.25 19.56 5.24C19.6 5.23 19.64 5.21 19.68 5.2C19.72 5.19 19.77 5.18 19.81 5.17C19.85 5.16 19.9 5.15 19.94 5.14C19.97 5.14 20 5.14 20.03 5.14C20.06 5.14 20.09 5.14 20.12 5.14C20.14 5.14 20.17 5.14 20.2 5.14C20.23 5.14 20.26 5.14 20.29 5.14C20.25 5.01 20.23 4.9 20.18 4.77C20.19 4.76 20.19 4.75 20.2 4.75C20.2 4.74 20.21 4.73 20.22 4.73C20.22 4.72 20.23 4.71 20.23 4.7C20.24 4.7 20.24 4.69 20.25 4.68C20.36 4.83 20.47 4.97 20.56 5.1C20.64 5.27 20.74 5.43 20.85 5.59C20.96 5.74 21.09 5.88 21.23 6.01C21.37 6.14 21.52 6.25 21.68 6.35C21.84 6.45 22.01 6.53 22.19 6.6C22.25 6.61 22.3 6.64 22.35 6.68C22.39 6.71 22.43 6.76 22.45 6.82C22.47 6.87 22.48 6.93 22.47 6.99C22.47 7.05 22.45 7.1 22.41 7.15C22.3 7.37 22.17 7.59 22.04 7.81C22 7.86 21.96 7.91 21.93 7.97C21.9 8.02 21.88 8.08 21.86 8.13C21.84 8.19 21.82 8.25 21.82 8.32C21.81 8.38 21.81 8.44 21.82 8.5C22.37 8.63 22.24 8.17 22.35 7.86C22.5 8.08 22.63 8.26 22.75 8.43C22.75 8.43 22.76 8.42 22.77 8.42C22.78 8.41 22.79 8.41 22.8 8.41C22.81 8.4 22.82 8.4 22.83 8.4C22.84 8.39 22.85 8.39 22.86 8.39C22.79 8.06 22.72 7.73 22.66 7.37C22.67 7.37 22.69 7.38 22.7 7.38C22.72 7.38 22.73 7.39 22.75 7.39C22.76 7.39 22.78 7.4 22.79 7.4C22.81 7.41 22.82 7.41 22.83 7.42C23.03 7.09 22.77 6.87 22.57 6.6C22.72 6.62 22.79 6.64 22.92 6.67C22.9 6.49 22.86 6.36 22.83 6.2C22.73 6.23 22.62 6.24 22.51 6.23C22.4 6.21 22.29 6.17 22.2 6.11C22.11 6.05 22.03 5.97 21.97 5.87C21.91 5.78 21.87 5.67 21.86 5.56C21.85 5.45 21.82 5.35 21.78 5.25C21.73 5.15 21.68 5.05 21.61 4.97C21.54 4.88 21.46 4.81 21.37 4.74C21.29 4.68 21.19 4.63 21.09 4.59C21.1 4.58 21.12 4.58 21.13 4.57C21.14 4.57 21.16 4.56 21.17 4.56C21.19 4.56 21.2 4.56 21.22 4.56C21.24 4.56 21.25 4.56 21.26 4.57C21.6 4.63 21.93 4.74 22.28 4.79C22.81 4.88 23.12 4.52 22.94 4.04C22.92 3.98 22.89 3.93 22.86 3.88C22.82 3.82 22.79 3.77 22.76 3.72C22.72 3.67 22.68 3.62 22.65 3.58C22.61 3.53 22.57 3.48 22.52 3.44C22.5 3.41 22.48 3.41 22.44 3.39C22.43 3.41 22.42 3.43 22.41 3.45C22.4 3.47 22.39 3.48 22.38 3.5C22.37 3.52 22.36 3.54 22.35 3.56C22.34 3.58 22.33 3.6 22.33 3.61C22.08 3.33 21.99 2.91 21.51 3C21.55 3.13 21.6 3.22 21.62 3.3C21.24 3.1 21.09 2.64 20.62 2.57C20.63 2.6 20.63 2.62 20.64 2.64C20.64 2.66 20.65 2.68 20.65 2.71C20.65 2.73 20.66 2.75 20.66 2.77C20.66 2.8 20.66 2.82 20.66 2.84C20.63 2.82 20.6 2.81 20.57 2.79C20.54 2.76 20.51 2.74 20.48 2.72C20.45 2.69 20.42 2.67 20.4 2.64C20.37 2.61 20.35 2.58 20.33 2.55C20.29 2.5 20.26 2.44 20.24 2.37C20.22 2.3 20.21 2.24 20.21 2.17C20.21 2.1 20.22 2.03 20.24 1.96C20.26 1.9 20.29 1.84 20.33 1.78C20.38 1.73 20.43 1.69 20.49 1.65C20.55 1.62 20.61 1.59 20.68 1.58C20.75 1.56 20.82 1.56 20.89 1.57C20.95 1.58 21.02 1.6 21.08 1.63C21.14 1.65 21.19 1.67 21.25 1.7C21.3 1.73 21.36 1.76 21.41 1.79C21.47 1.81 21.52 1.85 21.57 1.88C21.62 1.91 21.67 1.94 21.72 1.98C21.78 2.02 21.84 2.05 21.9 2.08C21.97 2.11 22.03 2.12 22.1 2.13C22.17 2.13 22.24 2.13 22.31 2.11C22.37 2.1 22.44 2.08 22.5 2.04C22.1 1.87 21.72 1.67 21.35 1.49C21.44 1.5 21.52 1.52 21.61 1.53C21.69 1.55 21.78 1.57 21.86 1.59C21.95 1.61 22.03 1.63 22.12 1.66C22.2 1.68 22.28 1.71 22.37 1.74C22.54 1.78 22.72 1.84 22.79 1.65C22.86 1.5 22.77 1.32 22.77 1.14ZM4.49 16.39C4.47 16.28 4.44 16.1 4.42 15.9C4.24 16.01 4.11 16.12 3.98 16.21C3.89 16.01 3.8 15.83 3.74 15.66L3.65 15.66C3.58 15.84 3.49 16.03 3.43 16.21C3.29 16.12 3.18 16.06 3.03 15.95C2.98 16.17 2.96 16.32 2.94 16.41C2.78 16.48 2.61 16.5 2.54 16.59C2.45 16.72 2.65 17.05 2.87 17.16L2.87 16.85C3.16 17.32 2.98 17.95 3.58 18.35C3.09 18.29 3.05 18.31 3.07 18.7C3.07 18.8 3.09 18.9 3.11 19C3.14 19.09 3.17 19.18 3.22 19.27C3.27 19.36 3.32 19.44 3.39 19.52C3.45 19.59 3.52 19.66 3.6 19.72C3.64 19.74 3.67 19.77 3.71 19.8C3.74 19.83 3.77 19.86 3.81 19.88C3.84 19.91 3.87 19.94 3.91 19.98C3.94 20.01 3.97 20.04 4 20.07C4.31 20.4 4.26 20.69 3.89 20.91C3.85 20.93 3.81 20.96 3.77 20.98C3.73 21 3.69 21.02 3.65 21.04C3.61 21.05 3.57 21.07 3.53 21.09C3.49 21.1 3.45 21.12 3.4 21.13C3.34 21.14 3.27 21.17 3.21 21.2C3.16 21.24 3.1 21.28 3.06 21.33C3.02 21.38 2.98 21.44 2.96 21.51C2.93 21.57 2.92 21.64 2.92 21.7C3.36 21.97 3.43 21.37 3.74 21.33C3.76 21.57 3.76 21.81 3.78 22.06C3.82 22.06 3.87 22.08 3.93 22.08C4.05 21.75 4.18 21.42 4.29 21.06C4.31 21.08 4.4 21.11 4.51 21.17C4.51 21.13 4.52 21.1 4.52 21.06C4.53 21.02 4.53 20.98 4.54 20.94C4.54 20.9 4.55 20.86 4.55 20.82C4.56 20.79 4.57 20.75 4.57 20.71C4.61 20.7 4.64 20.69 4.67 20.67C4.7 20.66 4.73 20.65 4.76 20.63C4.79 20.62 4.82 20.6 4.85 20.59C4.87 20.57 4.9 20.55 4.93 20.53C5.08 20.38 4.93 20.29 4.84 20.2C4.79 20.15 4.76 20.09 4.73 20.02C4.71 19.95 4.7 19.88 4.71 19.81C4.72 19.74 4.74 19.67 4.77 19.61C4.8 19.55 4.85 19.49 4.91 19.45C4.86 19.83 4.86 19.8 5.22 19.69C5.28 19.68 5.35 19.67 5.41 19.66C5.48 19.65 5.55 19.64 5.61 19.63C5.68 19.62 5.75 19.62 5.81 19.61C5.88 19.61 5.95 19.61 6.02 19.6C6.02 19.58 5.99 19.52 5.97 19.43C6.02 19.41 6.04 19.41 6.08 19.38C6.19 19.65 6.35 19.91 6.44 20.2C6.46 20.32 6.5 20.43 6.55 20.54C6.6 20.64 6.66 20.74 6.74 20.84C6.81 20.93 6.89 21.01 6.98 21.09C7.07 21.16 7.17 21.23 7.28 21.28C7.35 21.31 7.42 21.35 7.48 21.41C7.54 21.46 7.59 21.52 7.63 21.59C7.67 21.66 7.69 21.74 7.7 21.82C7.71 21.9 7.71 21.98 7.7 22.06C7.61 22.54 7.5 23.01 7.39 23.49C7.37 23.57 7.35 23.65 7.35 23.73C7.34 23.81 7.34 23.89 7.35 23.97C7.36 24.05 7.38 24.12 7.4 24.2C7.43 24.28 7.46 24.35 7.5 24.42C7.92 24.15 7.81 23.78 7.76 23.34C7.94 23.47 8.03 23.56 8.14 23.65C8.18 23.63 8.21 23.63 8.25 23.6C8.16 23.32 8.1 23 8.01 22.7C8.05 22.7 8.12 22.72 8.3 22.74C8.18 22.43 8.1 22.19 8.01 21.92C8.03 21.92 8.05 21.92 8.07 21.92C8.09 21.93 8.11 21.93 8.13 21.93C8.15 21.93 8.17 21.93 8.19 21.94C8.21 21.94 8.23 21.94 8.25 21.95L8.25 21.24C8.16 21.25 8.07 21.24 7.98 21.21C7.9 21.18 7.82 21.14 7.75 21.08C7.68 21.03 7.62 20.96 7.58 20.88C7.54 20.8 7.51 20.71 7.5 20.62C7.39 20.13 7.39 19.58 6.84 19.32C6.9 19.33 6.96 19.34 7.01 19.36C7.07 19.37 7.13 19.38 7.19 19.4C7.25 19.41 7.31 19.43 7.37 19.44C7.43 19.46 7.49 19.48 7.54 19.5C7.63 19.53 7.73 19.55 7.83 19.54C7.93 19.54 8.02 19.51 8.11 19.47C8.2 19.43 8.28 19.37 8.34 19.3C8.41 19.23 8.46 19.15 8.49 19.05C8.51 18.95 8.51 18.84 8.49 18.74C8.48 18.64 8.44 18.54 8.39 18.44C8.34 18.35 8.27 18.27 8.19 18.2C8.11 18.13 8.02 18.08 7.92 18.04L7.92 18.3C7.68 18 7.5 17.68 7.08 17.75C7.12 17.88 7.17 17.95 7.19 18.04C7.18 18.05 7.17 18.05 7.16 18.06C7.15 18.07 7.14 18.08 7.14 18.09C7.13 18.09 7.12 18.1 7.11 18.11C7.1 18.11 7.09 18.12 7.08 18.13C6.83 17.91 6.64 17.6 6.22 17.6C6.26 17.71 6.28 17.77 6.33 17.86L6.26 17.93C6.21 17.88 6.15 17.83 6.1 17.78C6.05 17.73 6 17.68 5.95 17.63C5.9 17.58 5.85 17.53 5.8 17.47C5.75 17.42 5.71 17.36 5.66 17.31C5.62 17.26 5.59 17.2 5.57 17.14C5.55 17.07 5.55 17.01 5.55 16.94C5.56 16.88 5.58 16.81 5.61 16.76C5.64 16.7 5.68 16.65 5.73 16.6C5.77 16.56 5.82 16.52 5.87 16.49C5.93 16.47 5.99 16.45 6.05 16.45C6.11 16.44 6.17 16.44 6.23 16.46C6.28 16.48 6.34 16.5 6.39 16.54C6.44 16.57 6.5 16.6 6.55 16.63C6.6 16.66 6.65 16.69 6.71 16.73C6.76 16.76 6.81 16.79 6.86 16.83C6.91 16.86 6.96 16.9 7.01 16.94C7.06 16.98 7.12 17.01 7.18 17.04C7.24 17.06 7.3 17.08 7.37 17.1C7.43 17.11 7.5 17.12 7.56 17.12C7.63 17.11 7.7 17.11 7.76 17.09C7.32 16.8 6.92 16.52 6.5 16.23C6.52 16.21 6.52 16.18 6.55 16.16C6.61 16.2 6.67 16.24 6.73 16.28C6.79 16.31 6.85 16.35 6.92 16.38C6.98 16.42 7.04 16.45 7.1 16.49C7.17 16.52 7.23 16.55 7.3 16.58C7.35 16.61 7.4 16.64 7.46 16.67C7.51 16.69 7.57 16.71 7.63 16.73C7.68 16.75 7.74 16.77 7.8 16.78C7.86 16.79 7.92 16.8 7.98 16.8C8.34 16.83 8.47 16.56 8.29 16.23C8.16 16.63 8.05 16.65 7.67 16.45C7.41 16.32 7.14 16.14 6.85 16.03C6.61 15.92 6.33 15.9 6.08 15.99C5.82 16.08 5.61 16.26 5.48 16.5C5.36 16.73 5.33 17.01 5.4 17.27C5.48 17.53 5.65 17.75 5.88 17.89C6.3 18.06 6.74 18.2 7.16 18.35C7.23 18.37 7.3 18.39 7.37 18.41C7.44 18.43 7.5 18.45 7.57 18.48C7.64 18.5 7.7 18.53 7.77 18.55C7.83 18.58 7.9 18.61 7.96 18.64C7.99 18.66 8.02 18.69 8.04 18.72C8.07 18.76 8.09 18.79 8.1 18.83C8.12 18.86 8.13 18.9 8.13 18.94C8.14 18.98 8.14 19.02 8.14 19.06C8.12 19.17 7.92 19.28 7.79 19.3C7.74 19.3 7.7 19.3 7.65 19.3C7.61 19.3 7.56 19.3 7.52 19.3C7.48 19.29 7.43 19.29 7.39 19.28C7.34 19.27 7.3 19.27 7.26 19.26C7.16 19.23 7.06 19.2 6.95 19.18C6.85 19.15 6.75 19.13 6.65 19.11C6.55 19.08 6.45 19.06 6.35 19.05C6.24 19.03 6.14 19.01 6.04 18.99C5.9 18.95 5.75 18.93 5.6 18.93C5.45 18.93 5.3 18.95 5.16 18.99C5.01 19.03 4.88 19.09 4.75 19.17C4.62 19.25 4.51 19.35 4.4 19.46C4.39 19.47 4.38 19.49 4.36 19.5C4.34 19.51 4.32 19.52 4.31 19.53C4.29 19.54 4.27 19.54 4.24 19.54C4.22 19.55 4.2 19.55 4.18 19.54C3.98 19.41 3.81 19.3 3.58 19.46C3.56 19.48 3.5 19.43 3.47 19.39C3.43 19.34 3.39 19.28 3.36 19.21C3.33 19.15 3.3 19.08 3.29 19.01C3.28 18.94 3.27 18.87 3.28 18.8C3.28 18.73 3.29 18.66 3.32 18.59C3.32 18.6 3.33 18.61 3.33 18.62C3.34 18.62 3.34 18.63 3.34 18.64C3.35 18.65 3.35 18.66 3.35 18.67C3.36 18.68 3.36 18.69 3.36 18.7C3.43 18.83 3.49 18.94 3.56 19.08C3.58 19.05 3.6 19.02 3.62 19C3.65 18.97 3.67 18.94 3.69 18.92C3.71 18.89 3.73 18.87 3.76 18.84C3.78 18.82 3.8 18.79 3.83 18.77C3.83 18.75 3.85 18.77 3.87 18.75C3.88 18.75 3.88 18.76 3.89 18.77C3.9 18.78 3.9 18.79 3.91 18.8C3.91 18.81 3.92 18.82 3.92 18.83C3.93 18.84 3.93 18.85 3.94 18.85C3.96 18.88 3.98 18.91 4 18.94C4.02 18.97 4.04 19 4.06 19.03C4.08 19.06 4.1 19.09 4.12 19.12C4.14 19.15 4.16 19.19 4.18 19.22L4.31 18.82C4.31 18.81 4.31 18.81 4.31 18.81C4.31 18.81 4.32 18.8 4.32 18.8C4.32 18.8 4.32 18.8 4.32 18.8C4.33 18.8 4.33 18.79 4.33 18.79C4.44 18.84 4.58 18.88 4.69 18.93C4.71 18.91 4.71 18.88 4.73 18.86C4.62 18.66 4.51 18.46 4.4 18.29C4.29 18.31 4.2 18.33 4.11 18.35C4.09 18.33 4.09 18.31 4.07 18.29C4.58 17.94 4.29 17.32 4.58 16.85C4.6 16.99 4.6 17.09 4.62 17.18C4.63 17.18 4.64 17.18 4.64 17.18C4.65 17.18 4.66 17.18 4.67 17.19C4.67 17.19 4.68 17.19 4.69 17.19C4.69 17.2 4.7 17.2 4.71 17.2C4.72 17.16 4.74 17.11 4.75 17.06C4.76 17.02 4.77 16.97 4.78 16.92C4.78 16.87 4.79 16.83 4.79 16.78C4.8 16.73 4.8 16.68 4.8 16.63C4.84 16.52 4.64 16.48 4.49 16.39ZM17.33 18.42C17.31 18.55 17.3 18.67 17.29 18.8C17.28 18.93 17.27 19.06 17.26 19.19C17.26 19.32 17.26 19.45 17.26 19.58C17.26 19.7 17.26 19.83 17.26 19.96C17.33 20.6 17.18 21.02 16.64 21.24C16.6 21.26 16.55 21.28 16.5 21.3C16.45 21.32 16.4 21.33 16.35 21.35C16.3 21.36 16.25 21.38 16.2 21.39C16.15 21.4 16.1 21.41 16.05 21.42C15.97 21.44 15.89 21.47 15.83 21.51C15.76 21.56 15.7 21.61 15.65 21.68C15.61 21.74 15.57 21.81 15.55 21.89C15.53 21.97 15.53 22.05 15.54 22.13C15.82 21.97 16.09 21.84 16.34 21.71L16.34 22.26C16.36 22.26 16.38 22.28 16.4 22.28C16.54 22.06 16.65 21.84 16.78 21.6C17 21.71 17.13 21.57 17.22 21.13C17.51 21.24 17.55 21.18 17.57 20.58C17.59 20.6 17.61 20.63 17.63 20.65C17.65 20.67 17.67 20.7 17.69 20.72C17.71 20.74 17.73 20.76 17.75 20.78C17.77 20.8 17.8 20.83 17.82 20.85C17.88 20.69 18.04 20.54 18 20.47C17.77 20.12 18.06 19.92 18.15 19.61C18.19 19.76 18.19 19.85 18.24 19.98C18.3 19.95 18.36 19.91 18.42 19.88C18.49 19.85 18.55 19.82 18.62 19.79C18.68 19.76 18.75 19.73 18.81 19.7C18.88 19.68 18.94 19.65 19.01 19.63C19.08 19.62 19.14 19.61 19.21 19.61C19.28 19.6 19.34 19.6 19.41 19.59C19.48 19.59 19.55 19.59 19.61 19.6C19.68 19.6 19.75 19.6 19.81 19.61C19.81 19.59 19.81 19.57 19.81 19.55C19.8 19.53 19.8 19.52 19.8 19.5C19.79 19.48 19.79 19.46 19.78 19.44C19.78 19.42 19.77 19.41 19.77 19.39C19.79 19.41 19.82 19.44 19.84 19.47C19.87 19.5 19.89 19.53 19.91 19.56C19.93 19.59 19.95 19.62 19.97 19.65C20 19.68 20.01 19.71 20.03 19.74C20.06 19.8 20.1 19.86 20.15 19.91C20.19 19.96 20.24 20.01 20.3 20.05C20.35 20.09 20.41 20.12 20.48 20.15C20.54 20.18 20.61 20.19 20.67 20.2C21.01 20.27 21.07 20.43 20.92 20.74C20.9 20.77 20.87 20.8 20.85 20.84C20.83 20.87 20.8 20.9 20.77 20.93C20.74 20.96 20.71 20.99 20.68 21.02C20.65 21.04 20.62 21.07 20.59 21.09C20.19 21.38 20.14 21.46 20.3 22.06L20.81 21.33C20.83 21.49 20.87 21.62 20.89 21.75C20.9 21.75 20.91 21.75 20.92 21.75C20.92 21.75 20.93 21.75 20.94 21.75C20.95 21.76 20.95 21.76 20.96 21.76C20.97 21.76 20.98 21.77 20.98 21.77C21.07 21.49 21.16 21.17 21.23 20.89C21.23 20.89 21.31 20.91 21.43 20.93C21.4 20.73 21.4 20.58 21.38 20.4C21.65 20.56 21.69 20.38 21.71 20.18C21.03 20.23 20.94 19.52 20.5 19.25C20.52 19.25 20.55 19.26 20.58 19.26C20.61 19.26 20.64 19.26 20.66 19.27C20.69 19.27 20.72 19.28 20.75 19.28C20.77 19.29 20.8 19.29 20.83 19.3C20.89 19.32 20.94 19.34 21 19.36C21.05 19.37 21.11 19.39 21.17 19.41C21.23 19.42 21.28 19.44 21.34 19.46C21.4 19.47 21.46 19.48 21.51 19.5C21.6 19.52 21.69 19.53 21.78 19.53C21.87 19.52 21.96 19.49 22.04 19.45C22.13 19.41 22.2 19.36 22.26 19.29C22.32 19.22 22.37 19.14 22.4 19.06C22.42 18.97 22.43 18.88 22.42 18.79C22.41 18.7 22.38 18.61 22.35 18.53C22.31 18.45 22.26 18.37 22.19 18.31C22.13 18.24 22.06 18.19 21.98 18.15C21.96 18.22 21.96 18.28 21.93 18.35C21.91 18.26 21.87 18.18 21.81 18.1C21.76 18.02 21.7 17.95 21.63 17.89C21.56 17.83 21.48 17.78 21.4 17.75C21.31 17.71 21.23 17.68 21.13 17.66C21.16 17.77 21.2 17.87 21.22 17.97C21.16 17.95 21.13 17.93 21.11 17.93C20.91 17.8 20.82 17.36 20.45 17.66C20.44 17.67 20.44 17.66 20.43 17.66C20.42 17.66 20.42 17.66 20.41 17.66C20.41 17.66 20.4 17.66 20.4 17.65C20.39 17.65 20.39 17.65 20.38 17.64C20.31 17.6 20.24 17.54 20.19 17.48C20.13 17.41 20.09 17.34 20.06 17.26C20.02 17.18 20.01 17.1 20 17.01C20 16.93 20.01 16.84 20.03 16.76C20.06 16.68 20.11 16.62 20.17 16.56C20.23 16.51 20.3 16.47 20.38 16.44C20.45 16.42 20.54 16.41 20.62 16.42C20.7 16.43 20.78 16.45 20.85 16.49C21.07 16.6 21.29 16.76 21.51 16.89C21.56 16.93 21.62 16.97 21.68 16.99C21.74 17.01 21.8 17.03 21.87 17.03C21.93 17.03 22 17.03 22.06 17.01C22.12 17 22.18 16.97 22.24 16.94C21.82 16.72 21.4 16.5 20.96 16.25C21 16.21 21.04 16.21 21.07 16.23C21.44 16.39 21.84 16.52 22.22 16.67C22.25 16.7 22.29 16.72 22.33 16.72C22.38 16.73 22.42 16.73 22.46 16.72C22.5 16.71 22.54 16.69 22.58 16.66C22.61 16.64 22.64 16.6 22.66 16.56C22.67 16.53 22.68 16.49 22.68 16.45C22.69 16.41 22.69 16.37 22.69 16.33C22.7 16.29 22.7 16.25 22.69 16.22C22.69 16.18 22.69 16.14 22.68 16.1L22.61 16.1C22.55 16.43 22.48 16.48 22.13 16.36C21.77 16.25 21.42 16.12 21.07 16.03C20.94 16 20.82 16 20.69 16.01C20.57 16.03 20.45 16.06 20.34 16.12C20.22 16.18 20.12 16.25 20.04 16.34C19.95 16.43 19.88 16.54 19.83 16.65C19.78 16.76 19.75 16.88 19.75 16.99C19.74 17.11 19.76 17.23 19.8 17.34C19.84 17.46 19.89 17.56 19.97 17.65C20.05 17.74 20.14 17.81 20.25 17.87C20.33 17.91 20.42 17.96 20.5 18C20.59 18.04 20.67 18.09 20.76 18.13C20.85 18.17 20.93 18.21 21.02 18.24C21.11 18.28 21.2 18.32 21.29 18.35C21.35 18.38 21.4 18.41 21.46 18.43C21.52 18.46 21.57 18.49 21.63 18.52C21.68 18.56 21.74 18.59 21.79 18.62C21.85 18.66 21.9 18.69 21.95 18.73C21.98 18.75 22 18.77 22.02 18.8C22.04 18.83 22.05 18.86 22.07 18.89C22.08 18.92 22.09 18.95 22.09 18.98C22.09 19.02 22.09 19.05 22.08 19.08C22.06 19.17 21.88 19.26 21.75 19.28C21.72 19.28 21.68 19.28 21.65 19.28C21.62 19.28 21.58 19.28 21.55 19.28C21.52 19.27 21.48 19.27 21.45 19.26C21.42 19.25 21.38 19.25 21.35 19.24C21.09 19.17 20.82 19.11 20.55 19.02C20.38 18.95 20.2 18.91 20.01 18.89C19.83 18.87 19.64 18.88 19.46 18.92C19.28 18.95 19.1 19.01 18.93 19.09C18.77 19.17 18.61 19.27 18.47 19.39C18.43 19.44 18.34 19.46 18.32 19.44C18.05 19.3 17.9 19.44 17.74 19.64C17.67 19.58 17.6 19.51 17.55 19.43C17.5 19.34 17.46 19.25 17.44 19.16C17.42 19.06 17.42 18.97 17.43 18.87C17.45 18.78 17.48 18.68 17.52 18.6C17.57 18.78 17.63 18.98 17.7 19.17L17.81 19.17C17.88 19.02 17.94 18.86 18.03 18.69C18.12 18.86 18.21 19 18.32 19.22C18.38 19 18.45 18.84 18.47 18.73C18.5 18.75 18.53 18.76 18.57 18.78C18.6 18.79 18.63 18.8 18.66 18.82C18.69 18.83 18.72 18.84 18.75 18.85C18.79 18.86 18.82 18.88 18.85 18.89C18.87 18.86 18.87 18.84 18.89 18.8C18.69 18.62 18.81 18.13 18.39 18.25C18.54 17.8 18.72 17.34 18.87 16.85C18.88 16.85 18.88 16.86 18.88 16.86C18.89 16.86 18.89 16.86 18.9 16.86C18.9 16.86 18.9 16.87 18.91 16.87C18.91 16.87 18.91 16.87 18.92 16.88C18.92 16.96 18.94 17.08 18.94 17.16C18.99 17.14 19.03 17.11 19.06 17.08C19.1 17.04 19.13 17 19.15 16.95C19.17 16.91 19.18 16.86 19.18 16.81C19.19 16.75 19.18 16.7 19.16 16.65C19.12 16.54 18.98 16.48 18.87 16.37C18.85 16.26 18.81 16.1 18.76 15.9C18.58 16.01 18.45 16.13 18.34 16.19C18.27 15.97 18.21 15.77 18.14 15.57L18.03 15.57C17.94 15.77 17.88 15.97 17.79 16.17C17.68 16.08 17.59 15.97 17.43 15.86C17.37 16.08 17.32 16.26 17.3 16.37C17.12 16.41 16.9 16.41 16.88 16.5C16.77 16.75 16.92 16.95 17.14 17.1C17.14 16.99 17.17 16.88 17.17 16.79C17.19 16.85 17.21 16.91 17.24 16.97C17.26 17.03 17.28 17.08 17.29 17.14C17.31 17.2 17.33 17.26 17.35 17.32C17.36 17.38 17.38 17.44 17.39 17.5C17.4 17.56 17.42 17.62 17.44 17.68C17.45 17.74 17.47 17.8 17.49 17.86C17.51 17.92 17.53 17.98 17.55 18.04C17.57 18.1 17.59 18.16 17.62 18.22C17.53 18.28 17.35 18.35 17.33 18.42ZM17.88 23.08C17.99 23.14 18.06 23.19 18.17 23.25C18.28 23.03 18.37 22.85 18.46 22.65L18.63 22.92C18.72 22.7 18.81 22.52 18.88 22.34C19.03 22.68 19.12 22.43 19.21 22.3C19.21 22.28 19.21 22.26 19.21 22.24C19.21 22.22 19.21 22.2 19.21 22.18C19.21 22.15 19.2 22.13 19.19 22.11C19.18 22.09 19.18 22.08 19.16 22.06C19.13 21.99 19.1 21.91 19.08 21.84C19.06 21.76 19.05 21.68 19.05 21.6C19.05 21.52 19.06 21.44 19.09 21.37C19.11 21.29 19.14 21.22 19.19 21.15C19.3 20.95 19.45 20.78 19.56 20.58C19.58 20.54 19.6 20.5 19.62 20.47C19.63 20.43 19.65 20.39 19.66 20.35C19.68 20.31 19.69 20.27 19.7 20.23C19.72 20.19 19.73 20.15 19.74 20.11C19.71 20.1 19.68 20.09 19.65 20.08C19.62 20.07 19.6 20.06 19.57 20.05C19.54 20.03 19.51 20.02 19.49 20C19.46 19.99 19.43 19.98 19.41 19.96C19.27 19.87 19.16 19.85 19.07 20.02C19.06 20.07 19.04 20.11 19.02 20.15C18.99 20.19 18.97 20.23 18.95 20.27C18.92 20.31 18.9 20.34 18.87 20.38C18.84 20.42 18.82 20.45 18.79 20.49C18.72 20.54 18.65 20.61 18.6 20.68C18.55 20.75 18.52 20.83 18.5 20.92C18.47 21.01 18.47 21.1 18.47 21.18C18.48 21.27 18.51 21.36 18.55 21.44C18.59 21.53 18.62 21.64 18.62 21.74C18.63 21.84 18.61 21.95 18.58 22.05C18.54 22.15 18.49 22.24 18.42 22.31C18.35 22.39 18.26 22.45 18.17 22.5C17.68 22.83 17.15 23.14 16.64 23.45C16.58 23.48 16.53 23.52 16.48 23.57C16.43 23.62 16.39 23.68 16.36 23.75C16.34 23.81 16.32 23.88 16.31 23.95C16.31 24.02 16.32 24.09 16.34 24.16C16.4 24.13 16.45 24.09 16.49 24.09C16.56 24.09 16.63 24.08 16.7 24.06C16.77 24.04 16.83 24 16.89 23.96C16.94 23.91 16.99 23.86 17.03 23.8C17.07 23.74 17.09 23.67 17.11 23.6C17.13 23.52 17.26 23.43 17.37 23.32L17.37 23.87C17.75 23.77 17.88 23.5 17.88 23.08L17.88 23.08ZM16.05 3.13C16 3.15 15.98 3.18 15.94 3.2C15.78 3.02 15.76 2.65 15.34 2.87C15.56 3.18 15.76 3.49 15.98 3.8C15.91 3.82 15.82 3.82 15.64 3.86C15.87 4.15 16.05 4.39 16.25 4.66C16.23 4.66 16.21 4.67 16.19 4.67C16.17 4.67 16.15 4.67 16.13 4.68C16.11 4.68 16.1 4.69 16.08 4.69C16.06 4.69 16.04 4.7 16.02 4.71C16.05 5.19 16.4 5.37 16.78 5.57C16.66 5.59 16.58 5.63 16.42 5.66C16.53 5.83 16.62 5.96 16.71 6.12C16.84 5.99 16.93 5.86 17.04 5.77C17.08 5.75 17.11 5.73 17.15 5.72C17.18 5.7 17.22 5.68 17.26 5.67C17.29 5.65 17.33 5.64 17.37 5.63C17.41 5.61 17.44 5.6 17.48 5.59C17.46 5.37 17.42 5.13 17.39 4.86C16.98 5.26 16.67 5.19 16.47 4.71C16.45 4.67 16.44 4.64 16.42 4.6C16.41 4.57 16.4 4.54 16.39 4.5C16.37 4.47 16.36 4.43 16.36 4.39C16.35 4.36 16.34 4.32 16.33 4.29L16.27 2.56C16.27 2.47 16.26 2.39 16.24 2.3C16.21 2.22 16.18 2.13 16.14 2.05C16.1 1.98 16.05 1.9 16 1.83C15.94 1.77 15.87 1.71 15.8 1.66C15.79 1.73 15.79 1.8 15.78 1.88C15.78 1.95 15.77 2.02 15.77 2.1C15.77 2.17 15.77 2.25 15.77 2.32C15.77 2.39 15.77 2.47 15.78 2.54C15.79 2.59 15.81 2.64 15.83 2.7C15.85 2.75 15.87 2.8 15.89 2.85C15.91 2.9 15.94 2.94 15.96 2.99C15.99 3.04 16.01 3.09 16.04 3.13L16.05 3.13ZM1.33 3.18C1.06 2.74 1.06 2.74 0.75 2.85C0.95 3.15 1.15 3.45 1.37 3.75C1.33 3.77 1.24 3.77 1.04 3.82C1.26 4.11 1.44 4.37 1.61 4.62C1.59 4.62 1.57 4.63 1.54 4.63C1.52 4.64 1.49 4.64 1.47 4.64C1.45 4.65 1.42 4.65 1.4 4.65C1.37 4.66 1.35 4.66 1.33 4.66C1.35 4.71 1.37 4.76 1.39 4.8C1.41 4.85 1.44 4.89 1.46 4.94C1.49 4.98 1.52 5.02 1.55 5.07C1.57 5.11 1.6 5.15 1.63 5.19C1.68 5.22 1.72 5.26 1.77 5.29C1.81 5.32 1.86 5.34 1.9 5.37C1.95 5.4 2 5.43 2.04 5.45C2.09 5.48 2.14 5.5 2.19 5.52C2.03 5.57 1.92 5.59 1.77 5.63C1.88 5.81 1.97 5.94 2.03 6.03C2.32 5.83 2.56 5.68 2.85 5.48C2.83 5.3 2.81 5.08 2.76 4.8C2.36 5.2 2.03 5.15 1.84 4.66C1.81 4.6 1.78 4.53 1.76 4.47C1.74 4.4 1.72 4.33 1.7 4.26C1.69 4.19 1.67 4.12 1.66 4.06C1.65 3.99 1.64 3.92 1.63 3.85C1.61 3.4 1.63 2.96 1.61 2.52C1.62 2.43 1.61 2.34 1.59 2.26C1.57 2.17 1.54 2.09 1.5 2.01C1.46 1.93 1.4 1.86 1.34 1.8C1.28 1.73 1.21 1.68 1.13 1.64C1.12 1.71 1.12 1.78 1.11 1.86C1.11 1.93 1.11 2.01 1.11 2.08C1.11 2.15 1.11 2.23 1.11 2.3C1.12 2.37 1.12 2.45 1.13 2.52C1.22 2.74 1.35 2.93 1.44 3.13C1.39 3.15 1.37 3.15 1.33 3.18ZM4.15 8.5C4.22 8.52 4.29 8.52 4.36 8.52C4.43 8.52 4.49 8.51 4.56 8.49C4.63 8.47 4.69 8.44 4.75 8.41C4.81 8.37 4.86 8.33 4.91 8.28C4.94 8.26 4.97 8.23 5 8.21C5.03 8.19 5.06 8.17 5.1 8.15C5.13 8.13 5.16 8.11 5.2 8.1C5.23 8.08 5.27 8.07 5.31 8.06C5.24 8.28 5.2 8.48 5.15 8.66C5.17 8.66 5.2 8.68 5.24 8.68C5.46 8.42 5.81 8.26 5.7 7.77C5.84 7.84 5.9 7.88 5.95 7.91C6.32 7.73 6.1 7.42 6.08 7.13C6.21 7.2 6.28 7.25 6.37 7.29L6.5 7.02C6.1 6.75 6.01 6.55 6.15 6.22C6.26 5.93 6.03 5.77 5.95 5.58C5.94 5.57 5.93 5.56 5.92 5.56C5.91 5.55 5.89 5.55 5.88 5.54C5.87 5.54 5.86 5.54 5.85 5.54C5.84 5.53 5.82 5.53 5.81 5.53C5.61 5.58 5.33 5.95 5.39 6.15C5.41 6.21 5.44 6.28 5.46 6.34C5.48 6.4 5.51 6.46 5.53 6.52C5.56 6.58 5.59 6.64 5.61 6.7C5.64 6.76 5.67 6.82 5.7 6.88C5.88 7.28 5.81 7.56 5.39 7.74C5.33 7.77 5.27 7.79 5.21 7.81C5.16 7.83 5.09 7.85 5.03 7.87C4.97 7.89 4.91 7.91 4.85 7.92C4.79 7.94 4.73 7.95 4.66 7.96C4.42 8.06 4.18 8.17 4.15 8.5ZM21.09 7.02C20.69 6.75 20.69 6.64 20.75 6.15C20.78 5.95 20.62 5.75 20.56 5.54C20.56 5.51 20.47 5.51 20.42 5.51C20.34 5.53 20.26 5.57 20.2 5.63C20.13 5.68 20.08 5.75 20.05 5.83C20.02 5.9 20 5.99 20 6.07C20.01 6.16 20.03 6.24 20.07 6.31C20.16 6.53 20.29 6.73 20.38 6.95C20.41 7.01 20.42 7.06 20.43 7.12C20.44 7.17 20.44 7.23 20.43 7.29C20.41 7.35 20.39 7.4 20.36 7.45C20.33 7.5 20.29 7.54 20.24 7.57C20.21 7.6 20.17 7.63 20.14 7.65C20.1 7.68 20.06 7.7 20.02 7.73C19.98 7.75 19.94 7.77 19.9 7.79C19.86 7.81 19.82 7.82 19.78 7.84C19.56 7.93 19.32 7.95 19.1 8.04C19.04 8.05 18.99 8.07 18.95 8.1C18.91 8.13 18.87 8.16 18.84 8.21C18.81 8.25 18.79 8.3 18.77 8.35C18.76 8.4 18.76 8.45 18.76 8.5C18.83 8.52 18.9 8.53 18.97 8.52C19.04 8.52 19.11 8.51 19.17 8.49C19.24 8.47 19.3 8.44 19.36 8.4C19.42 8.36 19.47 8.31 19.51 8.26C19.54 8.24 19.57 8.21 19.61 8.19C19.64 8.17 19.67 8.15 19.7 8.13C19.74 8.11 19.77 8.09 19.81 8.08C19.84 8.06 19.88 8.05 19.92 8.04C19.85 8.26 19.8 8.46 19.74 8.64C19.76 8.64 19.8 8.66 19.83 8.66C20.03 8.4 20.4 8.24 20.27 7.75C20.4 7.84 20.47 7.89 20.51 7.91C20.89 7.73 20.64 7.42 20.67 7.11C20.98 7.37 21.04 7.22 21.09 7.02ZM15.87 17.93C15.45 18.15 15.89 18.4 15.89 18.64L15.72 18.64C15.65 19.02 15.87 19.21 16.2 19.39C16.02 19.44 15.91 19.44 15.8 19.46C15.87 19.63 15.91 19.77 15.93 19.83C16.33 19.79 16.66 19.75 17.02 19.68C17.04 19.5 17.06 19.28 17.08 19.06C16.55 19.32 16.2 19.17 16.15 18.62C16.15 18.51 16.14 18.4 16.14 18.29C16.13 18.18 16.13 18.07 16.13 17.95C16.13 17.84 16.14 17.73 16.15 17.62C16.15 17.51 16.16 17.4 16.18 17.29C16.22 16.85 16.35 16.39 15.85 16.1C15.81 16.19 15.79 16.28 15.78 16.37C15.77 16.47 15.77 16.56 15.78 16.66C15.79 16.75 15.81 16.84 15.85 16.93C15.88 17.02 15.92 17.1 15.98 17.18C15.94 17.17 15.9 17.16 15.86 17.14C15.82 17.13 15.78 17.11 15.74 17.1C15.71 17.08 15.67 17.07 15.63 17.05C15.59 17.04 15.55 17.02 15.51 17C15.49 17.03 15.47 17.07 15.45 17.09C15.58 17.38 15.72 17.65 15.87 17.93ZM1.77 18.82C1.62 19.06 1.66 19.13 2.39 19.5C2.32 19.55 2.26 19.61 2.17 19.68C2.26 19.77 2.32 19.88 2.39 19.94C2.65 19.81 2.9 19.7 3.12 19.59C3.05 19.37 2.99 19.17 2.92 18.95C2.61 19.21 2.39 19.19 2.14 18.84C2.05 18.71 1.97 18.58 1.91 18.43C1.85 18.29 1.81 18.13 1.79 17.98C1.76 17.83 1.75 17.67 1.77 17.51C1.78 17.35 1.81 17.2 1.86 17.05C1.89 16.97 1.9 16.88 1.9 16.79C1.9 16.7 1.87 16.61 1.83 16.53C1.79 16.45 1.74 16.38 1.67 16.32C1.6 16.26 1.52 16.22 1.44 16.19C1.46 16.56 1.48 16.9 1.5 17.23C1.37 17.18 1.22 17.12 1.08 17.07C1.06 17.09 1.04 17.14 1 17.16L1.52 17.96C1.51 17.97 1.49 17.98 1.47 17.98C1.45 17.99 1.43 18 1.41 18C1.39 18.01 1.37 18.01 1.34 18.02C1.32 18.02 1.3 18.02 1.28 18.03C1.46 18.33 1.61 18.57 1.77 18.82L1.77 18.82ZM6.68 21.93C6.59 21.67 6.52 21.49 6.48 21.31C6.39 20.98 6.3 20.63 6.21 20.3C6.19 20.21 6.1 20.08 6.06 20.1C6.03 20.1 6.01 20.11 5.98 20.12C5.96 20.13 5.94 20.14 5.91 20.15C5.89 20.17 5.87 20.18 5.85 20.2C5.83 20.22 5.81 20.23 5.79 20.25C5.78 20.28 5.76 20.31 5.75 20.35C5.74 20.38 5.73 20.41 5.72 20.45C5.72 20.48 5.72 20.51 5.72 20.55C5.72 20.58 5.72 20.62 5.73 20.65C5.73 20.7 5.74 20.74 5.75 20.78C5.76 20.83 5.78 20.87 5.79 20.91C5.8 20.95 5.82 21 5.83 21.04C5.85 21.08 5.86 21.12 5.88 21.16C6.19 21.93 6.15 22.2 5.37 22.42C5.29 22.44 5.22 22.48 5.16 22.53C5.09 22.59 5.03 22.65 4.99 22.72C4.95 22.79 4.91 22.86 4.9 22.95C4.88 23.03 4.88 23.11 4.89 23.19C5.13 23.01 5.33 22.86 5.51 22.73C5.55 22.93 5.57 23.13 5.62 23.33L5.73 23.33C5.84 23.04 5.97 22.75 6.08 22.47C6.5 22.55 6.3 22.16 6.41 21.96C6.43 21.97 6.44 21.98 6.46 21.99C6.47 22 6.49 22.01 6.5 22.02C6.52 22.02 6.53 22.03 6.55 22.04C6.56 22.05 6.58 22.06 6.59 22.07L6.68 21.93ZM6.65 23.68C7.03 23.59 7.34 23.43 7.3 22.95C6.99 23.12 6.61 23.19 6.65 23.68L6.65 23.68ZM15.85 7.22C16.29 7.64 16.47 7.66 16.75 7.28C16.44 7.22 16.18 7 15.85 7.22ZM2.15 7.3C1.84 7.22 1.57 7 1.24 7.22C1.64 7.64 1.81 7.66 2.14 7.31L2.15 7.3ZM16.76 23.28C16.76 23.28 16.76 23.28 16.76 23.28C16.76 23.28 16.76 23.28 16.76 23.28L16.76 23.28ZM17.56 22.81C17 22.71 16.76 22.86 16.76 23.28C17.02 23.12 17.27 22.99 17.56 22.81ZM5.55 22.18C5.06 21.93 4.95 21.93 4.75 22.18C5.02 22.46 5.28 22.33 5.55 22.18ZM16.49 21.18C16.14 20.87 16.01 20.85 15.72 20.98C16 21.34 16.09 21.36 16.49 21.18L16.49 21.18ZM19.58 7.73C19.55 7.66 19.51 7.61 19.46 7.56C19.41 7.52 19.35 7.48 19.28 7.46C19.21 7.44 19.14 7.43 19.07 7.44C19 7.45 18.94 7.47 18.88 7.51C19.16 7.88 19.21 7.88 19.58 7.73ZM4.97 7.71C4.94 7.65 4.89 7.6 4.84 7.55C4.79 7.51 4.73 7.48 4.66 7.46C4.6 7.44 4.53 7.44 4.46 7.44C4.39 7.45 4.33 7.47 4.27 7.51C4.58 7.88 4.67 7.91 4.97 7.71ZM2.92 20.76C3.2 21.09 3.2 21.12 3.54 20.92C3.27 20.56 3.23 20.56 2.92 20.76ZM20.67 20.98C20.67 20.98 20.67 20.98 20.67 20.98C20.67 20.98 20.67 20.98 20.67 20.98L20.67 20.98ZM19.94 21.36C20.2 21.23 20.4 21.12 20.67 20.98C20.2 20.87 20.07 20.92 19.94 21.36ZM21.9 7.59C21.59 7.55 21.48 7.62 21.44 7.9C21.82 7.93 21.86 7.9 21.9 7.59ZM7.31 7.59C6.98 7.55 6.89 7.62 6.85 7.9C7.21 7.93 7.27 7.9 7.32 7.59L7.31 7.59ZM16.42 3.51C16.42 3.51 16.42 3.51 16.42 3.5C16.42 3.51 16.42 3.51 16.42 3.51L16.42 3.51ZM16.46 2.78C16.45 3.02 16.45 3.24 16.42 3.5C16.75 3.24 16.75 3.02 16.46 2.78ZM1.86 3.49C1.92 3.45 1.97 3.39 2 3.33C2.04 3.27 2.06 3.19 2.06 3.12C2.06 3.05 2.04 2.98 2 2.91C1.97 2.85 1.92 2.8 1.86 2.76L1.86 3.49ZM1.99 17.23C1.99 17.23 1.99 17.23 1.99 17.23C1.99 17.23 1.99 17.23 1.99 17.23L1.99 17.23ZM1.92 17.85C2.25 17.54 2.25 17.47 1.99 17.23C1.97 17.47 1.95 17.67 1.92 17.85Z" />
		<path id="Layer" fill-rule="evenodd" class="shp0" d="M14.7 14.25L13.97 14.25L13.97 15.77L13.04 15.77L13.04 14.25L10.79 14.25L10.79 15.77L9.88 15.77L9.88 14.25L9.11 14.25L9.11 10.18L9.55 10.18C9.6 10.19 9.64 10.19 9.69 10.19C9.74 10.18 9.79 10.17 9.83 10.15C9.88 10.14 9.92 10.11 9.96 10.08C9.99 10.05 10.03 10.02 10.06 9.98C10.1 9.94 10.15 9.9 10.21 9.88C10.27 9.86 10.33 9.85 10.39 9.85C10.45 9.86 10.51 9.88 10.56 9.91C10.62 9.94 10.66 9.98 10.7 10.03C10.76 10.07 10.82 10.11 10.89 10.14C10.96 10.16 11.03 10.18 11.11 10.18C11.18 10.18 11.25 10.17 11.32 10.15C11.39 10.13 11.46 10.09 11.52 10.05C11.56 10 11.62 9.95 11.68 9.93C11.75 9.9 11.81 9.88 11.88 9.88C11.95 9.88 12.02 9.9 12.08 9.93C12.15 9.95 12.2 10 12.25 10.05C12.3 10.09 12.36 10.13 12.43 10.15C12.49 10.18 12.56 10.19 12.63 10.19C12.7 10.19 12.77 10.18 12.84 10.15C12.91 10.13 12.97 10.09 13.02 10.05C13.2 9.85 13.44 9.78 13.62 9.98C13.67 10.02 13.72 10.06 13.78 10.09C13.83 10.12 13.89 10.15 13.95 10.16C14.01 10.18 14.08 10.19 14.14 10.19C14.2 10.2 14.27 10.19 14.33 10.18L14.68 10.18C14.7 11.53 14.7 12.88 14.7 14.25ZM12.52 12.06C12.32 11.97 12.1 11.92 11.88 11.92C11.66 11.92 11.44 11.97 11.24 12.06C11.04 12.15 10.86 12.29 10.72 12.46C10.86 12.64 11.03 12.78 11.23 12.88C11.43 12.98 11.66 13.03 11.88 13.03C12.1 13.03 12.33 12.98 12.53 12.88C12.73 12.78 12.9 12.64 13.04 12.46C12.9 12.29 12.72 12.15 12.52 12.06ZM11.71 10.73C11.71 10.75 11.71 10.77 11.71 10.79C11.71 10.81 11.71 10.83 11.71 10.85C11.71 10.87 11.71 10.89 11.72 10.91C11.74 11 11.83 11.13 11.87 11.13C11.89 11.13 11.92 11.12 11.94 11.11C11.97 11.11 11.99 11.09 12.01 11.08C12.03 11.07 12.05 11.05 12.07 11.03C12.09 11.02 12.1 11 12.11 10.98C12.12 10.92 12.12 10.87 12.13 10.82C12.13 10.77 12.13 10.72 12.13 10.67C12.13 10.61 12.13 10.56 12.13 10.51C12.12 10.46 12.12 10.41 12.11 10.36C12.11 10.29 11.96 10.22 11.87 10.2C11.83 10.2 11.76 10.33 11.72 10.4C11.71 10.42 11.71 10.45 11.71 10.47C11.71 10.49 11.71 10.51 11.71 10.53C11.71 10.56 11.71 10.58 11.71 10.6C11.71 10.62 11.71 10.64 11.72 10.67C11.71 10.69 11.71 10.71 11.71 10.73ZM10.16 10.72C10.16 10.73 10.16 10.75 10.16 10.77C10.16 10.78 10.16 10.8 10.16 10.82C10.16 10.83 10.17 10.85 10.17 10.87C10.21 10.95 10.28 11.04 10.32 11.13C10.41 11.06 10.54 11 10.57 10.89C10.58 10.84 10.59 10.8 10.59 10.76C10.6 10.71 10.6 10.67 10.6 10.62C10.6 10.58 10.6 10.53 10.59 10.49C10.59 10.45 10.58 10.4 10.57 10.36C10.54 10.27 10.41 10.22 10.32 10.16C10.28 10.25 10.21 10.31 10.17 10.4C10.17 10.42 10.16 10.45 10.16 10.47C10.16 10.49 10.16 10.51 10.16 10.53C10.16 10.56 10.16 10.58 10.16 10.6C10.16 10.62 10.17 10.64 10.17 10.67C10.17 10.68 10.16 10.7 10.16 10.72ZM13.57 10.67C13.57 10.65 13.57 10.63 13.57 10.62C13.58 10.6 13.58 10.58 13.58 10.57C13.58 10.55 13.58 10.53 13.57 10.52C13.57 10.5 13.57 10.48 13.57 10.47C13.52 10.38 13.46 10.29 13.41 10.2C13.32 10.27 13.19 10.33 13.17 10.42C13.16 10.46 13.16 10.5 13.15 10.54C13.15 10.58 13.15 10.62 13.15 10.66C13.15 10.71 13.15 10.75 13.15 10.79C13.16 10.83 13.16 10.87 13.17 10.91C13.19 11 13.3 11.06 13.39 11.13C13.41 11.11 13.42 11.09 13.44 11.07C13.45 11.05 13.47 11.03 13.48 11.01C13.5 10.99 13.51 10.97 13.53 10.95C13.54 10.93 13.56 10.91 13.57 10.89C13.57 10.87 13.57 10.85 13.57 10.83C13.58 10.81 13.58 10.79 13.58 10.78C13.58 10.76 13.58 10.74 13.57 10.72C13.57 10.7 13.57 10.68 13.57 10.67ZM13.21 15.17L13.66 15.17L13.66 14.62L13.21 14.62L13.21 15.17ZM10.05 14.6L10.05 15.15L10.45 15.15L10.45 14.6L10.05 14.6ZM13.68 15.46L13.68 15.37C13.52 15.37 13.39 15.35 13.24 15.35C13.23 15.36 13.23 15.37 13.23 15.38C13.23 15.39 13.22 15.4 13.22 15.41C13.22 15.41 13.22 15.42 13.22 15.43C13.22 15.44 13.21 15.45 13.21 15.46C13.32 15.48 13.46 15.5 13.57 15.53C13.58 15.52 13.59 15.52 13.6 15.52C13.61 15.51 13.62 15.51 13.63 15.5C13.64 15.5 13.65 15.49 13.66 15.48C13.67 15.48 13.67 15.47 13.68 15.46L13.68 15.46ZM10.25 15.55C10.27 15.54 10.29 15.53 10.31 15.52C10.33 15.51 10.35 15.5 10.36 15.49C10.38 15.48 10.4 15.46 10.42 15.45C10.44 15.44 10.46 15.43 10.47 15.42C10.46 15.4 10.44 15.39 10.42 15.38C10.4 15.37 10.39 15.37 10.37 15.36C10.35 15.35 10.33 15.34 10.31 15.34C10.29 15.33 10.27 15.33 10.25 15.33C10.19 15.33 10.12 15.39 10.05 15.42L10.25 15.55Z" />
		<path id="Layer" fill-rule="evenodd" class="shp0" d="M9.86 8.3C10.43 7.66 10.56 7 10.26 6.58C10.35 6.49 10.41 6.4 10.5 6.31C10.52 6.34 10.54 6.36 10.56 6.38C10.58 6.4 10.6 6.42 10.62 6.44C10.64 6.46 10.66 6.48 10.68 6.5C10.7 6.52 10.72 6.54 10.74 6.56C10.68 6.7 10.63 6.86 10.62 7.02C10.6 7.18 10.61 7.34 10.65 7.49C10.69 7.65 10.75 7.8 10.84 7.93C10.93 8.07 11.04 8.18 11.16 8.28L10.68 8.28C10.66 8.32 10.65 8.37 10.64 8.41C10.63 8.46 10.62 8.5 10.61 8.54C10.6 8.59 10.59 8.63 10.59 8.68C10.58 8.72 10.57 8.77 10.56 8.81L10.48 8.81C10.46 8.77 10.45 8.72 10.44 8.68C10.43 8.64 10.42 8.59 10.41 8.55C10.4 8.5 10.39 8.46 10.39 8.41C10.38 8.37 10.37 8.33 10.37 8.28C10.32 8.29 10.28 8.29 10.24 8.29C10.2 8.3 10.15 8.3 10.11 8.3C10.07 8.3 10.03 8.3 9.99 8.3C9.94 8.3 9.9 8.3 9.86 8.3L9.86 8.3Z" />
		<path id="Layer" fill-rule="evenodd" class="shp0" d="M10.46 20.74L10.32 20.21C10.17 20.23 10.01 20.23 9.84 20.25C10.41 19.5 10.54 18.9 10.24 18.51C10.26 18.48 10.27 18.46 10.29 18.44C10.31 18.42 10.33 18.39 10.35 18.37C10.37 18.35 10.39 18.33 10.42 18.31C10.44 18.28 10.46 18.26 10.48 18.24C10.57 18.33 10.63 18.42 10.72 18.51C10.41 18.93 10.55 19.52 11.12 20.25C10.95 20.23 10.81 20.23 10.64 20.21C10.63 20.25 10.61 20.3 10.6 20.34C10.59 20.38 10.58 20.43 10.57 20.47C10.56 20.52 10.56 20.56 10.55 20.61C10.54 20.65 10.53 20.69 10.53 20.74L10.46 20.74Z" />
		<path id="Layer" fill-rule="evenodd" class="shp0" d="M5.35 12.15L4.88 12.15C4.87 12.19 4.86 12.23 4.85 12.28C4.84 12.32 4.83 12.37 4.82 12.41C4.81 12.45 4.8 12.5 4.8 12.54C4.79 12.59 4.78 12.63 4.77 12.68L4.69 12.68C4.64 12.5 4.6 12.34 4.55 12.15L4.07 12.15C4.19 12.04 4.3 11.92 4.38 11.78C4.47 11.64 4.53 11.49 4.57 11.34C4.61 11.18 4.63 11.02 4.62 10.85C4.61 10.69 4.57 10.53 4.51 10.38L4.71 10.18C4.8 10.27 4.87 10.36 4.91 10.4C4.85 10.55 4.82 10.71 4.81 10.87C4.8 11.03 4.81 11.19 4.85 11.34C4.89 11.5 4.95 11.65 5.04 11.78C5.12 11.92 5.23 12.04 5.35 12.15L5.35 12.15Z" />
		<path id="Layer" fill-rule="evenodd" class="shp0" d="M16.33 12.12C16.29 12.32 16.25 12.5 16.22 12.68L16.13 12.68L16 12.15L15.54 12.15C15.66 12.04 15.76 11.92 15.85 11.78C15.93 11.64 16 11.49 16.03 11.33C16.07 11.18 16.09 11.01 16.08 10.85C16.07 10.69 16.04 10.53 15.98 10.38C16 10.36 16.02 10.35 16.03 10.33C16.05 10.31 16.07 10.29 16.08 10.27C16.1 10.25 16.12 10.24 16.13 10.22C16.15 10.2 16.17 10.18 16.18 10.16C16.2 10.18 16.22 10.2 16.25 10.22C16.27 10.24 16.29 10.27 16.31 10.29C16.33 10.31 16.35 10.33 16.37 10.36C16.39 10.38 16.41 10.4 16.42 10.42C16.09 10.82 16.25 11.52 16.8 12.1C16.76 12.11 16.72 12.11 16.68 12.11C16.65 12.12 16.61 12.12 16.57 12.12C16.53 12.12 16.49 12.12 16.45 12.12C16.41 12.13 16.37 12.12 16.33 12.12L16.33 12.12Z" />
		<path id="Layer" fill-rule="evenodd" class="shp0" d="M3.03 12.1C3.04 12.08 3.06 12.07 3.07 12.05C3.09 12.03 3.11 12.01 3.12 12C3.14 11.98 3.16 11.96 3.17 11.95C3.19 11.93 3.21 11.92 3.23 11.9C3.29 11.99 3.38 12.1 3.45 12.19C3.16 12.61 3.29 13.23 3.82 13.87L3.38 13.87C3.34 14.07 3.29 14.22 3.27 14.4L3.18 14.4L3.05 13.87L2.56 13.87C2.69 13.76 2.8 13.64 2.89 13.5C2.97 13.37 3.04 13.22 3.08 13.06C3.12 12.9 3.14 12.74 3.13 12.58C3.12 12.41 3.09 12.25 3.03 12.1L3.03 12.1Z" />
		<path id="Layer" fill-rule="evenodd" class="shp0" d="M11.16 25.4C10.94 25.38 10.81 25.38 10.65 25.36C10.61 25.53 10.59 25.71 10.54 25.89L10.45 25.89L10.32 25.36C10.17 25.38 10.03 25.38 9.81 25.4C9.94 25.3 10.05 25.17 10.14 25.04C10.23 24.9 10.29 24.75 10.33 24.59C10.37 24.43 10.39 24.27 10.38 24.11C10.37 23.95 10.34 23.78 10.28 23.63C10.32 23.59 10.39 23.5 10.48 23.41C10.56 23.5 10.63 23.59 10.68 23.63C10.62 23.79 10.59 23.95 10.58 24.11C10.57 24.27 10.59 24.44 10.63 24.59C10.68 24.75 10.75 24.9 10.84 25.04C10.92 25.18 11.03 25.3 11.16 25.4L11.16 25.4Z" />
		<path id="Layer" fill-rule="evenodd" class="shp0" d="M10.26 1.67C10.35 1.59 10.41 1.5 10.5 1.41C10.52 1.43 10.54 1.45 10.56 1.47C10.58 1.49 10.61 1.51 10.63 1.53C10.65 1.55 10.67 1.57 10.69 1.59C10.7 1.61 10.72 1.63 10.74 1.65C10.43 2.09 10.57 2.71 11.12 3.35L10.65 3.35C10.61 3.53 10.59 3.71 10.54 3.88L10.48 3.88L10.35 3.35L9.94 3.35C9.98 3.29 10.02 3.22 10.06 3.16C10.09 3.09 10.13 3.02 10.16 2.95C10.2 2.88 10.23 2.82 10.26 2.75C10.29 2.68 10.32 2.61 10.35 2.54C10.38 2.47 10.41 2.4 10.43 2.32C10.44 2.25 10.45 2.17 10.44 2.09C10.43 2.01 10.41 1.94 10.38 1.87C10.35 1.8 10.31 1.73 10.26 1.67L10.26 1.67Z" />
		<path id="Layer" fill-rule="evenodd" class="shp0" d="M6.03 13.87L5.66 13.87C5.7 13.8 5.74 13.74 5.77 13.67C5.81 13.6 5.84 13.54 5.88 13.47C5.91 13.4 5.94 13.33 5.97 13.26C6 13.19 6.03 13.12 6.06 13.05C6.15 12.76 6.26 12.43 5.97 12.17C6.06 12.08 6.13 11.99 6.21 11.9L6.46 12.15C6.15 12.61 6.26 13.18 6.81 13.87L6.37 13.87L6.23 14.4L6.14 14.4C6.12 14.22 6.08 14.07 6.03 13.87Z" />
		<path id="Layer" fill-rule="evenodd" class="shp0" d="M17.46 12.1L17.66 11.9C17.68 11.92 17.7 11.94 17.72 11.97C17.74 11.99 17.76 12.01 17.78 12.03C17.8 12.05 17.82 12.07 17.84 12.09C17.86 12.11 17.88 12.13 17.9 12.14C17.57 12.52 17.79 13.43 18.31 13.87L17.84 13.87C17.8 14.07 17.77 14.24 17.73 14.4L17.64 14.4L17.51 13.87L17.05 13.87C17.16 13.76 17.26 13.63 17.34 13.49C17.43 13.36 17.49 13.2 17.52 13.05C17.56 12.89 17.57 12.73 17.56 12.57C17.55 12.41 17.52 12.25 17.46 12.1Z" />
		<path id="Layer" fill-rule="evenodd" class="shp0" d="M8.29 12.12C8.13 12.15 7.94 12.12 7.85 12.21C7.76 12.3 7.78 12.52 7.74 12.68L7.65 12.68L7.51 12.15L7.05 12.15C7.17 12.04 7.28 11.91 7.36 11.78C7.45 11.64 7.51 11.49 7.55 11.33C7.59 11.18 7.6 11.01 7.59 10.85C7.58 10.69 7.55 10.53 7.49 10.38C7.51 10.36 7.58 10.27 7.67 10.16C7.69 10.18 7.71 10.2 7.73 10.22C7.75 10.24 7.77 10.27 7.79 10.29C7.81 10.31 7.83 10.33 7.85 10.35C7.87 10.36 7.89 10.38 7.91 10.4C7.6 10.87 7.74 11.48 8.29 12.12Z" />
		<path id="Layer" fill-rule="evenodd" class="shp0" d="M1.11 12.17C1.66 11.53 1.81 10.84 1.48 10.44C1.5 10.42 1.52 10.4 1.54 10.38C1.56 10.35 1.58 10.33 1.6 10.31C1.62 10.29 1.64 10.27 1.66 10.25C1.68 10.22 1.7 10.2 1.72 10.18C1.75 10.2 1.77 10.22 1.79 10.25C1.81 10.27 1.83 10.29 1.85 10.31C1.87 10.33 1.89 10.36 1.91 10.38C1.93 10.4 1.95 10.42 1.97 10.45C1.66 10.85 1.81 11.49 2.34 12.15L1.9 12.15C1.89 12.19 1.88 12.24 1.87 12.28C1.86 12.32 1.85 12.37 1.84 12.41C1.83 12.46 1.82 12.5 1.81 12.54C1.8 12.59 1.8 12.63 1.79 12.68C1.61 12.43 1.69 11.95 1.11 12.17Z" />
		<path id="Layer" fill-rule="evenodd" class="shp0" d="M13.55 18.53C13.24 18.91 13.35 19.39 13.95 20.25C13.91 20.25 13.87 20.24 13.83 20.24C13.8 20.23 13.76 20.23 13.72 20.22C13.68 20.22 13.64 20.22 13.6 20.22C13.56 20.21 13.52 20.21 13.49 20.21C13.44 20.39 13.42 20.56 13.37 20.74L13.29 20.74C13.24 20.56 13.22 20.41 13.18 20.21C13.02 20.23 12.89 20.23 12.67 20.25C12.79 20.15 12.91 20.03 12.99 19.89C13.08 19.75 13.15 19.59 13.19 19.43C13.23 19.27 13.24 19.11 13.23 18.94C13.21 18.78 13.17 18.62 13.11 18.46C13.09 18.51 13.09 18.49 13.11 18.46C13.18 18.4 13.22 18.33 13.33 18.22C13.39 18.33 13.48 18.42 13.55 18.53Z" />
		<path id="Layer" fill-rule="evenodd" class="shp0" d="M13.06 23.63C13.09 23.61 13.11 23.59 13.13 23.57C13.16 23.55 13.18 23.53 13.2 23.51C13.23 23.49 13.25 23.47 13.28 23.45C13.3 23.43 13.32 23.41 13.35 23.39C13.42 23.48 13.48 23.54 13.55 23.63C13.48 23.78 13.44 23.93 13.42 24.1C13.4 24.26 13.41 24.42 13.45 24.58C13.48 24.73 13.54 24.88 13.63 25.02C13.72 25.16 13.82 25.28 13.95 25.38C13.91 25.37 13.87 25.37 13.83 25.37C13.79 25.36 13.75 25.36 13.71 25.36C13.67 25.36 13.63 25.36 13.59 25.36C13.55 25.36 13.5 25.36 13.46 25.36C13.44 25.53 13.4 25.71 13.38 25.86C13.37 25.86 13.36 25.86 13.35 25.86C13.35 25.86 13.34 25.87 13.33 25.87C13.32 25.87 13.32 25.87 13.31 25.87C13.3 25.88 13.29 25.88 13.29 25.89C13.24 25.71 13.22 25.53 13.18 25.36C13.02 25.36 12.87 25.38 12.69 25.38C13.28 24.63 13.42 24.03 13.06 23.63Z" />
		<path id="Layer" fill-rule="evenodd" class="shp0" d="M19.81 12.21C19.19 11.97 19.23 12.41 19.16 12.7C19.14 12.7 19.12 12.68 19.1 12.68C19.05 12.5 19.01 12.32 18.97 12.12L18.52 12.12C19.08 11.5 19.21 10.8 18.9 10.42C18.97 10.34 19.06 10.25 19.14 10.14C19.16 10.16 19.18 10.18 19.2 10.2C19.22 10.22 19.24 10.24 19.26 10.26C19.28 10.28 19.3 10.3 19.32 10.32C19.34 10.34 19.36 10.36 19.39 10.38C19.05 10.86 19.19 11.48 19.81 12.21Z" />
		<path id="Layer" fill-rule="evenodd" class="shp0" d="M13.31 6.29C13.32 6.32 13.34 6.34 13.36 6.36C13.38 6.38 13.4 6.41 13.42 6.43C13.44 6.45 13.46 6.47 13.49 6.49C13.51 6.52 13.53 6.54 13.55 6.56C13.48 6.7 13.44 6.86 13.42 7.02C13.4 7.18 13.42 7.34 13.45 7.5C13.49 7.65 13.56 7.8 13.65 7.93C13.73 8.07 13.84 8.19 13.97 8.28L13.48 8.28C13.44 8.48 13.42 8.64 13.37 8.81L13.28 8.81C13.24 8.64 13.22 8.48 13.17 8.28L12.66 8.28C12.79 8.19 12.91 8.08 13 7.95C13.09 7.81 13.15 7.67 13.19 7.51C13.23 7.36 13.24 7.2 13.22 7.04C13.2 6.88 13.16 6.73 13.09 6.58C13.15 6.49 13.22 6.42 13.31 6.29Z" />
		<path id="Layer" fill-rule="evenodd" class="shp0" d="M13.06 1.67C13.08 1.65 13.1 1.62 13.13 1.6C13.15 1.58 13.17 1.55 13.19 1.53C13.21 1.5 13.24 1.48 13.26 1.46C13.28 1.43 13.3 1.41 13.33 1.39C13.42 1.48 13.48 1.56 13.57 1.65C13.24 2.07 13.39 2.71 13.95 3.35L13.48 3.35C13.44 3.53 13.41 3.71 13.37 3.88L13.28 3.88C13.24 3.71 13.21 3.55 13.17 3.35L12.75 3.35C12.79 3.29 12.83 3.22 12.87 3.16C12.9 3.09 12.94 3.02 12.98 2.95C13.01 2.88 13.04 2.82 13.08 2.75C13.11 2.68 13.14 2.61 13.17 2.54C13.24 2.29 13.44 1.96 13.06 1.67Z" />
		<path id="Layer" fill-rule="evenodd" class="shp0" d="M11.91 20.78C12 20.89 12.07 20.98 12.13 21.07C12.06 21.21 12.01 21.36 11.99 21.52C11.98 21.68 11.99 21.84 12.02 21.99C12.06 22.14 12.13 22.29 12.22 22.42C12.31 22.55 12.42 22.66 12.55 22.75C12.38 22.77 12.15 22.73 12.07 22.84C11.98 22.93 12 23.15 11.96 23.3L11.87 23.3C11.82 23.13 11.8 22.97 11.75 22.79L11.27 22.79C11.39 22.69 11.5 22.57 11.58 22.43C11.67 22.29 11.73 22.14 11.77 21.98C11.81 21.82 11.83 21.66 11.81 21.5C11.8 21.34 11.77 21.18 11.71 21.03C11.74 20.98 11.82 20.9 11.91 20.78Z" />
		<path id="Layer" fill-rule="evenodd" class="shp0" d="M12.07 17.69C12.03 17.89 12.01 18.04 11.96 18.22L11.87 18.22C11.83 18.04 11.81 17.87 11.76 17.69L11.36 17.69C11.4 17.63 11.44 17.56 11.47 17.5C11.51 17.43 11.55 17.37 11.58 17.3C11.61 17.23 11.64 17.17 11.67 17.1C11.71 17.03 11.73 16.96 11.76 16.89C11.85 16.6 11.98 16.27 11.65 16.01C11.74 15.92 11.81 15.83 11.89 15.74L12.14 15.99C11.81 16.36 12.03 17.24 12.54 17.71C12.5 17.7 12.46 17.7 12.42 17.7C12.38 17.69 12.34 17.69 12.31 17.69C12.27 17.69 12.23 17.69 12.19 17.69C12.15 17.69 12.11 17.69 12.07 17.69L12.07 17.69Z" />
		<path id="Layer" fill-rule="evenodd" class="shp0" d="M21.26 13.87L20.76 13.87C20.71 14.05 20.69 14.22 20.64 14.4L20.56 14.4C20.51 14.22 20.49 14.05 20.45 13.87L20.05 13.87C20.09 13.81 20.13 13.74 20.16 13.67C20.2 13.61 20.24 13.54 20.27 13.47C20.3 13.4 20.33 13.33 20.36 13.26C20.39 13.19 20.42 13.12 20.45 13.05C20.53 12.76 20.67 12.43 20.33 12.17C20.36 12.15 20.38 12.12 20.4 12.1C20.42 12.08 20.44 12.05 20.46 12.03C20.48 12 20.5 11.98 20.52 11.96C20.54 11.93 20.56 11.91 20.58 11.88C20.67 11.97 20.73 12.06 20.8 12.12C20.74 12.27 20.7 12.43 20.69 12.59C20.68 12.76 20.7 12.92 20.74 13.08C20.78 13.23 20.85 13.38 20.94 13.52C21.02 13.65 21.14 13.77 21.26 13.87Z" />
		<path id="Layer" fill-rule="evenodd" class="shp0" d="M22.1 10.16C22.12 10.18 22.14 10.21 22.16 10.23C22.18 10.25 22.2 10.28 22.22 10.3C22.24 10.32 22.26 10.34 22.28 10.36C22.3 10.38 22.32 10.4 22.35 10.42C21.99 10.73 22.26 11.72 22.75 12.12L22.26 12.12C22.22 12.32 22.19 12.5 22.15 12.67L22.06 12.67C22.02 12.52 21.99 12.34 21.95 12.17L21.46 12.17C21.58 12.06 21.69 11.94 21.77 11.8C21.86 11.66 21.92 11.51 21.96 11.35C22 11.2 22.01 11.03 22.01 10.87C22 10.71 21.96 10.55 21.9 10.4C21.92 10.38 21.93 10.36 21.95 10.33C21.96 10.31 21.98 10.29 22 10.27C22.01 10.25 22.03 10.23 22.05 10.21C22.07 10.19 22.09 10.18 22.11 10.16L22.1 10.16Z" />
		<path id="Layer" fill-rule="evenodd" class="shp0" d="M11.67 4.13C11.76 4.04 11.83 3.95 11.92 3.86C11.94 3.88 11.96 3.9 11.97 3.93C11.99 3.95 12.01 3.97 12.03 3.99C12.05 4.01 12.07 4.03 12.09 4.06C12.1 4.08 12.12 4.1 12.14 4.13C12.07 4.27 12.02 4.42 12.01 4.57C11.99 4.72 12 4.88 12.03 5.03C12.06 5.18 12.12 5.33 12.21 5.46C12.29 5.59 12.39 5.71 12.51 5.81C12.36 5.83 12.14 5.83 12.05 5.92C11.96 6 11.98 6.2 11.96 6.36L11.87 6.36C11.86 6.31 11.85 6.27 11.84 6.23C11.83 6.18 11.82 6.14 11.81 6.09C11.8 6.05 11.79 6.01 11.78 5.96C11.78 5.92 11.77 5.87 11.76 5.83L11.36 5.83C11.4 5.76 11.44 5.7 11.48 5.63C11.52 5.56 11.55 5.5 11.59 5.43C11.62 5.36 11.66 5.29 11.69 5.22C11.72 5.15 11.75 5.08 11.78 5.01C11.85 4.75 11.98 4.41 11.67 4.13Z" />
		<path id="Layer" fill-rule="evenodd" class="shp0" d="M3.18 2.91C3.56 2.89 3.84 2.87 4.11 2.87C4.16 2.87 4.29 3.03 4.26 3.1C4.24 3.17 4.22 3.23 4.19 3.29C4.17 3.35 4.14 3.42 4.12 3.48C4.09 3.54 4.06 3.6 4.03 3.66C4 3.72 3.97 3.78 3.94 3.84C3.84 4 3.69 3.98 3.61 3.84C3.46 3.55 3.33 3.22 3.18 2.91ZM3.56 3.17C3.61 3.39 3.63 3.55 3.69 3.74C3.91 3.65 4.01 3.29 3.89 3.17L3.56 3.17Z" />
		<path id="Layer" fill-rule="evenodd" class="shp0" d="M3.09 1.92C3.25 2.07 3.58 2.09 3.56 2.43C3.56 2.49 3.51 2.54 3.49 2.6C3.48 2.6 3.46 2.59 3.44 2.59C3.43 2.58 3.41 2.58 3.4 2.57C3.38 2.56 3.37 2.55 3.36 2.54C3.34 2.54 3.33 2.53 3.31 2.51L2.98 1.99C3.03 1.96 3.05 1.94 3.09 1.92Z" />
		<path id="Layer" fill-rule="evenodd" class="shp0" d="M3.96 2.71C3.74 2.2 3.78 2.14 4.36 1.96C4.22 2.2 4.1 2.43 3.96 2.71Z" />
		<path id="Layer" fill-rule="evenodd" class="shp0" d="M17.81 2.92C17.89 2.91 17.96 2.9 18.03 2.9C18.11 2.89 18.18 2.88 18.25 2.88C18.33 2.88 18.4 2.87 18.47 2.87C18.55 2.87 18.62 2.87 18.69 2.87C18.77 2.87 18.92 3.01 18.89 3.09C18.88 3.14 18.86 3.2 18.85 3.26C18.83 3.32 18.81 3.37 18.79 3.43C18.77 3.48 18.75 3.54 18.72 3.59C18.7 3.65 18.67 3.7 18.64 3.75C18.52 3.99 18.29 4.02 18.19 3.8C18.04 3.51 17.94 3.2 17.81 2.92ZM18.19 3.21C18.2 3.26 18.21 3.31 18.22 3.35C18.23 3.4 18.24 3.45 18.25 3.5C18.26 3.55 18.27 3.6 18.27 3.65C18.28 3.71 18.29 3.76 18.29 3.81C18.67 3.66 18.52 3.42 18.54 3.21L18.19 3.21Z" />
		<path id="Layer" fill-rule="evenodd" class="shp0" d="M18.06 2.65C17.99 2.61 17.94 2.56 17.88 2.51C17.83 2.46 17.79 2.4 17.75 2.34C17.72 2.27 17.69 2.21 17.67 2.14C17.65 2.06 17.64 1.99 17.64 1.92C18.24 2.2 18.26 2.29 18.06 2.65Z" />
		<path id="Layer" fill-rule="evenodd" class="shp0" d="M18.94 1.94C18.81 2.2 18.7 2.43 18.57 2.67C18.3 2.27 18.37 2.14 18.94 1.94Z" />
		<path id="Layer" fill-rule="evenodd" class="shp0" d="M4.38 17.49C4.47 17.67 4.16 18.45 3.94 18.51C3.92 18.51 3.9 18.51 3.88 18.5C3.87 18.5 3.85 18.49 3.83 18.49C3.82 18.48 3.8 18.48 3.78 18.47C3.77 18.47 3.75 18.46 3.74 18.45C3.67 18.38 3.62 18.3 3.57 18.22C3.52 18.14 3.48 18.06 3.44 17.97C3.41 17.89 3.38 17.8 3.35 17.7C3.33 17.61 3.32 17.52 3.31 17.43C3.65 17.46 3.99 17.46 4.38 17.49ZM3.94 18.36C3.99 18.18 4.02 17.97 4.08 17.76C4.04 17.77 4 17.77 3.96 17.77C3.92 17.78 3.88 17.78 3.84 17.78C3.8 17.79 3.76 17.79 3.72 17.79C3.68 17.79 3.64 17.79 3.6 17.79C3.62 17.83 3.64 17.88 3.66 17.93C3.69 17.97 3.71 18.02 3.72 18.07C3.74 18.12 3.76 18.16 3.78 18.21C3.79 18.26 3.81 18.31 3.82 18.36L3.94 18.36Z" />
		<path id="Layer" fill-rule="evenodd" class="shp0" d="M3.49 17.2C3.36 17.03 3.25 16.85 3.09 16.65C3.6 16.67 3.65 16.74 3.58 17.16C3.57 17.16 3.56 17.16 3.56 17.17C3.55 17.17 3.54 17.17 3.53 17.18C3.53 17.18 3.52 17.18 3.51 17.19C3.51 17.19 3.5 17.2 3.49 17.2L3.49 17.2Z" />
		<path id="Layer" fill-rule="evenodd" class="shp0" d="M3.96 17.23C3.87 16.78 3.87 16.78 4.36 16.65C4.24 16.83 4.11 16.98 3.96 17.23Z" />
		<path id="Layer" fill-rule="evenodd" class="shp0" d="M18.51 17.36C18.6 17.36 18.71 17.6 18.71 17.66C18.68 17.72 18.65 17.79 18.62 17.85C18.59 17.91 18.56 17.98 18.52 18.04C18.49 18.1 18.45 18.16 18.42 18.22C18.38 18.28 18.34 18.34 18.31 18.4C18.28 18.46 18.11 18.46 18.05 18.43C17.98 18.36 17.92 18.29 17.86 18.22C17.81 18.14 17.77 18.06 17.73 17.97C17.7 17.88 17.67 17.79 17.66 17.7C17.64 17.61 17.64 17.51 17.64 17.42C17.96 17.39 18.25 17.36 18.51 17.36ZM17.99 18.25C18.08 18.25 18.13 18.28 18.22 18.28C18.23 18.23 18.24 18.18 18.25 18.14C18.25 18.09 18.26 18.04 18.26 18C18.27 17.95 18.27 17.9 18.27 17.86C18.28 17.81 18.28 17.76 18.28 17.71C18.26 17.71 18.25 17.71 18.23 17.71C18.21 17.7 18.2 17.7 18.18 17.7C18.16 17.69 18.15 17.69 18.13 17.69C18.11 17.69 18.1 17.69 18.08 17.68C18.05 17.86 18.02 18.07 17.99 18.25L17.99 18.25Z" />
		<path id="Layer" fill-rule="evenodd" class="shp0" d="M18.19 17.14L18.19 16.76C18.23 16.75 18.27 16.74 18.3 16.72C18.34 16.71 18.38 16.7 18.41 16.68C18.45 16.67 18.49 16.65 18.52 16.63C18.56 16.62 18.6 16.6 18.63 16.58C18.65 16.61 18.68 16.63 18.68 16.65C18.54 16.83 18.39 17 18.26 17.18C18.24 17.18 18.21 17.16 18.19 17.14Z" />
		<path id="Layer" fill-rule="evenodd" class="shp0" d="M17.48 16.61C17.73 16.67 18.04 16.67 17.93 17.01C17.91 17.02 17.9 17.03 17.88 17.04C17.87 17.05 17.85 17.06 17.83 17.06C17.82 17.07 17.8 17.07 17.78 17.08C17.76 17.08 17.74 17.08 17.73 17.07C17.7 17.04 17.68 17 17.66 16.96C17.63 16.93 17.61 16.89 17.59 16.85C17.57 16.81 17.55 16.77 17.53 16.73C17.52 16.69 17.5 16.65 17.48 16.61Z" />
		<path id="Layer" fill-rule="evenodd" class="shp0" d="M11.33 12.21C11.49 12.12 11.67 12.08 11.85 12.07C12.03 12.07 12.21 12.11 12.37 12.19C12.53 12.28 12.67 12.4 12.78 12.55C12.7 12.73 12.58 12.88 12.41 12.99C12.25 13.1 12.06 13.16 11.87 13.17C11.67 13.17 11.48 13.12 11.32 13.01C11.15 12.91 11.02 12.76 10.94 12.58C11.04 12.43 11.17 12.3 11.33 12.21ZM11.34 12.49C11.41 12.56 11.49 12.61 11.58 12.65C11.67 12.69 11.77 12.71 11.87 12.71C11.97 12.71 12.07 12.69 12.16 12.65C12.25 12.61 12.33 12.56 12.4 12.49C12.33 12.42 12.25 12.37 12.16 12.33C12.07 12.29 11.97 12.28 11.87 12.28C11.77 12.28 11.68 12.29 11.59 12.33C11.5 12.37 11.41 12.42 11.34 12.49Z" />
	</g>
</svg>