<svg xmlns="http://www.w3.org/2000/svg" viewBox="0 0 131 28" width="131" height="28">
	<style>
		tspan { white-space:pre }
		.shp0 { fill: #ffffff } 
	</style>
	<g id="Layer">
		<path id="Layer" fill-rule="evenodd" class="shp0" d="M102.92 12.03C102.29 12.27 101.59 12.24 100.98 11.96C100.37 11.68 99.89 11.17 99.66 10.53C99.43 9.9 99.46 9.2 99.74 8.59C100.03 7.98 100.55 7.51 101.18 7.28L115.2 2.16C115.83 1.92 116.53 1.95 117.14 2.23C117.75 2.51 118.23 3.02 118.46 3.66C118.69 4.29 118.66 4.99 118.38 5.6C118.09 6.21 117.58 6.68 116.94 6.91L102.92 12.03ZM102.92 19.6C102.29 19.84 101.59 19.81 100.98 19.53C100.37 19.25 99.89 18.74 99.66 18.1C99.43 17.47 99.46 16.77 99.74 16.16C100.03 15.55 100.55 15.08 101.18 14.85L115.19 9.73C115.82 9.49 116.52 9.52 117.13 9.8C117.74 10.08 118.22 10.59 118.45 11.23C118.68 11.86 118.65 12.56 118.37 13.17C118.08 13.78 117.57 14.25 116.93 14.48L102.92 19.6ZM102.92 27.18C102.29 27.41 101.59 27.39 100.98 27.1C100.37 26.82 99.89 26.31 99.66 25.68C99.43 25.04 99.46 24.35 99.74 23.73C100.03 23.12 100.55 22.65 101.18 22.42L115.19 17.3C115.82 17.07 116.52 17.09 117.13 17.37C117.74 17.65 118.22 18.17 118.45 18.8C118.68 19.43 118.65 20.13 118.37 20.74C118.08 21.35 117.57 21.82 116.93 22.05L102.92 27.18ZM11.97 9.97L20.49 9.97L20.49 12.29L14.98 12.29L14.98 14.3L20.27 14.3L20.27 16.7L14.98 16.7L14.98 18.77L20.58 18.77L20.58 21.1L11.97 21.1L11.97 9.97ZM33.74 9.97L36.77 9.97L36.77 21.11L33.74 21.11L33.74 9.97ZM47.84 10.34L47.64 12.72C45.19 11.31 41.44 11.76 41.37 15.44C41.3 19.12 45.24 19.69 47.73 18.43L47.88 20.86C43.48 22.23 38.22 20.86 38.24 15.42C38.25 9.98 43.57 8.71 47.84 10.34ZM56.77 10.16L56.56 12.48C55.03 11.64 52.13 11.58 52.13 12.94C52.13 14.89 57.3 13.48 57.3 17.66C57.3 21.84 52.38 21.82 49.22 20.86L49.45 18.4C51.45 19.31 54.28 19.54 54.28 17.92C54.28 16.11 49.08 17.15 49.08 13.17C49.08 9.91 53.13 9.04 56.79 10.14L56.77 10.16ZM65.92 10.16L65.72 12.48C64.19 11.64 61.29 11.58 61.29 12.94C61.29 14.89 66.46 13.48 66.46 17.66C66.46 21.84 61.53 21.82 58.31 20.86L58.53 18.4C60.53 19.31 63.37 19.54 63.37 17.92C63.37 16.11 58.16 17.15 58.16 13.17C58.16 9.91 62.21 9.04 65.88 10.14L65.92 10.16ZM79.88 9.97L83.73 9.97L87.4 17.16L87.4 9.97L90.19 9.97L90.19 21.11L86.56 21.11L82.7 13.79L82.7 21.11L79.88 21.11L79.88 9.97ZM72.9 9.71C76.05 9.71 78.45 11.52 78.45 15.57C78.45 19.4 76.03 21.38 72.9 21.38C69.76 21.38 67.39 19.45 67.39 15.6C67.39 11.75 69.74 9.71 72.9 9.71L72.9 9.71ZM70.46 15.6C70.46 17.3 71.19 19.23 72.89 19.23C74.59 19.23 75.31 17.32 75.31 15.6C75.31 14.07 74.59 11.97 72.89 11.97C71.19 11.97 70.46 13.89 70.46 15.6ZM22.7 9.98L28.15 9.98C29.63 9.98 31.7 10.63 31.7 12.94C31.73 13.25 31.71 13.55 31.63 13.85C31.55 14.15 31.42 14.43 31.24 14.67C31.07 14.92 30.84 15.14 30.59 15.31C30.33 15.47 30.05 15.59 29.75 15.66C29.87 15.71 29.98 15.77 30.09 15.85C30.2 15.92 30.3 16.01 30.38 16.11C30.47 16.2 30.55 16.31 30.61 16.42C30.67 16.54 30.72 16.66 30.76 16.79C30.79 16.91 32.32 21.13 32.34 21.14L29.14 21.14L27.99 17.79C27.96 17.67 27.91 17.56 27.84 17.45C27.77 17.35 27.69 17.26 27.59 17.18C27.49 17.1 27.38 17.04 27.26 17C27.14 16.96 27.02 16.94 26.89 16.94L25.67 16.94L25.67 21.14L22.7 21.14L22.7 9.98ZM25.6 14.7L27.26 14.7C27.61 14.73 27.96 14.62 28.22 14.38C28.48 14.14 28.62 13.81 28.62 13.45C28.62 13.1 28.48 12.77 28.22 12.53C27.96 12.29 27.61 12.18 27.26 12.21L25.6 12.21L25.6 14.7Z" />
	</g>
</svg>