<svg xmlns="http://www.w3.org/2000/svg" viewBox="0 0 124 28" width="124" height="28">
	<style>
		tspan { white-space:pre }
		.shp0 { fill: #ffffff } 
	</style>
	<g id="Layer">
		<path id="Layer" fill-rule="evenodd" class="shp0" d="M94.78 14L94.78 13.23L98.47 13.23L98.47 14.01L97.67 14.01C97.37 14.01 97.27 14.1 97.27 14.32L97.27 17.62C97.27 19.56 95.46 19.94 93.64 19.94C91.83 19.94 89.73 19.57 89.73 17.55L89.73 14.5C89.73 14.15 89.66 14.01 89.29 14.01L88.52 14.01L88.52 13.22L93.02 13.22L93.02 14.01L92.24 14.01C91.84 14.01 91.84 14.13 91.84 14.45L91.84 17.64C91.84 17.87 91.64 19.18 93.66 19.18C95.69 19.18 95.96 18.38 95.96 17.64L95.96 14.46C95.95 14.15 95.88 14.01 95.52 14.01L94.78 14ZM106.85 16L106.9 16.01C106.96 16.04 107.01 16.07 107.07 16.1C107.13 16.13 107.18 16.16 107.24 16.2C107.29 16.23 107.34 16.27 107.39 16.31C107.44 16.35 107.49 16.39 107.54 16.44C107.62 16.52 107.69 16.61 107.76 16.7C107.82 16.8 107.88 16.9 107.92 17.01C107.97 17.12 108 17.23 108.02 17.35C108.04 17.46 108.05 17.58 108.05 17.69C108.06 17.82 108.04 17.95 108.02 18.07C107.99 18.19 107.95 18.31 107.89 18.43C107.84 18.54 107.77 18.65 107.69 18.74C107.61 18.84 107.52 18.93 107.41 19C107.33 19.07 107.23 19.13 107.14 19.19C107.05 19.25 106.95 19.31 106.85 19.36C106.75 19.41 106.65 19.45 106.54 19.49C106.44 19.53 106.33 19.57 106.23 19.6C106.06 19.65 105.9 19.69 105.73 19.73C105.56 19.76 105.4 19.79 105.23 19.82C105.06 19.84 104.89 19.86 104.72 19.87C104.55 19.88 104.38 19.88 104.21 19.88C104.08 19.87 103.96 19.87 103.83 19.86C103.71 19.86 103.58 19.84 103.46 19.83C103.33 19.81 103.21 19.8 103.08 19.77C102.96 19.75 102.84 19.72 102.72 19.69C102.59 19.67 102.47 19.64 102.34 19.6C102.22 19.57 102.1 19.53 101.98 19.5C101.86 19.46 101.74 19.42 101.62 19.37C101.5 19.33 101.38 19.28 101.26 19.23C101.24 19.22 101.22 19.21 101.19 19.21C101.17 19.21 101.15 19.22 101.13 19.23C101.1 19.24 101.09 19.25 101.07 19.27C101.06 19.29 101.05 19.32 101.05 19.34L101.05 19.68L100.06 19.68L100.06 17.19L100.92 17.19C100.92 17.25 100.93 17.31 100.94 17.37C100.95 17.43 100.96 17.49 100.98 17.55C101 17.61 101.03 17.67 101.05 17.73C101.08 17.78 101.11 17.84 101.15 17.89C101.22 17.97 101.3 18.06 101.38 18.13C101.46 18.21 101.55 18.28 101.64 18.34C101.74 18.41 101.83 18.46 101.93 18.51C102.04 18.56 102.14 18.6 102.25 18.64C102.4 18.69 102.56 18.73 102.72 18.77C102.87 18.81 103.03 18.84 103.19 18.87C103.35 18.89 103.51 18.92 103.68 18.93C103.84 18.95 104 18.96 104.16 18.96C104.3 18.97 104.44 18.97 104.57 18.96C104.71 18.95 104.85 18.93 104.98 18.91C105.12 18.88 105.25 18.85 105.38 18.81C105.52 18.78 105.65 18.73 105.77 18.68C105.85 18.66 105.92 18.63 105.98 18.59C106.05 18.55 106.1 18.5 106.15 18.44C106.2 18.38 106.24 18.31 106.26 18.24C106.29 18.17 106.31 18.09 106.31 18.02C106.31 17.53 105.95 17.43 105.62 17.35C105.29 17.27 104.51 17.16 103.7 17.08C103.53 17.06 103.36 17.04 103.19 17.02C103.02 17 102.85 16.98 102.68 16.95C102.51 16.93 102.34 16.9 102.17 16.88C102.01 16.85 101.84 16.82 101.67 16.78C101.54 16.76 101.41 16.74 101.29 16.7C101.16 16.66 101.04 16.61 100.93 16.56C100.81 16.5 100.69 16.44 100.59 16.36C100.48 16.29 100.38 16.21 100.28 16.12C100.21 16.04 100.14 15.96 100.08 15.87C100.03 15.78 99.98 15.68 99.94 15.58C99.9 15.48 99.87 15.38 99.85 15.27C99.83 15.17 99.82 15.06 99.82 14.96C99.83 14.77 99.87 14.59 99.93 14.42C100 14.24 100.09 14.08 100.2 13.93C100.31 13.79 100.45 13.66 100.6 13.55C100.75 13.45 100.92 13.37 101.1 13.31C101.29 13.23 101.48 13.16 101.68 13.1C101.88 13.04 102.08 12.99 102.28 12.94C102.49 12.9 102.69 12.87 102.9 12.85C103.1 12.83 103.31 12.83 103.52 12.83C103.77 12.83 104.02 12.84 104.27 12.87C104.52 12.9 104.76 12.94 105.01 13C105.25 13.05 105.49 13.12 105.73 13.21C105.96 13.29 106.19 13.38 106.42 13.49C106.58 13.59 106.67 13.48 106.67 13.39L106.67 13.14L107.53 13.14L107.53 15.32L106.73 15.32C106.72 15.24 106.69 15.16 106.66 15.08C106.64 15 106.6 14.92 106.56 14.85C106.52 14.78 106.47 14.71 106.42 14.64C106.36 14.58 106.3 14.52 106.24 14.46C106.2 14.43 106.16 14.4 106.12 14.38C106.08 14.35 106.04 14.32 106 14.3C105.96 14.27 105.91 14.25 105.87 14.23C105.83 14.2 105.78 14.18 105.74 14.16C105.57 14.09 105.41 14.03 105.23 13.98C105.06 13.92 104.89 13.88 104.71 13.85C104.53 13.81 104.36 13.79 104.18 13.77C104 13.76 103.82 13.75 103.64 13.75C103.48 13.75 103.33 13.75 103.17 13.76C103.02 13.77 102.86 13.79 102.71 13.82C102.56 13.85 102.41 13.89 102.26 13.94C102.11 13.99 101.96 14.04 101.82 14.11C101.77 14.13 101.73 14.16 101.69 14.2C101.65 14.24 101.61 14.28 101.59 14.32C101.56 14.37 101.53 14.42 101.52 14.47C101.5 14.52 101.49 14.57 101.49 14.63C101.49 14.68 101.5 14.73 101.52 14.78C101.54 14.83 101.56 14.88 101.59 14.92C101.63 14.96 101.67 15 101.71 15.03C101.76 15.06 101.8 15.08 101.86 15.1C102.02 15.13 102.18 15.17 102.35 15.2C102.51 15.23 102.67 15.25 102.84 15.28C103 15.3 103.17 15.32 103.33 15.34C103.5 15.36 103.66 15.38 103.83 15.39C104.02 15.41 104.2 15.43 104.39 15.45C104.58 15.48 104.77 15.5 104.95 15.53C105.14 15.56 105.32 15.59 105.51 15.62C105.69 15.65 105.88 15.69 106.06 15.73C106.13 15.74 106.2 15.76 106.26 15.78C106.33 15.8 106.39 15.82 106.46 15.84C106.52 15.87 106.59 15.89 106.65 15.92C106.72 15.94 106.78 15.97 106.84 16L106.85 16ZM113.05 18.75L114.13 18.75L114.13 19.51L109.73 19.51L109.73 18.72L110.72 18.72C110.74 18.71 110.76 18.71 110.78 18.7C110.79 18.69 110.81 18.68 110.82 18.66C110.84 18.65 110.85 18.64 110.86 18.62C110.88 18.61 110.89 18.59 110.89 18.57L110.89 14.16C110.89 14.14 110.88 14.12 110.87 14.11C110.85 14.09 110.84 14.08 110.83 14.06C110.81 14.05 110.79 14.04 110.78 14.03C110.76 14.02 110.74 14.01 110.72 14.01L109.73 14.01L109.73 13.23L114.12 13.23L114.12 14.02L113.08 14.02C113.06 14.02 113.04 14.03 113.02 14.04C113 14.05 112.99 14.06 112.97 14.07C112.96 14.08 112.95 14.1 112.93 14.11C112.92 14.13 112.91 14.15 112.9 14.16L112.9 18.6C112.91 18.61 112.92 18.63 112.93 18.64C112.94 18.66 112.96 18.67 112.97 18.69C112.98 18.7 113 18.71 113.02 18.72C113.03 18.73 113.05 18.73 113.07 18.74L113.05 18.75ZM124.07 17.29L124.07 17.34C124.02 17.55 123.95 17.76 123.86 17.96C123.76 18.15 123.65 18.34 123.52 18.51C123.39 18.69 123.24 18.85 123.08 18.99C122.91 19.13 122.74 19.26 122.55 19.37C122.31 19.48 122.06 19.58 121.81 19.66C121.55 19.75 121.3 19.81 121.03 19.85C120.77 19.9 120.51 19.92 120.24 19.93C119.98 19.94 119.71 19.92 119.45 19.89C119.17 19.87 118.89 19.83 118.62 19.77C118.35 19.71 118.09 19.63 117.83 19.52C117.57 19.42 117.33 19.29 117.09 19.15C116.85 19.01 116.62 18.85 116.41 18.67C116.26 18.53 116.12 18.38 116 18.22C115.88 18.06 115.78 17.89 115.69 17.71C115.6 17.52 115.53 17.33 115.49 17.14C115.44 16.94 115.4 16.74 115.39 16.54L115.39 16.36C115.39 16.2 115.4 16.05 115.43 15.9C115.45 15.75 115.48 15.6 115.53 15.46C115.57 15.31 115.62 15.17 115.69 15.03C115.75 14.89 115.83 14.76 115.91 14.63C115.95 14.58 115.98 14.53 116.02 14.47C116.06 14.42 116.1 14.37 116.14 14.32C116.19 14.28 116.23 14.23 116.27 14.18C116.32 14.13 116.36 14.09 116.41 14.05C116.67 13.85 116.94 13.67 117.23 13.51C117.51 13.36 117.81 13.23 118.12 13.13C118.43 13.02 118.74 12.94 119.06 12.89C119.38 12.84 119.71 12.81 120.03 12.81L120.2 12.81C120.45 12.82 120.69 12.83 120.93 12.87C121.17 12.9 121.41 12.95 121.64 13.01C121.88 13.07 122.11 13.15 122.33 13.24C122.56 13.33 122.78 13.44 122.99 13.55C123 13.56 123.02 13.57 123.03 13.57C123.05 13.58 123.06 13.58 123.08 13.58C123.1 13.58 123.11 13.58 123.13 13.57C123.14 13.57 123.16 13.56 123.17 13.55L123.24 13.44L123.24 13.19L124.1 13.19L124.1 15.54L123.24 15.54C123.2 15.4 123.15 15.27 123.08 15.13C123.02 15 122.94 14.88 122.85 14.76C122.76 14.65 122.66 14.54 122.55 14.45C122.43 14.35 122.31 14.26 122.19 14.19C122.04 14.12 121.89 14.05 121.73 13.99C121.58 13.93 121.42 13.89 121.25 13.85C121.09 13.81 120.93 13.79 120.76 13.77C120.6 13.75 120.43 13.75 120.26 13.75L120.12 13.75C119.94 13.75 119.76 13.77 119.59 13.8C119.41 13.83 119.24 13.88 119.07 13.94C118.91 14.01 118.75 14.09 118.6 14.18C118.45 14.27 118.3 14.38 118.17 14.5C117.83 14.84 117.59 15.26 117.47 15.72C117.35 16.18 117.36 16.67 117.5 17.13C117.64 17.59 117.91 18 118.27 18.31C118.62 18.63 119.06 18.84 119.53 18.92C119.57 18.93 119.61 18.94 119.65 18.94C119.68 18.95 119.72 18.96 119.76 18.96C119.79 18.97 119.83 18.97 119.87 18.97C119.91 18.98 119.94 18.98 119.98 18.98L120.18 18.98C120.35 18.99 120.51 18.98 120.67 18.97C120.84 18.95 121 18.93 121.16 18.89C121.32 18.86 121.48 18.81 121.63 18.76C121.79 18.7 121.94 18.64 122.09 18.56C122.21 18.49 122.34 18.42 122.45 18.33C122.56 18.24 122.67 18.14 122.76 18.03C122.86 17.92 122.94 17.8 123.01 17.68C123.09 17.55 123.15 17.42 123.2 17.29L124.07 17.29ZM83.35 13.21L87.25 13.21L87.25 14L86.56 14C86.03 14 86.03 14.28 86.03 14.52L86.03 18.22C86.03 18.45 86.01 18.75 86.33 18.75L87.19 18.75L87.19 19.54L83.03 19.54L83.03 18.74L83.71 18.74C84.09 18.74 84.09 18.59 84.09 18.23L84.09 14.21L81.7 19.54L80.34 19.54L77.94 14.21L77.94 18.24C77.95 18.59 77.97 18.75 78.32 18.75L79 18.75L79 19.54L75.54 19.54L75.54 18.75L76.4 18.75C76.7 18.75 76.7 18.45 76.7 18.22L76.7 14.52C76.7 14.28 76.67 14 76.17 14L75.48 14L75.48 13.21L79.6 13.21L81.47 17.35L83.35 13.21ZM56.6 14L56.6 13.22L60.4 13.22L60.4 14L59.6 14C59.2 14 59.2 14.13 59.2 14.5L59.27 19.54L57.99 19.54L52.98 15.07L52.98 18.24C52.99 18.59 53.01 18.75 53.36 18.75L54.22 18.75L54.22 19.54L50.58 19.54L50.58 18.75L51.44 18.75C51.74 18.75 51.74 18.45 51.74 18.22L51.74 14.52C51.74 14.28 51.7 14 51.2 14L50.51 14L50.51 13.21L53.61 13.21L57.92 17.13L57.88 14.49C57.88 14.14 57.81 14 57.44 14L56.6 14ZM37.38 15.93C37.44 15.96 37.5 15.99 37.56 16.02C37.61 16.05 37.67 16.08 37.72 16.12C37.78 16.15 37.83 16.19 37.88 16.23C37.93 16.27 37.98 16.32 38.02 16.36C38.11 16.45 38.18 16.54 38.25 16.64C38.31 16.74 38.37 16.84 38.41 16.95C38.45 17.06 38.49 17.18 38.51 17.29C38.53 17.41 38.54 17.53 38.54 17.64C38.54 17.77 38.53 17.9 38.5 18.02C38.47 18.14 38.43 18.26 38.38 18.38C38.32 18.49 38.25 18.6 38.17 18.69C38.09 18.79 38 18.88 37.9 18.95C37.81 19.02 37.72 19.09 37.62 19.15C37.53 19.2 37.43 19.26 37.33 19.31C37.23 19.36 37.13 19.4 37.02 19.44C36.92 19.48 36.81 19.52 36.7 19.55C36.54 19.6 36.38 19.64 36.21 19.68C36.04 19.71 35.88 19.74 35.71 19.77C35.54 19.79 35.37 19.81 35.2 19.82C35.03 19.83 34.86 19.83 34.69 19.83C34.57 19.83 34.44 19.82 34.31 19.81C34.19 19.81 34.06 19.8 33.94 19.78C33.81 19.77 33.69 19.75 33.56 19.72C33.44 19.7 33.32 19.68 33.19 19.64C33.07 19.62 32.95 19.59 32.82 19.55C32.7 19.52 32.58 19.49 32.46 19.45C32.34 19.41 32.22 19.37 32.1 19.32C31.98 19.28 31.86 19.23 31.75 19.18C31.72 19.18 31.7 19.18 31.68 19.18C31.66 19.19 31.64 19.2 31.62 19.21C31.61 19.23 31.6 19.25 31.59 19.27C31.58 19.29 31.58 19.31 31.58 19.33L31.58 19.67L30.59 19.67L30.59 17.18L31.45 17.18C31.45 17.24 31.46 17.3 31.47 17.36C31.48 17.42 31.49 17.48 31.51 17.54C31.53 17.6 31.55 17.66 31.58 17.72C31.61 17.77 31.64 17.83 31.68 17.88C31.75 17.96 31.82 18.05 31.91 18.12C31.99 18.2 32.08 18.27 32.17 18.33C32.26 18.4 32.36 18.45 32.46 18.5C32.56 18.55 32.67 18.59 32.78 18.63C32.94 18.68 33.1 18.72 33.26 18.76C33.42 18.8 33.59 18.83 33.75 18.86C33.92 18.89 34.08 18.91 34.25 18.93C34.42 18.94 34.58 18.95 34.75 18.95C34.89 18.96 35.02 18.96 35.16 18.95C35.3 18.94 35.44 18.92 35.57 18.9C35.71 18.87 35.84 18.84 35.97 18.81C36.1 18.77 36.23 18.72 36.36 18.67C36.44 18.65 36.51 18.62 36.57 18.58C36.63 18.54 36.69 18.49 36.74 18.43C36.79 18.37 36.83 18.3 36.85 18.23C36.88 18.16 36.89 18.08 36.9 18.01C36.9 17.53 36.53 17.45 36.21 17.37C35.88 17.29 35.1 17.21 34.28 17.13C33.46 17.04 32.64 16.91 32.26 16.83C32.13 16.81 32 16.78 31.88 16.73C31.75 16.69 31.63 16.64 31.51 16.58C31.39 16.53 31.28 16.46 31.17 16.38C31.07 16.3 30.97 16.22 30.87 16.13C30.8 16.05 30.73 15.96 30.67 15.87C30.62 15.78 30.57 15.69 30.53 15.59C30.49 15.49 30.46 15.38 30.44 15.28C30.42 15.17 30.41 15.06 30.41 14.96C30.42 14.77 30.46 14.59 30.52 14.42C30.59 14.24 30.68 14.08 30.79 13.93C30.9 13.79 31.04 13.66 31.19 13.55C31.34 13.45 31.51 13.37 31.69 13.31C31.88 13.23 32.07 13.16 32.27 13.1C32.47 13.04 32.67 12.99 32.87 12.94C33.08 12.9 33.28 12.87 33.49 12.85C33.69 12.83 33.9 12.83 34.11 12.83C34.36 12.83 34.61 12.84 34.86 12.87C35.11 12.9 35.35 12.94 35.6 13C35.84 13.05 36.08 13.12 36.32 13.21C36.55 13.29 36.78 13.38 37.01 13.49C37.16 13.59 37.25 13.48 37.25 13.39L37.25 13.14L38.12 13.14L38.12 15.34L37.32 15.34C37.3 15.26 37.28 15.18 37.25 15.1C37.22 15.02 37.19 14.94 37.14 14.87C37.1 14.8 37.06 14.73 37 14.66C36.95 14.6 36.89 14.54 36.83 14.48C36.79 14.45 36.75 14.42 36.71 14.4C36.67 14.37 36.63 14.34 36.59 14.32C36.54 14.29 36.5 14.27 36.46 14.25C36.42 14.22 36.37 14.2 36.33 14.18C36.16 14.11 35.99 14.05 35.82 14C35.65 13.94 35.48 13.9 35.3 13.87C35.12 13.83 34.95 13.81 34.77 13.79C34.59 13.78 34.41 13.77 34.23 13.77C34.07 13.77 33.92 13.77 33.76 13.78C33.61 13.79 33.45 13.81 33.3 13.84C33.15 13.87 32.99 13.91 32.85 13.96C32.7 14.01 32.55 14.06 32.41 14.13C32.36 14.15 32.32 14.18 32.28 14.22C32.24 14.26 32.2 14.3 32.17 14.34C32.15 14.39 32.12 14.44 32.1 14.49C32.09 14.54 32.08 14.59 32.07 14.64C32.08 14.7 32.09 14.75 32.11 14.79C32.13 14.84 32.15 14.89 32.19 14.93C32.22 14.97 32.26 15 32.3 15.03C32.35 15.05 32.39 15.07 32.45 15.08C32.61 15.12 32.77 15.15 32.94 15.18C33.1 15.2 33.26 15.23 33.43 15.25C33.59 15.27 33.76 15.29 33.92 15.31C34.09 15.33 34.25 15.34 34.42 15.36C34.61 15.37 34.79 15.4 34.97 15.42C35.16 15.44 35.34 15.47 35.53 15.5C35.71 15.52 35.9 15.55 36.08 15.59C36.26 15.62 36.44 15.65 36.63 15.69C36.69 15.71 36.76 15.73 36.83 15.74C36.89 15.76 36.96 15.78 37.02 15.81C37.09 15.83 37.15 15.85 37.21 15.88C37.28 15.9 37.34 15.93 37.4 15.96L37.38 15.93ZM67.19 14.01L67.19 13.22L70.7 13.22L70.7 14.01L69.9 14.01C69.84 14 69.78 14.01 69.72 14.02C69.66 14.03 69.61 14.05 69.55 14.07C69.5 14.1 69.45 14.13 69.4 14.17C69.36 14.21 69.32 14.26 69.28 14.31L66.88 17.05L66.88 18.6C66.89 18.62 66.9 18.63 66.91 18.65C66.92 18.67 66.94 18.68 66.95 18.69C66.97 18.71 66.98 18.72 67 18.73C67.02 18.74 67.04 18.74 67.05 18.75L68.13 18.75L68.13 19.53L63.82 19.53L63.82 18.74L64.79 18.74C64.81 18.73 64.83 18.72 64.85 18.72C64.86 18.71 64.88 18.69 64.9 18.68C64.91 18.67 64.92 18.66 64.94 18.64C64.95 18.62 64.96 18.61 64.97 18.59L64.97 17.17C64.97 17.14 64.97 17.17 64.91 17.06C64.86 16.94 62.65 14.47 62.54 14.36C62.5 14.3 62.46 14.26 62.41 14.21C62.35 14.17 62.3 14.14 62.24 14.11C62.18 14.08 62.12 14.05 62.06 14.03C61.99 14.02 61.93 14.01 61.86 14L61.09 14L61.09 13.27L65.49 13.27L65.49 14.06L64.96 14.06C64.93 14.05 64.9 14.06 64.88 14.08C64.85 14.09 64.84 14.11 64.82 14.14C64.81 14.17 64.81 14.2 64.82 14.22C64.82 14.25 64.84 14.28 64.86 14.3L66.33 16.02L67.85 14.25C67.87 14.22 67.88 14.19 67.88 14.17C67.88 14.14 67.87 14.11 67.86 14.09C67.85 14.06 67.83 14.04 67.8 14.03C67.78 14.01 67.75 14 67.72 14L67.19 14.01ZM45.76 12.86C46.09 12.9 46.42 12.98 46.74 13.08C47.06 13.19 47.37 13.33 47.66 13.49C47.95 13.66 48.23 13.85 48.49 14.07C48.65 14.22 48.79 14.38 48.92 14.55C49.04 14.73 49.15 14.92 49.23 15.11C49.32 15.31 49.38 15.52 49.43 15.73C49.47 15.94 49.49 16.15 49.49 16.37C49.49 16.59 49.47 16.8 49.42 17.01C49.38 17.22 49.31 17.43 49.23 17.63C49.14 17.83 49.03 18.01 48.91 18.19C48.79 18.37 48.65 18.53 48.49 18.68C48.23 18.89 47.95 19.08 47.66 19.25C47.36 19.41 47.05 19.54 46.73 19.65C46.41 19.76 46.09 19.83 45.75 19.88C45.42 19.93 45.08 19.94 44.75 19.93C44.41 19.94 44.08 19.92 43.75 19.87C43.42 19.83 43.09 19.75 42.77 19.64C42.45 19.54 42.15 19.4 41.85 19.24C41.56 19.08 41.28 18.89 41.02 18.68C40.86 18.53 40.72 18.37 40.59 18.2C40.46 18.02 40.35 17.83 40.27 17.63C40.18 17.44 40.11 17.23 40.07 17.02C40.03 16.8 40 16.59 40.01 16.37C40.01 16.15 40.03 15.94 40.07 15.72C40.12 15.51 40.18 15.31 40.27 15.11C40.36 14.91 40.46 14.72 40.59 14.54C40.72 14.37 40.86 14.2 41.02 14.06C41.28 13.85 41.56 13.67 41.86 13.51C42.15 13.35 42.46 13.22 42.78 13.12C43.09 13.01 43.42 12.93 43.75 12.88C44.08 12.83 44.41 12.81 44.75 12.82C45.08 12.8 45.42 12.81 45.76 12.86ZM46.75 18.22L46.7 18.22C46.83 18.1 46.93 17.97 47.03 17.82C47.12 17.68 47.2 17.53 47.26 17.37C47.33 17.21 47.37 17.05 47.4 16.88C47.43 16.71 47.44 16.54 47.44 16.37C47.44 16.2 47.43 16.03 47.41 15.86C47.38 15.69 47.34 15.53 47.28 15.37C47.22 15.21 47.14 15.05 47.06 14.91C46.97 14.77 46.86 14.63 46.75 14.5C46.47 14.26 46.16 14.07 45.82 13.94C45.47 13.81 45.11 13.74 44.74 13.74C44.38 13.74 44.01 13.81 43.67 13.94C43.33 14.07 43.01 14.26 42.74 14.5C42.5 14.75 42.32 15.05 42.2 15.36C42.07 15.68 42.01 16.02 42.01 16.36C42.01 16.7 42.07 17.04 42.2 17.36C42.32 17.68 42.5 17.97 42.74 18.22C43.01 18.47 43.33 18.66 43.67 18.79C44.01 18.93 44.38 18.99 44.74 18.99C45.11 18.99 45.47 18.93 45.82 18.79C46.16 18.66 46.47 18.47 46.75 18.22ZM25.03 11.69L25 11.61C25.03 12.09 24.95 12.44 24.95 13.03L24.95 12.97C24.81 12.98 24.74 13.12 24.81 13.32C24.88 13.51 24.75 13.75 24.75 13.94C24.87 13.97 24.87 13.82 24.92 13.77C24.91 13.83 24.91 13.89 24.9 13.95C24.89 14.01 24.88 14.07 24.86 14.13C24.85 14.19 24.83 14.25 24.81 14.31C24.79 14.37 24.77 14.42 24.75 14.48C24.74 14.51 24.73 14.54 24.73 14.57C24.72 14.59 24.72 14.62 24.72 14.65C24.72 14.68 24.72 14.71 24.73 14.74C24.73 14.77 24.74 14.8 24.75 14.82C24.73 14.84 24.72 14.85 24.71 14.87C24.69 14.89 24.69 14.9 24.68 14.92C24.67 14.94 24.67 14.96 24.67 14.98C24.66 15 24.66 15.02 24.67 15.04C24.63 15.14 24.6 15.25 24.56 15.36C24.53 15.46 24.5 15.57 24.47 15.67C24.44 15.78 24.42 15.89 24.39 16C24.37 16.11 24.35 16.21 24.33 16.32C24.5 16.44 24.57 15.81 24.69 15.81C24.66 15.87 24.62 15.94 24.59 16.01C24.55 16.08 24.53 16.15 24.5 16.22C24.47 16.3 24.45 16.37 24.43 16.44C24.41 16.52 24.4 16.59 24.38 16.67C24.13 16.83 24.16 17.13 24.01 17.43C23.88 17.39 24.01 17.24 24.01 17.19L23.96 17.19C23.96 17.18 23.95 17.18 23.95 17.18C23.94 17.18 23.93 17.18 23.92 17.18C23.91 17.18 23.91 17.18 23.9 17.19C23.86 17.23 23.82 17.28 23.79 17.33C23.76 17.38 23.73 17.44 23.7 17.49C23.68 17.55 23.66 17.6 23.64 17.66C23.63 17.72 23.61 17.78 23.61 17.84C23.49 17.6 23.75 17.32 23.83 17.11C23.92 16.89 24.01 16.68 24.12 16.46C24.15 16.4 24.18 16.34 24.21 16.27C24.24 16.2 24.26 16.14 24.28 16.07C24.3 16 24.32 15.93 24.33 15.86C24.34 15.79 24.35 15.72 24.36 15.65C24.36 15.38 24.25 15.65 24.17 15.65C24.17 15.94 23.96 16.11 23.9 16.28C23.84 16.45 23.66 16.56 23.66 16.77C23.61 16.81 23.57 16.85 23.53 16.9C23.49 16.95 23.45 16.99 23.42 17.05C23.39 17.1 23.36 17.15 23.34 17.21C23.32 17.27 23.3 17.32 23.29 17.38C23.29 17.44 23.16 17.64 23.29 17.64C23.3 17.64 23.31 17.63 23.32 17.63C23.33 17.62 23.34 17.61 23.34 17.6C23.34 17.6 23.35 17.6 23.35 17.6C23.35 17.6 23.35 17.6 23.35 17.6C23.35 17.59 23.35 17.59 23.35 17.58C23.35 17.59 23.35 17.59 23.35 17.6C23.32 17.81 23.03 18.03 23.03 18.26C22.81 18.38 22.81 18.69 22.68 18.88C22.56 18.79 22.68 18.51 22.68 18.39C22.57 18.61 22.41 18.9 22.28 19.14C22.26 19.16 22.25 19.17 22.24 19.19C22.24 19.19 22.23 19.2 22.23 19.21C22.38 18.93 22.77 18.33 22.6 18.09C22.51 18 22.34 18.45 22.34 18.45C22.33 18.46 22.33 18.48 22.33 18.49C22.33 18.51 22.32 18.52 22.32 18.54C22.32 18.55 22.33 18.57 22.33 18.59C22.33 18.6 22.33 18.62 22.34 18.63C22.33 18.63 22.31 18.64 22.3 18.65C22.29 18.66 22.28 18.67 22.27 18.68C22.26 18.69 22.25 18.71 22.25 18.72C22.24 18.74 22.24 18.75 22.25 18.77C22.22 18.79 22.2 18.82 22.17 18.85C22.15 18.88 22.13 18.91 22.11 18.94C22.09 18.97 22.07 19 22.05 19.03C22.03 19.06 22.01 19.09 22 19.12C21.78 19.49 21.55 19.8 21.34 20.2C21.33 20.21 21.32 20.23 21.31 20.24C21.31 20.26 21.3 20.28 21.3 20.29C21.29 20.31 21.29 20.33 21.29 20.35C21.29 20.36 21.29 20.38 21.29 20.4C21.28 20.39 21.27 20.38 21.26 20.37C21.25 20.36 21.24 20.35 21.23 20.34C21.21 20.33 21.2 20.32 21.19 20.31C21.18 20.3 21.17 20.29 21.16 20.29C21.16 20.44 20.86 20.71 20.86 20.87C20.86 21.04 20.77 21.09 20.74 21.1C20.7 21.11 20.42 21.24 20.66 21.24L20.72 21.24C20.78 21.24 20.75 21.11 20.78 21.24C20.81 21.37 20.62 21.51 20.53 21.61C20.63 21.74 20.6 21.74 20.38 21.74C20.26 21.76 20.34 21.98 20.26 22.05C20.19 22.13 20.02 22.22 20.02 22.31C19.82 22.51 19.63 22.62 19.55 22.9C19.4 22.73 19.85 22.35 19.98 22.3C19.97 22.18 20.07 22.13 20.12 22.04C20.17 21.96 19.98 21.82 19.93 21.96C19.91 22 19.89 22.04 19.87 22.07C19.85 22.11 19.82 22.14 19.8 22.18C19.77 22.21 19.74 22.24 19.71 22.27C19.68 22.3 19.65 22.33 19.62 22.36C19.38 22.59 19.02 22.93 18.95 23C18.87 23.08 18.8 23.13 18.72 23.21C18.63 23.31 18.54 23.4 18.44 23.5C18.34 23.59 18.24 23.68 18.14 23.77C18.04 23.86 17.94 23.94 17.83 24.02C17.72 24.1 17.62 24.18 17.5 24.26C17.25 24.42 16.87 24.64 16.59 24.78C16.44 24.85 16.33 24.96 16.23 25.01C16.13 25.07 16.02 25.08 15.94 25.19C15.87 25.09 16.52 24.73 16.58 24.73C16.62 24.7 16.65 24.68 16.68 24.65C16.72 24.63 16.76 24.6 16.79 24.58C16.83 24.56 16.86 24.54 16.9 24.52C16.94 24.49 16.98 24.47 17.01 24.45C17.06 24.43 17.1 24.41 17.15 24.38C17.19 24.35 17.23 24.32 17.27 24.29C17.31 24.26 17.34 24.22 17.37 24.18C17.41 24.14 17.44 24.1 17.46 24.05C17.34 23.99 16.69 24.4 16.55 24.47C16.22 24.62 15.97 24.82 15.69 24.98C15.6 25.01 15.52 25.03 15.45 25.07C15.37 25.1 15.29 25.13 15.21 25.16C15.13 25.2 15.05 25.23 14.98 25.27C14.9 25.3 14.82 25.34 14.75 25.38C14.67 25.43 14.6 25.48 14.52 25.53C14.44 25.58 14.36 25.62 14.28 25.66C14.2 25.71 14.12 25.75 14.04 25.78C13.96 25.82 13.87 25.85 13.79 25.89C13.83 25.81 13.95 25.82 13.95 25.72C13.81 25.67 13.44 25.86 13.18 25.94C13.14 25.95 12.59 26.21 12.59 26.12C12.61 26.1 12.63 26.08 12.65 26.06C12.67 26.04 12.69 26.02 12.72 26C12.74 25.99 12.77 25.97 12.79 25.96C12.81 25.94 12.84 25.93 12.87 25.92C12.67 25.85 12.31 26.12 12.08 26.12C12.04 26.12 12.01 26.12 11.97 26.12C11.93 26.13 11.89 26.13 11.86 26.14C11.82 26.15 11.78 26.16 11.75 26.17C11.71 26.19 11.68 26.2 11.64 26.22C11.5 26.31 11.42 26.36 11.33 26.31C11.24 26.27 10.82 26.49 10.66 26.49C10.6 26.51 10.54 26.53 10.47 26.55C10.41 26.57 10.35 26.6 10.29 26.61C10.23 26.63 10.16 26.65 10.1 26.67C10.04 26.69 9.97 26.7 9.91 26.72C9.87 26.48 10.45 26.46 10.63 26.37C10.44 26.21 10.02 26.43 9.76 26.49C9.72 26.49 9.69 26.49 9.65 26.49C9.61 26.49 9.57 26.49 9.53 26.49C9.49 26.49 9.45 26.49 9.41 26.49C9.37 26.49 9.34 26.49 9.3 26.49C9.12 26.51 8.91 26.58 8.74 26.58C8.81 26.5 9.17 26.46 9.3 26.38C9.43 26.3 9.55 26.36 9.7 26.3C9.85 26.24 9.94 26.28 10.05 26.17C10.06 26.16 10.08 26.15 10.09 26.14C10.1 26.12 10.12 26.11 10.13 26.1C10.15 26.09 10.16 26.08 10.18 26.07C10.19 26.06 10.21 26.04 10.22 26.03C10.25 26.01 10.29 25.99 10.32 25.98C10.35 25.96 10.39 25.94 10.42 25.92C10.46 25.91 10.49 25.89 10.53 25.88C10.56 25.86 10.6 25.85 10.64 25.83C10.98 25.71 11.34 25.64 11.68 25.51C11.71 25.49 11.75 25.48 11.78 25.46C11.82 25.45 11.85 25.43 11.88 25.41C11.91 25.39 11.95 25.37 11.98 25.35C12.01 25.33 12.04 25.31 12.07 25.28C12.14 25.31 11.93 25.45 11.93 25.52C12.02 25.5 12.1 25.48 12.19 25.46C12.21 25.46 12.24 25.45 12.26 25.44C12.26 25.46 12.26 25.48 12.26 25.5L12.38 25.5C12.38 25.49 12.39 25.48 12.39 25.47C12.39 25.46 12.39 25.45 12.39 25.44C12.39 25.43 12.39 25.42 12.39 25.41C12.39 25.41 12.39 25.41 12.39 25.4C12.4 25.4 12.42 25.39 12.44 25.39C12.52 25.36 12.6 25.32 12.68 25.29C12.76 25.25 12.84 25.21 12.91 25.17C12.97 25.14 13.02 25.1 13.07 25.07C13.13 25.04 13.18 25.01 13.24 24.97C13.29 24.94 13.35 24.91 13.41 24.88C13.46 24.86 13.52 24.83 13.58 24.8C13.66 24.76 13.74 24.73 13.83 24.69C13.91 24.65 13.99 24.61 14.08 24.57C14.16 24.53 14.24 24.48 14.32 24.44C14.4 24.39 14.48 24.35 14.56 24.3C14.63 24.27 14.69 24.24 14.75 24.21C14.82 24.18 14.88 24.14 14.94 24.11C15 24.07 15.06 24.03 15.11 23.98C15.17 23.94 15.22 23.89 15.27 23.84C15.2 23.78 14.89 23.94 14.77 23.94C14.75 23.95 14.72 23.95 14.69 23.96C14.66 23.97 14.64 23.98 14.61 23.99C14.58 24 14.56 24.01 14.53 24.03C14.5 24.04 14.48 24.06 14.46 24.07C14.32 24.13 14.21 24.12 14.16 24.24C14.13 24.26 14.1 24.27 14.07 24.29C14.04 24.31 14.01 24.32 13.98 24.34C13.95 24.35 13.92 24.36 13.89 24.37C13.86 24.38 13.83 24.39 13.79 24.4C13.71 24.44 13.62 24.49 13.53 24.53C13.44 24.57 13.35 24.61 13.26 24.65C13.17 24.69 13.08 24.73 12.98 24.77C12.89 24.8 12.8 24.84 12.71 24.87C12.63 24.89 12.55 24.91 12.47 24.93C12.39 24.95 12.31 24.98 12.24 25C12.16 25.03 12.08 25.05 12 25.08C11.93 25.11 11.85 25.14 11.78 25.17C11.42 25.25 11.15 25.6 10.86 25.56C10.56 25.53 10.48 25.72 10.25 25.72C10.22 25.73 10.18 25.74 10.14 25.75C10.1 25.76 10.06 25.77 10.02 25.79C9.98 25.8 9.94 25.82 9.91 25.83C9.87 25.85 9.83 25.87 9.8 25.89C9.75 25.9 9.7 25.92 9.65 25.93C9.6 25.94 9.54 25.96 9.49 25.97C9.44 25.99 9.4 26.01 9.35 26.02C9.3 26.04 9.25 26.06 9.2 26.08C9.06 26.17 8.92 26.1 8.78 26.17C8.65 26.25 8.36 26.24 8.2 26.33C8.03 26.23 8.03 26.4 8.03 26.48C8.01 26.47 8 26.47 7.99 26.47C7.98 26.47 7.97 26.46 7.96 26.46C7.95 26.46 7.94 26.45 7.93 26.44C7.92 26.44 7.91 26.43 7.9 26.42C7.84 26.37 7.75 26.33 7.75 26.48C7.74 26.5 7.73 26.52 7.71 26.54C7.69 26.56 7.67 26.57 7.65 26.58C7.63 26.59 7.61 26.6 7.59 26.6C7.56 26.61 7.54 26.61 7.52 26.61C7.43 26.57 7.52 26.7 7.52 26.7C7.63 26.92 7.69 26.7 7.84 26.7C7.86 26.7 7.88 26.71 7.9 26.71C7.92 26.71 7.95 26.71 7.97 26.71C7.99 26.71 8.01 26.71 8.04 26.71C8.06 26.71 8.08 26.7 8.1 26.7C8.13 26.69 8.16 26.68 8.19 26.67C8.21 26.67 8.24 26.67 8.27 26.67C8.3 26.67 8.33 26.67 8.36 26.67C8.39 26.68 8.41 26.69 8.44 26.7C8.39 26.73 8.34 26.75 8.29 26.77C8.24 26.79 8.19 26.8 8.14 26.82C8.09 26.83 8.03 26.84 7.98 26.85C7.93 26.85 7.87 26.86 7.82 26.86C7.74 26.86 7.67 26.93 7.61 26.86C7.55 26.79 7.43 26.86 7.31 26.86C7.3 26.86 7.28 26.87 7.26 26.87C7.24 26.88 7.22 26.89 7.2 26.89C7.18 26.89 7.17 26.9 7.15 26.9C7.13 26.9 7.11 26.91 7.09 26.91C7.04 26.9 6.99 26.9 6.95 26.9C6.9 26.91 6.85 26.91 6.81 26.91C6.76 26.92 6.71 26.93 6.67 26.94C6.62 26.95 6.57 26.96 6.53 26.98C6.49 26.99 6.45 27 6.41 27.01C6.37 27.02 6.33 27.03 6.3 27.04C6.26 27.05 6.22 27.06 6.18 27.06C6.14 27.07 6.1 27.07 6.05 27.08C5.97 27.12 5.98 27.08 5.97 27.08L5.84 27.08C5.74 27.1 5.65 27.11 5.55 27.12C5.45 27.14 5.36 27.15 5.26 27.16C5.16 27.16 5.06 27.17 4.97 27.17C4.87 27.18 4.77 27.18 4.67 27.18C4.67 27.03 5.4 26.97 5.54 26.97C5.67 26.97 5.92 27.06 6.05 26.97C6.06 26.96 6.07 26.96 6.09 26.96C6.1 26.95 6.12 26.95 6.13 26.95C6.15 26.95 6.16 26.95 6.18 26.96C6.19 26.96 6.2 26.96 6.22 26.97L6.37 26.97C6.34 26.65 5.43 26.88 5.27 26.88C5.16 26.89 5.05 26.9 4.94 26.91C4.83 26.92 4.72 26.93 4.61 26.93C4.5 26.94 4.39 26.94 4.28 26.94C4.17 26.94 4.06 26.94 3.95 26.94C3.89 26.93 3.83 26.93 3.77 26.93C3.7 26.93 3.64 26.93 3.58 26.93C3.52 26.93 3.46 26.93 3.4 26.93C3.33 26.93 3.27 26.93 3.21 26.94L1.74 26.94L1.48 27.01C1.3 27.09 1.26 27.06 1.35 26.92L1.11 26.92C1.17 26.82 1.49 26.84 1.49 26.82C1.49 26.81 1.64 26.68 1.49 26.68C1.35 26.68 1.25 26.59 1.49 26.59C1.53 26.59 1.56 26.58 1.6 26.58C1.63 26.58 1.67 26.58 1.71 26.58C1.74 26.58 1.78 26.58 1.81 26.58C1.85 26.58 1.88 26.59 1.92 26.59C1.88 26.41 1.61 26.46 1.37 26.46C1.35 26.46 1.32 26.47 1.3 26.47C1.28 26.47 1.25 26.47 1.23 26.47C1.2 26.47 1.18 26.47 1.15 26.47C1.13 26.47 1.1 26.46 1.08 26.46C1.3 26.26 1.11 26.34 0.96 26.26C1.03 26.18 1.25 26.1 1.2 26.1C1.18 26.1 0.94 26.1 0.93 26.1C0.91 26.1 0.9 26.1 0.89 26.1C0.87 26.1 0.86 26.1 0.84 26.1C0.83 26.1 0.82 26.1 0.8 26.1C0.96 25.89 1.29 26.04 1.4 25.78C1.36 25.76 1.32 25.75 1.27 25.75C1.23 25.74 1.19 25.74 1.14 25.74C1.1 25.74 1.05 25.74 1.01 25.75C0.96 25.75 0.92 25.76 0.88 25.78C0.85 25.78 0.82 25.79 0.79 25.79C0.76 25.79 0.73 25.79 0.7 25.79C0.67 25.79 0.64 25.79 0.61 25.79C0.58 25.79 0.55 25.79 0.52 25.79C0.55 25.76 0.58 25.74 0.61 25.72C0.63 25.7 0.66 25.68 0.69 25.66C0.72 25.65 0.76 25.63 0.79 25.62C0.82 25.61 0.85 25.6 0.89 25.59C0.87 25.58 0.85 25.58 0.84 25.58C0.82 25.58 0.8 25.58 0.79 25.58C0.77 25.58 0.75 25.58 0.74 25.58C0.72 25.58 0.7 25.58 0.69 25.59C0.59 25.6 0.48 25.61 0.48 25.49C0.56 25.49 0.64 25.49 0.71 25.49C0.79 25.49 0.87 25.48 0.95 25.48C1.02 25.47 1.1 25.47 1.18 25.46C1.26 25.45 1.33 25.44 1.41 25.43C1.44 25.43 1.48 25.43 1.51 25.43C1.54 25.43 1.57 25.42 1.61 25.42C1.64 25.42 1.67 25.43 1.7 25.43C1.73 25.43 1.77 25.43 1.8 25.43C1.84 25.44 1.88 25.44 1.92 25.44C1.96 25.45 2 25.45 2.04 25.45C2.08 25.45 2.12 25.45 2.16 25.44C2.2 25.44 2.24 25.44 2.28 25.43C2.35 25.42 2.42 25.41 2.5 25.4C2.57 25.39 2.64 25.39 2.71 25.39C2.79 25.39 2.86 25.39 2.93 25.4C3 25.41 3.07 25.42 3.14 25.43C3.38 25.48 3.56 25.33 3.76 25.26C3.72 25.25 3.67 25.24 3.62 25.23C3.57 25.22 3.52 25.22 3.47 25.22C3.41 25.22 3.36 25.22 3.31 25.23C3.26 25.24 3.21 25.25 3.16 25.26C3.3 25.09 4 25.17 3.86 25.09C3.88 25.05 3.83 25.05 3.78 25.05C3.19 25.05 2.58 25.21 1.94 25.21C1.78 25.2 1.62 25.2 1.46 25.21C1.3 25.21 1.14 25.21 0.98 25.23C0.82 25.24 0.66 25.25 0.5 25.27C0.34 25.29 0.18 25.31 0.02 25.34C0.07 25.22 0.32 25.3 0.34 25.22C0.36 25.14 0.18 25.26 0.22 25.14C0.25 25.02 0.49 25.07 0.46 25.02C0.43 24.97 0.37 25.02 0.31 25.02C0.3 25.02 0.3 25.02 0.29 25.02C0.28 25.02 0.27 25.02 0.26 25.02C0.26 25.02 0.25 25.02 0.24 25.02C0.23 25.02 0.22 25.02 0.22 25.02C0.22 24.86 0.56 24.83 0.22 24.78C0.24 24.74 0.65 24.7 0.45 24.61C0.43 24.6 0.41 24.59 0.38 24.59C0.36 24.59 0.34 24.58 0.32 24.58C0.29 24.58 0.27 24.59 0.25 24.59C0.23 24.59 0.2 24.6 0.18 24.61C0.16 24.61 0.14 24.61 0.12 24.62C0.1 24.62 0.08 24.62 0.06 24.62C0.04 24.62 0.02 24.62 0 24.62C-0.02 24.61 -0.04 24.61 -0.06 24.61C-0.06 24.54 0.02 24.54 0.1 24.54C0.17 24.54 0.14 24.53 0.24 24.45C0.35 24.37 0.62 24.44 0.54 24.3L0.66 24.24C0.64 24.2 0.54 24.2 0.45 24.2L0.34 24.2C0.34 24.15 0.58 24.13 0.46 24.08C0.49 24.07 0.52 24.05 0.55 24.04C0.58 24.03 0.61 24.03 0.64 24.02C0.67 24.01 0.7 24.01 0.73 24C0.76 24 0.79 24 0.82 24C0.85 23.98 0.89 23.97 0.92 23.95C0.95 23.93 0.98 23.92 1.02 23.91C1.05 23.89 1.08 23.88 1.12 23.87C1.15 23.86 1.19 23.85 1.22 23.84C1.36 23.81 1.27 23.67 1.36 23.66C1.38 23.66 1.41 23.66 1.43 23.65C1.46 23.65 1.48 23.64 1.5 23.64C1.53 23.63 1.55 23.62 1.57 23.6C1.59 23.59 1.61 23.58 1.63 23.56C1.53 23.53 1.43 23.5 1.33 23.49C1.23 23.47 1.13 23.45 1.03 23.45C0.93 23.44 0.83 23.44 0.73 23.45C0.63 23.45 0.53 23.47 0.43 23.48C0.42 23.41 0.69 23.41 0.84 23.41L0.96 23.41C1.06 23.28 0.55 23.22 0.96 23.22C0.99 23.21 1.03 23.21 1.06 23.21C1.09 23.21 1.12 23.21 1.16 23.21C1.19 23.21 1.22 23.21 1.25 23.21C1.29 23.21 1.32 23.21 1.35 23.22C1.4 23.22 1.45 23.22 1.5 23.22C1.55 23.22 1.6 23.22 1.65 23.21C1.7 23.21 1.75 23.21 1.8 23.2C1.85 23.19 1.9 23.18 1.95 23.17C1.94 23.13 1.81 23.13 1.74 23.13L1.62 23.13C1.84 23.06 2.67 23.1 2.97 22.99L3.23 22.99C3.39 23 3.54 23.02 3.62 22.94C3.7 22.93 3.78 22.93 3.86 22.92C3.94 22.91 4.02 22.9 4.1 22.89C4.18 22.88 4.26 22.87 4.34 22.86C4.42 22.85 4.5 22.83 4.58 22.82C4.56 22.83 4.55 22.84 4.53 22.85C4.52 22.86 4.5 22.87 4.49 22.87C4.47 22.88 4.46 22.89 4.44 22.89C4.42 22.9 4.41 22.9 4.39 22.9C4.1 23.14 5.86 22.92 6.5 22.81C6.77 22.75 7.03 22.61 7.36 22.56C7.7 22.5 7.91 22.27 8.22 22.18C8.17 22.15 8.11 22.13 8.05 22.11C7.99 22.09 7.93 22.08 7.87 22.07C7.8 22.07 7.74 22.07 7.68 22.07C7.61 22.08 7.55 22.09 7.49 22.11C7.45 22.11 7.41 22.12 7.37 22.12C7.33 22.12 7.29 22.12 7.25 22.12C7.21 22.12 7.17 22.12 7.14 22.12C7.1 22.12 7.06 22.11 7.02 22.11C7 22.1 6.97 22.09 6.95 22.09C6.93 22.08 6.9 22.08 6.88 22.08C6.86 22.08 6.83 22.08 6.81 22.09C6.79 22.09 6.76 22.1 6.74 22.11C6.79 22.02 6.9 22.02 7 22.02C7.01 22.02 7.02 22.02 7.03 22.02C7.05 22.02 7.06 22.02 7.07 22.02C7.08 22.02 7.09 22.02 7.1 22.02C7.12 22.02 7.13 22.02 7.14 22.02C7.27 21.99 7.39 21.91 7.5 21.9C7.61 21.89 7.69 21.94 7.87 21.95C8.05 21.96 8.22 21.9 8.4 21.9L8.62 21.9C9.07 21.91 9.77 21.91 9.93 21.59C9.82 21.57 9.72 21.56 9.61 21.55C9.5 21.55 9.39 21.54 9.28 21.54C9.18 21.54 9.07 21.55 8.96 21.55C8.85 21.56 8.74 21.57 8.64 21.59C8.57 21.58 8.51 21.58 8.44 21.57C8.37 21.56 8.31 21.55 8.24 21.55C8.18 21.54 8.11 21.53 8.05 21.51C7.98 21.5 7.92 21.49 7.85 21.48C7.82 21.48 7.94 21.48 7.74 21.43C7.69 21.42 7.64 21.41 7.59 21.41C7.54 21.41 7.5 21.41 7.45 21.41C7.4 21.41 7.35 21.41 7.3 21.41C7.25 21.41 7.2 21.42 7.15 21.43L6.83 21.43C6.8 21.35 6.82 21.35 6.87 21.35C6.94 21.35 7 21.35 7.07 21.35C7.13 21.35 7.19 21.34 7.26 21.34C7.32 21.33 7.38 21.32 7.45 21.31C7.51 21.3 7.57 21.28 7.63 21.27C7.62 21.17 7.43 21.27 7.36 21.27C7.36 21.12 7.29 21.12 7.18 21.12C7.16 21.12 7.15 21.13 7.13 21.13C7.12 21.13 7.1 21.13 7.09 21.13C7.08 21.13 7.06 21.13 7.05 21.13C7.03 21.13 7.02 21.12 7 21.12C6.88 21.11 6.82 21.09 6.74 21.17C6.72 21.18 6.69 21.19 6.67 21.2C6.65 21.21 6.62 21.22 6.59 21.22C6.57 21.22 6.54 21.21 6.52 21.2C6.49 21.19 6.47 21.18 6.45 21.17C6.43 21.15 6.4 21.14 6.37 21.13C6.35 21.12 6.32 21.12 6.29 21.11C6.26 21.11 6.23 21.1 6.21 21.1C6.18 21.1 6.15 21.11 6.12 21.11C5.32 21.14 4.52 21.1 3.72 21.06C3.74 21.04 3.76 21.03 3.79 21.02C3.81 21.01 3.83 21.01 3.86 21C3.88 21 3.91 21 3.93 21C3.96 21 3.98 21.01 4 21.01C4.03 21.02 4.05 21.03 4.07 21.03C4.1 21.04 4.12 21.04 4.14 21.04C4.17 21.04 4.19 21.04 4.21 21.03C4.24 21.03 4.26 21.02 4.28 21.01C4.18 20.87 3.98 20.91 3.77 20.95C3.73 20.97 3.69 20.98 3.65 20.99C3.61 21 3.57 21.01 3.53 21.01C3.48 21.01 3.44 21 3.4 20.99C3.36 20.98 3.32 20.97 3.28 20.95L3.47 20.89L3.68 20.83C3.52 20.74 3.08 20.89 3.08 20.63C3.06 20.64 3.04 20.64 3.01 20.65C2.99 20.65 2.97 20.65 2.95 20.65C2.93 20.65 2.9 20.65 2.88 20.65C2.86 20.64 2.84 20.64 2.82 20.63C2.8 20.63 2.77 20.62 2.75 20.62C2.73 20.62 2.7 20.61 2.68 20.61C2.66 20.61 2.63 20.62 2.61 20.62C2.59 20.62 2.57 20.63 2.54 20.63C2.47 20.63 2.16 20.69 2.1 20.63C2.17 20.63 2.25 20.62 2.33 20.62C2.41 20.61 2.48 20.6 2.56 20.59C2.64 20.58 2.71 20.56 2.79 20.55C2.87 20.53 2.94 20.51 3.02 20.5C3.32 20.45 3.47 20.43 3.15 20.29C3.24 20.27 3.33 20.25 3.41 20.23C3.5 20.22 3.59 20.2 3.67 20.19C3.76 20.17 3.85 20.16 3.94 20.15C4.02 20.14 4.11 20.13 4.2 20.12C4.18 20.11 4.15 20.11 4.13 20.1C4.11 20.09 4.09 20.09 4.06 20.08C4.04 20.08 4.02 20.08 3.99 20.08C3.97 20.08 3.95 20.03 3.93 20.03C4.25 19.98 4.82 20.08 5.01 20.08L6.43 20.08C6.95 20.09 7.5 19.94 8.02 19.94C8.05 19.94 8.89 19.94 8.92 19.94C8.95 19.93 8.98 19.93 9.01 19.92C9.05 19.91 9.08 19.91 9.1 19.9C9.13 19.89 9.16 19.88 9.19 19.87C9.21 19.85 9.23 19.84 9.25 19.83C9.27 19.82 9.29 19.81 9.31 19.8C9.33 19.79 9.35 19.78 9.37 19.77C9.39 19.77 9.41 19.76 9.43 19.75C9.36 19.63 9.19 19.68 9.03 19.68L7.99 19.68C7.63 19.68 7.2 19.71 6.94 19.68C6.88 19.67 6.82 19.66 6.75 19.65C6.69 19.64 6.63 19.63 6.56 19.62C6.5 19.62 6.44 19.61 6.37 19.6C6.31 19.6 6.25 19.59 6.18 19.58C6.22 19.57 6.25 19.56 6.28 19.56C6.32 19.55 6.35 19.55 6.38 19.55C6.42 19.55 6.45 19.55 6.49 19.56C6.52 19.56 6.55 19.57 6.58 19.58C6.62 19.6 6.65 19.61 6.69 19.61C6.72 19.62 6.76 19.62 6.79 19.62C6.83 19.62 6.86 19.62 6.9 19.61C6.93 19.61 6.96 19.6 7 19.58C7.04 19.58 7.09 19.57 7.14 19.57C7.18 19.57 7.23 19.57 7.27 19.57C7.32 19.57 7.37 19.57 7.41 19.57C7.46 19.57 7.5 19.58 7.55 19.58L7.77 19.58C8.35 19.58 8.94 19.52 9.53 19.52L10.1 19.52C10.19 19.53 10.26 19.54 10.26 19.48C10.43 19.45 10.59 19.42 10.76 19.39C10.92 19.35 11.09 19.3 11.25 19.26C11.41 19.21 11.58 19.15 11.73 19.09C11.89 19.03 12.05 18.97 12.21 18.89C12.33 18.84 12.44 18.79 12.56 18.74C12.68 18.68 12.79 18.62 12.91 18.56C13.02 18.5 13.14 18.43 13.25 18.36C13.36 18.3 13.47 18.23 13.58 18.15C13.6 18.14 13.62 18.12 13.64 18.1C13.66 18.08 13.69 18.06 13.71 18.04C13.73 18.02 13.75 18 13.77 17.98C13.79 17.96 13.81 17.94 13.83 17.91C13.91 17.82 13.97 17.86 14.11 17.76C14.15 17.73 14.19 17.7 14.23 17.67C14.26 17.64 14.3 17.61 14.34 17.58C14.37 17.55 14.41 17.52 14.45 17.49C14.48 17.46 14.52 17.43 14.55 17.4C14.59 17.35 14.64 17.31 14.68 17.27C14.73 17.23 14.77 17.19 14.82 17.15C14.86 17.11 14.91 17.07 14.95 17.03C15 16.99 15.05 16.95 15.09 16.91C15.16 16.86 15.19 16.7 15.35 16.65C15.51 16.61 15.59 16.32 15.67 16.2C15.7 16.16 15.74 16.13 15.77 16.09C15.8 16.06 15.82 16.02 15.85 15.98C15.88 15.95 15.91 15.91 15.93 15.87C15.96 15.83 15.98 15.79 16.01 15.75C16.2 15.35 16.5 14.97 16.68 14.55C16.72 14.43 16.76 14.31 16.78 14.18C16.81 14.06 16.82 13.93 16.82 13.8C16.83 13.68 16.82 13.55 16.8 13.42C16.79 13.3 16.76 13.17 16.72 13.05C16.67 12.86 16.6 12.68 16.51 12.5C16.41 12.33 16.3 12.17 16.18 12.02C16.05 11.87 15.9 11.74 15.75 11.62C15.59 11.5 15.42 11.4 15.24 11.32C15.19 11.3 15.13 11.28 15.08 11.25C15.03 11.22 14.97 11.2 14.92 11.17C14.87 11.14 14.82 11.11 14.77 11.08C14.71 11.06 14.66 11.03 14.61 11C14.36 10.87 14.09 10.76 13.83 10.64C13.8 10.63 13.77 10.62 13.73 10.61C13.7 10.6 13.67 10.59 13.64 10.59C13.6 10.58 13.57 10.58 13.54 10.58C13.5 10.58 13.47 10.58 13.44 10.58C13.4 10.56 13.37 10.54 13.33 10.53C13.3 10.51 13.26 10.49 13.23 10.48C13.19 10.46 13.16 10.45 13.12 10.43C13.08 10.42 13.04 10.41 13.01 10.39C12.75 10.29 12.38 10.19 12.22 10.13C12.07 10.08 11.94 9.95 11.78 9.9C11.43 9.77 10.96 9.72 10.57 9.58C10.51 9.56 10.46 9.53 10.41 9.5C10.35 9.48 10.3 9.45 10.24 9.43C10.19 9.4 10.13 9.38 10.08 9.36C10.02 9.33 9.97 9.31 9.91 9.29C9.86 9.27 9.8 9.25 9.75 9.23C9.69 9.21 9.64 9.19 9.58 9.17C9.53 9.15 9.48 9.13 9.42 9.1C9.37 9.08 9.32 9.06 9.26 9.03L9.32 8.98L9.32 8.93C9.32 8.93 9.33 8.93 9.34 8.92C9.35 8.92 9.36 8.92 9.37 8.92C9.37 8.92 9.38 8.92 9.39 8.92C9.4 8.93 9.41 8.93 9.42 8.93C9.3 8.85 9.36 8.82 9.42 8.76C9.33 8.6 9.13 8.69 9.02 8.6C9.07 8.55 9.14 8.6 9.22 8.6C9.24 8.6 9.25 8.61 9.26 8.61C9.27 8.61 9.29 8.61 9.3 8.61C9.31 8.61 9.33 8.61 9.34 8.61C9.35 8.61 9.37 8.6 9.38 8.6C9.28 8.45 9.09 8.43 8.94 8.36C8.96 8.31 9 8.31 9.05 8.31L9.14 8.31C9.1 8.29 9.07 8.27 9.04 8.25C9.01 8.24 8.97 8.22 8.94 8.2C8.91 8.19 8.87 8.17 8.84 8.15C8.8 8.14 8.77 8.12 8.74 8.11L8.94 8.11C8.86 7.97 8.68 7.98 8.57 7.87C8.67 7.88 8.76 7.89 8.86 7.91C8.95 7.93 9.05 7.95 9.14 7.97C9.23 7.99 9.33 8.01 9.42 8.03C9.51 8.06 9.6 8.08 9.7 8.11C9.68 8.09 9.66 8.08 9.64 8.07C9.62 8.06 9.6 8.05 9.58 8.04C9.56 8.04 9.54 8.03 9.52 8.03C9.5 8.03 9.48 8.03 9.45 8.03C9.89 7.69 8.79 7.66 8.85 7.45C8.87 7.45 8.88 7.45 8.89 7.45C8.91 7.45 8.92 7.45 8.93 7.45C8.94 7.45 8.96 7.45 8.97 7.45C8.98 7.45 9 7.45 9.01 7.45C9.1 7.46 9.24 7.41 9.18 7.38C9.12 7.34 8.51 7.06 8.77 7.06C8.6 6.99 8.44 6.91 8.28 6.82C8.42 6.67 8.62 6.82 8.77 6.82C8.75 6.69 8.57 6.7 8.57 6.58C8.61 6.57 8.66 6.57 8.71 6.57C8.76 6.57 8.8 6.57 8.85 6.57C8.9 6.58 8.94 6.59 8.99 6.6C9.03 6.62 9.08 6.63 9.12 6.66C9.16 6.67 9.19 6.68 9.23 6.69C9.26 6.71 9.3 6.72 9.34 6.72C9.38 6.73 9.42 6.73 9.45 6.74C9.49 6.74 9.53 6.74 9.57 6.74C9.51 6.59 9.17 6.61 8.85 6.42C8.54 6.23 8.9 6.23 9 6.23L9.16 6.23C9.16 6.22 9.15 6.21 9.14 6.21C9.14 6.2 9.13 6.19 9.12 6.19C9.11 6.18 9.1 6.18 9.08 6.18C9.07 6.18 9.06 6.18 9.05 6.18C9.16 6.09 9.38 6.26 9.49 6.26C9.5 6.1 9.77 6.24 9.89 6.26C10.01 6.28 10.02 6.26 10.02 6.21C10.02 6.15 10.06 6.15 10.13 6.15C10.16 6.16 10.18 6.16 10.21 6.16C10.23 6.16 10.26 6.17 10.28 6.17C10.31 6.17 10.33 6.16 10.36 6.16C10.38 6.16 10.41 6.16 10.43 6.15C10.6 6.13 10.01 6.03 9.67 5.88C9.81 5.78 10.06 5.96 10.23 5.96C10.22 5.82 9.86 5.71 9.54 5.63C9.51 5.61 9.47 5.6 9.43 5.59C9.39 5.58 9.35 5.57 9.31 5.56C9.28 5.55 9.24 5.54 9.2 5.53C9.16 5.53 9.12 5.52 9.08 5.52C9.16 5.4 9.31 5.46 9.46 5.52C9.48 5.53 9.5 5.54 9.52 5.55C9.54 5.55 9.56 5.56 9.59 5.57C9.61 5.57 9.63 5.58 9.65 5.58C9.68 5.59 9.7 5.59 9.72 5.6C9.58 5.47 9.38 5.44 9.24 5.32C9.29 5.32 9.34 5.32 9.4 5.32C9.45 5.33 9.5 5.33 9.55 5.34C9.61 5.35 9.66 5.36 9.71 5.37C9.76 5.38 9.81 5.39 9.86 5.4C9.85 5.39 9.85 5.37 9.84 5.36C9.83 5.35 9.82 5.33 9.8 5.32C9.79 5.31 9.78 5.3 9.76 5.29C9.75 5.29 9.73 5.28 9.71 5.28C10 5.24 10.27 5.5 10.48 5.51C10.69 5.52 10.86 5.64 11.08 5.64C10.94 5.56 10.96 5.47 11.08 5.56C11.18 5.47 10.85 5.36 10.8 5.36C10.82 5.34 10.83 5.33 10.84 5.32C10.86 5.31 10.88 5.3 10.89 5.29C10.91 5.29 10.93 5.28 10.95 5.28C10.97 5.28 10.99 5.28 11 5.28C10.97 5.25 10.94 5.22 10.9 5.2C10.87 5.17 10.83 5.15 10.79 5.13C10.75 5.11 10.71 5.09 10.67 5.07C10.63 5.06 10.59 5.04 10.55 5.03C10.4 5 10.35 4.84 10.2 4.84C10.29 4.77 10.47 4.88 10.54 4.92C10.55 4.92 10.56 4.93 10.57 4.93C10.58 4.93 10.59 4.93 10.6 4.93C10.61 4.93 10.62 4.93 10.63 4.93C10.64 4.93 10.65 4.92 10.66 4.92C10.67 4.92 10.68 4.91 10.69 4.91C10.7 4.91 10.71 4.91 10.72 4.91C10.74 4.91 10.75 4.91 10.76 4.91C10.77 4.91 10.78 4.92 10.79 4.92C10.83 4.93 10.87 4.94 10.91 4.94C10.95 4.95 11 4.96 11.04 4.96C11.08 4.97 11.12 4.97 11.16 4.97C11.2 4.98 11.25 4.98 11.29 4.98C11.25 4.97 10.92 4.72 10.92 4.72C10.92 4.72 10.93 4.71 10.94 4.71C10.94 4.71 10.95 4.71 10.96 4.71C10.96 4.71 10.97 4.71 10.98 4.71C10.98 4.71 10.99 4.72 11 4.72C10.96 4.58 10.71 4.66 10.71 4.58C10.78 4.6 10.85 4.61 10.93 4.62C11 4.63 11.07 4.64 11.14 4.64C11.21 4.65 11.28 4.66 11.36 4.67C11.43 4.67 11.5 4.68 11.57 4.68C11.57 4.4 10.63 4.53 10.71 4.28C10.72 4.28 10.73 4.28 10.74 4.28C10.75 4.28 10.76 4.27 10.78 4.27C10.79 4.27 10.8 4.28 10.81 4.28C10.82 4.28 10.83 4.28 10.84 4.28C10.85 4.29 10.86 4.29 10.88 4.29C10.89 4.29 10.9 4.29 10.91 4.29C10.93 4.29 10.94 4.29 10.95 4.29C10.96 4.29 10.98 4.29 10.99 4.28C10.94 4.26 10.89 4.23 10.83 4.21C10.78 4.18 10.73 4.16 10.68 4.14C10.62 4.12 10.57 4.1 10.51 4.09C10.46 4.07 10.4 4.06 10.35 4.04C10.36 3.94 10.51 4.04 10.51 4.04C10.43 3.88 10 3.85 10 3.72C10.2 3.61 10.47 3.86 10.56 3.89C10.64 3.91 11.19 4.02 11.18 3.97C11.16 3.92 10.86 3.89 10.99 3.79C11 3.79 11.01 3.78 11.02 3.78C11.04 3.78 11.05 3.77 11.06 3.77C11.07 3.77 11.09 3.78 11.1 3.78C11.11 3.78 11.12 3.79 11.13 3.79C11.2 3.83 11.26 3.86 11.32 3.79C11.07 3.71 10.81 3.64 10.56 3.55C10.81 3.5 10.97 3.63 11.19 3.63C11.21 3.63 11.23 3.63 11.25 3.63C11.27 3.64 11.29 3.64 11.31 3.64C11.32 3.64 11.34 3.64 11.36 3.63C11.38 3.63 11.4 3.63 11.42 3.63C11.44 3.62 11.47 3.62 11.49 3.62C11.52 3.61 11.54 3.61 11.57 3.61C11.59 3.61 11.62 3.61 11.64 3.62C11.67 3.62 11.69 3.62 11.72 3.63C11.74 3.64 11.77 3.65 11.79 3.65C11.82 3.66 11.85 3.66 11.87 3.65C11.9 3.65 11.93 3.64 11.95 3.63C11.98 3.62 12 3.6 12.02 3.58C12.08 3.52 12.03 3.28 12.2 3.46C12.25 3.48 12.3 3.49 12.35 3.5C12.4 3.51 12.45 3.51 12.5 3.51C12.56 3.51 12.61 3.51 12.66 3.5C12.71 3.49 12.76 3.48 12.81 3.46C12.87 3.42 13.04 3.56 13.04 3.62C13.07 3.6 13.1 3.59 13.14 3.57C13.17 3.56 13.2 3.55 13.24 3.54C13.27 3.54 13.31 3.53 13.34 3.53C13.38 3.53 13.41 3.54 13.44 3.54C13.5 3.46 13.35 3.51 13.37 3.46C13.38 3.42 13.44 3.42 13.48 3.42C13.52 3.42 13.58 3.42 13.52 3.31L13.8 3.31C13.74 3.12 13.49 3.11 13.34 3.11C13.35 3.11 13.36 3.1 13.36 3.1C13.39 3.1 13.41 3.09 13.44 3.09C13.48 3.09 13.52 3.09 13.56 3.09C13.61 3.09 13.65 3.09 13.69 3.09C13.73 3.1 13.77 3.1 13.81 3.11C13.84 3.12 13.87 3.13 13.9 3.14C13.93 3.15 13.96 3.16 13.98 3.16C14.01 3.17 14.04 3.18 14.07 3.19C14.1 3.19 14.13 3.2 14.16 3.21C14.27 3.13 14.21 3.15 14.38 3.21C14.39 3.22 14.4 3.22 14.41 3.23C14.42 3.23 14.44 3.24 14.45 3.24C14.47 3.24 14.48 3.23 14.49 3.23C14.51 3.22 14.52 3.22 14.53 3.21C14.54 3.2 14.55 3.2 14.56 3.2C14.57 3.19 14.58 3.19 14.59 3.19C14.61 3.19 14.62 3.19 14.63 3.2C14.64 3.2 14.64 3.2 14.65 3.2C14.6 3.17 14.54 3.15 14.49 3.12C14.44 3.09 14.38 3.07 14.32 3.04C14.26 3.02 14.2 3 14.14 2.99C14.08 2.97 14.02 2.96 13.96 2.95C13.88 2.94 13.32 2.98 13.46 2.81C13.43 2.8 13.39 2.79 13.36 2.78C13.33 2.78 13.29 2.77 13.26 2.76C13.23 2.76 13.19 2.75 13.16 2.74C13.13 2.74 13.09 2.74 13.06 2.73C13.2 2.53 12.58 2.47 12.43 2.47C12.37 2.45 12.31 2.44 12.26 2.43C12.2 2.41 12.14 2.4 12.09 2.38C12.03 2.37 11.97 2.35 11.92 2.33C11.86 2.31 11.8 2.3 11.75 2.28C11.76 2.27 11.77 2.27 11.78 2.27C11.79 2.27 11.8 2.27 11.8 2.27C11.81 2.27 11.82 2.27 11.83 2.27C11.84 2.27 11.85 2.27 11.86 2.28C11.87 2.28 11.89 2.28 11.9 2.28C11.91 2.28 11.92 2.28 11.93 2.28C11.95 2.28 11.96 2.28 11.97 2.28C11.98 2.28 12 2.28 12.01 2.28C12.03 2.27 12.06 2.27 12.08 2.27C12.11 2.27 12.13 2.27 12.16 2.28C12.18 2.28 12.21 2.29 12.23 2.3C12.25 2.32 12.27 2.33 12.29 2.35C12.36 2.37 12.43 2.38 12.49 2.4C12.56 2.42 12.63 2.43 12.69 2.45C12.76 2.46 12.83 2.47 12.9 2.48C12.97 2.49 13.03 2.49 13.1 2.5C12.91 2.41 12.73 2.33 12.54 2.26C12.58 2.26 12.61 2.25 12.65 2.25C12.68 2.25 12.72 2.26 12.75 2.26C12.78 2.27 12.82 2.27 12.85 2.28C12.88 2.29 12.92 2.31 12.95 2.32C12.97 2.34 12.99 2.35 13.02 2.37C13.04 2.38 13.06 2.4 13.09 2.41C13.12 2.42 13.14 2.43 13.17 2.44C13.19 2.45 13.22 2.46 13.25 2.47C13.28 2.47 13.31 2.48 13.34 2.48C13.37 2.48 13.4 2.48 13.43 2.48C13.46 2.48 13.5 2.48 13.53 2.48C13.56 2.48 13.59 2.47 13.62 2.47C13.53 2.35 13.3 2.38 13.3 2.19C13.42 2.19 13.54 2.25 13.66 2.19C13.62 2.05 12.9 2.09 12.95 1.95C13.02 1.97 13.09 1.99 13.17 2C13.24 2.02 13.31 2.05 13.39 2.07C13.46 2.09 13.53 2.11 13.6 2.13C13.67 2.16 13.75 2.18 13.82 2.21C14.08 2.26 14.23 2.13 14.5 2.13C14.49 2.12 14.47 2.12 14.46 2.11C14.45 2.1 14.45 2.09 14.44 2.07C14.43 2.06 14.43 2.05 14.42 2.04C14.42 2.02 14.42 2.01 14.42 2L14.58 2C14.6 2 14.63 2.01 14.66 2.01C14.69 2.01 14.72 2.01 14.75 2.01C14.77 2 14.8 2 14.83 1.99C14.85 1.98 14.88 1.97 14.9 1.96C15 2.11 15.28 1.94 15.33 1.94C15.38 1.94 15.58 1.94 15.62 2C15.61 2.01 15.59 2.01 15.57 2.02C15.55 2.02 15.53 2.02 15.51 2.02C15.49 2.02 15.47 2.02 15.45 2.02C15.44 2.01 15.42 2.01 15.4 2L15.34 2C15.37 2.12 15.51 2.05 15.58 2.12C15.65 2.19 15.62 2.15 15.7 2.08C15.79 2 15.96 2.12 16.05 2.12C16.05 2.1 16.05 2.07 16.05 2.05C16.05 2.03 16.05 2.01 16.05 1.98C16.05 1.96 16.05 1.94 16.05 1.91C16.05 1.89 16.05 1.87 16.06 1.84L16.12 1.84C16.17 1.84 16.17 1.84 16.17 1.78C16.17 1.77 16.17 1.76 16.17 1.75C16.16 1.74 16.16 1.73 16.16 1.72C16.16 1.71 16.16 1.7 16.17 1.69C16.17 1.68 16.17 1.67 16.17 1.66C16.32 1.51 16.17 1.96 16.17 1.96C16.16 2.11 16.34 2.08 16.41 2.16C16.41 2.08 16.34 2.05 16.37 2L16.38 2C16.39 2 16.4 2.01 16.41 2C16.44 1.99 16.46 1.98 16.46 1.96L16.46 1.92C16.56 1.9 16.63 1.92 16.64 2C16.65 2.08 16.6 2.08 16.49 2.08C16.57 2.18 16.47 2.32 16.49 2.36C16.51 2.4 16.66 2.47 16.67 2.36C16.68 2.25 16.75 2.21 16.75 2.19C16.75 2.16 16.8 2.12 16.75 2.05C16.96 2.05 16.93 2.31 17 2.44C17.01 2.45 17.02 2.47 17.03 2.48C17.05 2.49 17.06 2.5 17.08 2.51C17.1 2.52 17.12 2.52 17.13 2.53C17.15 2.53 17.17 2.53 17.19 2.52C17.3 2.48 17.19 2.35 17.19 2.28C17.25 2.35 17.39 2.3 17.39 2.45C17.49 2.4 17.54 2.43 17.59 2.53C17.81 2.32 17.95 2.65 18.11 2.85C18.28 2.81 18.2 2.75 18.35 2.92C18.39 2.93 18.43 2.93 18.47 2.94C18.51 2.95 18.55 2.96 18.59 2.98C18.62 3 18.66 3.02 18.69 3.04C18.73 3.07 18.76 3.09 18.79 3.12C18.82 3.04 18.92 3.04 19.03 3.04C18.94 2.86 18.72 2.8 18.59 2.64C18.71 2.62 18.85 2.75 18.94 2.8C18.97 2.82 19 2.83 19.03 2.86C19.06 2.88 19.08 2.9 19.11 2.93C19.13 2.95 19.15 2.98 19.17 3.01C19.19 3.04 19.2 3.07 19.22 3.1C19.38 3.27 19.3 3.03 19.38 3.03C19.41 3.04 19.43 3.05 19.45 3.06C19.48 3.08 19.5 3.09 19.52 3.1C19.54 3.12 19.56 3.13 19.59 3.15C19.61 3.16 19.63 3.18 19.65 3.19C19.68 3.21 19.71 3.23 19.75 3.25C19.78 3.27 19.81 3.29 19.84 3.31C19.87 3.33 19.9 3.35 19.93 3.37C19.96 3.4 19.99 3.42 20.02 3.44C20.04 3.47 20.06 3.49 20.08 3.51C20.1 3.53 20.13 3.55 20.15 3.56C20.17 3.58 20.2 3.6 20.22 3.61C20.24 3.63 20.27 3.65 20.29 3.66C20.33 3.68 20.37 3.7 20.41 3.72C20.44 3.74 20.48 3.76 20.52 3.78C20.55 3.81 20.59 3.83 20.62 3.86C20.65 3.88 20.69 3.91 20.72 3.94C20.74 3.96 20.77 3.98 20.8 4C20.83 4.02 20.86 4.05 20.89 4.07C20.91 4.09 20.94 4.11 20.97 4.13C21 4.15 21.03 4.17 21.06 4.19C21.04 4.24 21.04 4.22 20.91 4.19C20.79 4.15 20.75 4.13 20.79 4.27C20.84 4.42 21.14 4.35 21.26 4.42C21.38 4.49 21.45 4.74 21.55 4.73C21.66 4.72 21.65 4.77 21.65 4.83C21.65 4.89 21.6 4.84 21.65 4.93C21.71 5.02 21.85 5 21.91 5.03C21.97 5.06 21.99 5.07 21.91 5.18C21.95 5.2 21.99 5.22 22.03 5.24C22.07 5.27 22.11 5.29 22.15 5.32C22.18 5.35 22.22 5.38 22.25 5.41C22.28 5.44 22.31 5.48 22.34 5.51C22.39 5.56 22.44 5.61 22.49 5.66C22.53 5.71 22.58 5.76 22.62 5.81C22.67 5.87 22.71 5.92 22.76 5.97C22.8 6.03 22.84 6.08 22.88 6.14C23.17 6.3 23.38 6.69 23.53 6.81C23.57 6.84 23.6 6.87 23.63 6.9C23.66 6.93 23.68 6.96 23.71 6.99C23.73 7.03 23.76 7.06 23.78 7.1C23.8 7.14 23.81 7.18 23.83 7.22C23.83 7.29 23.96 7.35 23.83 7.37C23.7 7.38 23.55 7.1 23.55 6.99C23.54 6.96 23.52 6.93 23.51 6.9C23.49 6.88 23.47 6.85 23.45 6.83C23.43 6.8 23.41 6.78 23.38 6.76C23.36 6.74 23.34 6.72 23.31 6.7C23.18 6.61 23.21 6.57 23.12 6.47C23.06 6.39 23 6.31 22.93 6.23C22.86 6.15 22.79 6.08 22.72 6C22.65 5.93 22.57 5.86 22.5 5.8C22.42 5.73 22.34 5.67 22.26 5.61C22.09 5.58 22.39 5.71 22.36 5.85C22.32 5.99 22.41 5.88 22.5 5.99C22.58 6.09 22.56 6.16 22.67 6.25C22.78 6.33 23.04 6.46 22.99 6.46L22.93 6.46L22.92 6.45C22.91 6.45 22.91 6.45 22.9 6.45C22.89 6.45 22.89 6.45 22.88 6.45L22.87 6.46C22.7 6.61 23.2 6.64 23.14 6.79C23.08 6.94 23.13 6.94 23.21 6.94L23.3 6.94C23.31 7 23.24 6.92 23.21 7C23.18 7.09 23.26 7.13 23.37 7.24C23.49 7.35 23.52 7.62 23.68 7.62C23.71 7.84 23.88 7.97 23.96 8.17C24.15 8.77 24.21 8.77 24.28 8.77C24.53 8.63 24.16 8.27 24.16 8.09C24.19 8.15 24.23 8.22 24.26 8.28C24.29 8.35 24.32 8.41 24.35 8.48C24.38 8.55 24.41 8.62 24.43 8.69C24.45 8.76 24.47 8.83 24.49 8.9C24.51 8.94 24.53 8.98 24.54 9.02C24.56 9.06 24.57 9.1 24.58 9.15C24.59 9.19 24.61 9.23 24.62 9.28C24.62 9.32 24.63 9.36 24.64 9.41C24.65 9.44 24.67 9.47 24.68 9.51C24.69 9.54 24.7 9.58 24.71 9.61C24.72 9.65 24.73 9.68 24.73 9.72C24.74 9.76 24.75 9.79 24.75 9.83C24.83 10.15 24.85 10.47 24.92 10.79C24.92 10.84 24.93 10.88 24.94 10.93C24.95 10.98 24.95 11.02 24.96 11.07C24.97 11.11 24.98 11.16 24.99 11.2C25 11.25 25.02 11.29 25.03 11.34C25.03 11.37 25.04 11.4 25.04 11.43C25.04 11.46 25.05 11.49 25.05 11.52C25.05 11.55 25.05 11.58 25.04 11.61C25.04 11.64 25.04 11.67 25.03 11.7L25.03 11.69ZM22.23 19.21C22.22 19.22 22.21 19.23 22.21 19.24C22.21 19.24 22.21 19.23 22.21 19.23C22.22 19.22 22.22 19.22 22.23 19.21ZM22.2 19.29C22.2 19.31 22.2 19.33 22.2 19.34C22.05 19.55 21.99 19.84 21.86 20.04C21.83 20.1 21.8 20.15 21.76 20.2C21.72 20.26 21.68 20.31 21.64 20.35C21.6 20.4 21.55 20.44 21.5 20.49C21.46 20.53 21.41 20.57 21.35 20.6C21.36 20.73 21.15 20.87 21.15 20.98C20.9 20.94 21.31 20.78 21.26 20.62C21.21 20.47 21.63 20.28 21.63 20.28C21.56 20.22 22.08 19.51 22.2 19.26C22.2 19.25 22.21 19.25 22.21 19.24C22.21 19.26 22.2 19.27 22.2 19.29ZM3.93 20.03C3.92 20.03 3.92 20.03 3.92 20.03C3.92 20.03 3.92 20.03 3.93 20.03ZM14.65 3.2C14.65 3.2 14.66 3.21 14.66 3.21C14.66 3.21 14.65 3.2 14.65 3.2ZM13.34 3.11C13.3 3.12 13.25 3.12 13.2 3.12C13.21 3.1 13.22 3.09 13.24 3.08C13.25 3.07 13.27 3.06 13.29 3.05C13.31 3.04 13.32 3.04 13.34 3.04C13.36 3.04 13.38 3.04 13.4 3.04C13.4 3.07 13.39 3.09 13.36 3.1C13.35 3.1 13.33 3.11 13.31 3.11C13.32 3.11 13.33 3.11 13.34 3.11ZM16.38 2L16.37 2C16.35 2 16.34 1.98 16.34 1.96L16.35 1.96C16.36 1.95 16.37 1.95 16.37 1.95C16.38 1.95 16.39 1.95 16.39 1.96C16.4 1.96 16.41 1.96 16.41 1.96C16.4 1.97 16.39 1.99 16.38 2ZM3.88 20.09C3.87 20.09 3.85 20.09 3.84 20.09C3.83 20.09 3.81 20.09 3.8 20.09C3.79 20.08 3.77 20.08 3.76 20.08C3.8 20.06 3.84 20.08 3.9 20.08C3.89 20.08 3.88 20.09 3.88 20.09ZM3.9 20.08C3.9 20.08 3.91 20.08 3.92 20.08C3.91 20.08 3.9 20.08 3.9 20.08ZM14.9 1.96C14.9 1.96 14.9 1.95 14.89 1.95C14.9 1.95 14.9 1.95 14.91 1.96L14.9 1.96ZM14.75 1.87C14.7 1.85 14.64 1.83 14.58 1.81C14.53 1.8 14.47 1.79 14.41 1.79C14.35 1.78 14.29 1.78 14.23 1.79C14.25 1.78 14.27 1.77 14.29 1.76C14.31 1.75 14.33 1.75 14.35 1.74C14.37 1.74 14.39 1.74 14.41 1.74C14.43 1.74 14.46 1.74 14.48 1.74C14.49 1.74 14.5 1.74 14.52 1.75C14.53 1.75 14.54 1.75 14.56 1.75C14.57 1.75 14.58 1.75 14.59 1.75C14.61 1.74 14.62 1.74 14.63 1.74C14.62 1.54 14.43 1.54 14.31 1.54C14.44 1.45 14.56 1.53 14.67 1.64C14.77 1.75 14.87 1.81 14.94 1.74L14.95 1.73C14.95 1.72 14.95 1.72 14.95 1.71C14.95 1.7 14.95 1.7 14.95 1.69L14.94 1.68C14.94 1.65 15.2 1.73 15.18 1.73C15.17 1.73 15.19 1.77 15.12 1.73C15.06 1.69 15.05 1.69 15.05 1.73C15.06 1.74 15.06 1.75 15.07 1.76C15.07 1.76 15.06 1.77 15.05 1.77C14.96 1.86 15.06 1.94 14.89 1.94C14.89 1.94 14.89 1.94 14.89 1.95C14.85 1.92 14.8 1.89 14.75 1.87ZM15.07 1.76C15.14 1.7 15.12 1.77 15.15 1.77C15.12 1.77 15.09 1.77 15.07 1.76ZM1.88 20.62L1.73 20.62C1.7 20.63 1.25 20.67 1.38 20.53L1.66 20.53C1.7 20.52 1.75 20.52 1.8 20.52C1.85 20.51 1.89 20.51 1.94 20.51C1.99 20.51 2.03 20.51 2.08 20.52C2.13 20.52 2.17 20.52 2.22 20.53C2.18 20.62 2.01 20.62 1.88 20.62ZM3.02 21.2C2.99 21.2 2.96 21.2 2.93 21.19C2.9 21.19 2.87 21.18 2.84 21.18C2.81 21.17 2.78 21.17 2.75 21.16C2.73 21.16 2.7 21.15 2.67 21.14C2.63 21.13 3.02 20.92 3.02 21.2ZM5.26 21.72C5.29 21.71 5.32 21.7 5.34 21.69C5.37 21.68 5.4 21.68 5.43 21.68C5.46 21.68 5.48 21.68 5.51 21.68C5.53 21.76 5.43 21.76 5.33 21.76C5.32 21.76 5.31 21.76 5.3 21.76C5.28 21.76 5.27 21.76 5.26 21.76C5.25 21.76 5.24 21.76 5.23 21.76C5.22 21.76 5.2 21.76 5.19 21.76C5.22 21.74 5.24 21.73 5.26 21.72ZM6.49 21.76C6.49 21.74 6.49 21.72 6.49 21.71C6.49 21.72 6.5 21.72 6.51 21.73L6.49 21.76ZM6.11 21.73C6.09 21.73 6.07 21.74 6.06 21.74C6.04 21.74 6.02 21.74 6 21.74C5.98 21.74 5.97 21.74 5.95 21.74C5.93 21.74 5.91 21.73 5.89 21.73C5.88 21.72 5.86 21.72 5.84 21.72C5.82 21.72 5.8 21.72 5.78 21.72C5.76 21.72 5.74 21.72 5.73 21.72C5.71 21.72 5.69 21.72 5.67 21.73C5.69 21.71 5.71 21.7 5.73 21.69C5.76 21.67 5.78 21.66 5.8 21.66C5.83 21.65 5.85 21.65 5.88 21.65C5.9 21.64 5.93 21.65 5.96 21.65C5.97 21.64 5.98 21.63 5.99 21.62C6 21.62 6.02 21.61 6.03 21.61C6.05 21.6 6.06 21.6 6.08 21.59C6.09 21.59 6.11 21.59 6.12 21.59C6.18 21.59 6.13 21.67 6.28 21.65C6.4 21.64 6.46 21.66 6.49 21.71C6.38 21.66 6.2 21.73 6.11 21.73ZM8.46 8.32L8.46 8.29C8.43 8.29 8.4 8.28 8.37 8.27C8.34 8.27 8.31 8.26 8.28 8.25C8.25 8.24 8.22 8.22 8.19 8.21C8.16 8.19 8.13 8.18 8.11 8.16C8.14 8.16 8.18 8.16 8.21 8.17C8.24 8.17 8.28 8.18 8.31 8.19C8.34 8.2 8.38 8.21 8.41 8.23C8.44 8.24 8.47 8.26 8.5 8.28C8.51 8.3 8.53 8.31 8.55 8.33C8.57 8.34 8.59 8.35 8.61 8.36C8.63 8.37 8.65 8.38 8.68 8.39C8.7 8.39 8.72 8.4 8.75 8.4C8.72 8.53 8.46 8.42 8.46 8.32ZM8.54 26.81C8.42 26.75 8.6 26.68 8.7 26.68C8.66 26.74 8.54 26.73 8.54 26.81ZM8.9 5.44C8.89 5.44 8.88 5.44 8.87 5.44C8.86 5.44 8.85 5.44 8.84 5.44C8.83 5.44 8.82 5.44 8.81 5.44C8.81 5.44 8.8 5.44 8.79 5.44C8.81 5.34 8.87 5.38 8.95 5.38C8.96 5.39 8.97 5.39 8.98 5.39C8.99 5.39 9 5.39 9.01 5.39C9.02 5.39 9.03 5.39 9.04 5.39C9.04 5.39 9.05 5.39 9.06 5.38C9.04 5.48 8.98 5.44 8.9 5.44ZM9.02 27.1C9.06 26.93 9.32 26.93 9.5 26.93C9.5 27.1 9.12 27.1 9.02 27.1ZM9.78 3.71L9.54 3.71C9.56 3.66 9.61 3.66 9.67 3.66C9.68 3.66 9.69 3.66 9.69 3.66C9.7 3.66 9.71 3.66 9.72 3.66C9.73 3.66 9.74 3.66 9.75 3.66C9.76 3.66 9.77 3.66 9.78 3.66L9.78 3.71ZM9.69 26.93C9.71 26.86 9.76 26.86 9.86 26.86C9.84 26.93 9.68 27.01 9.69 26.93ZM11.46 26.78C11.38 26.68 11.64 26.61 11.78 26.61C11.78 26.78 11.52 26.68 11.46 26.78ZM11.62 3.39C11.65 3.34 11.69 3.39 11.73 3.39C11.74 3.4 11.75 3.4 11.76 3.4C11.76 3.4 11.77 3.4 11.78 3.4C11.78 3.4 11.79 3.4 11.8 3.4C11.81 3.4 11.81 3.4 11.82 3.39C11.81 3.49 11.6 3.45 11.62 3.39ZM12.5 26.38C12.46 26.58 12.14 26.48 12.02 26.58C11.97 26.49 12.32 26.38 12.5 26.38ZM12.39 25.4C12.34 25.42 12.3 25.43 12.26 25.44C12.27 25.38 12.33 25.38 12.38 25.38C12.38 25.39 12.38 25.4 12.39 25.4ZM11.96 3.21L11.79 3.21C11.82 3.2 11.84 3.19 11.87 3.19C11.89 3.19 11.92 3.19 11.94 3.19C11.97 3.19 11.99 3.19 12.02 3.19C12.04 3.19 12.07 3.2 12.09 3.21C12.13 3.2 12.18 3.2 12.22 3.2C12.26 3.2 12.31 3.21 12.35 3.22C12.39 3.23 12.43 3.24 12.47 3.26C12.51 3.28 12.55 3.3 12.58 3.33C12.49 3.4 12.16 3.25 11.98 3.25L11.96 3.21ZM12.59 1.6L12.44 1.6C12.5 1.6 12.59 1.6 12.59 1.56L12.59 1.6ZM13.15 3.24C13.15 3.23 13.15 3.22 13.14 3.21C13.15 3.21 13.15 3.21 13.16 3.2L13.15 3.24ZM13.14 3.21C13.14 3.22 13.13 3.22 13.12 3.22C13.1 3.23 13.09 3.23 13.07 3.23C13.06 3.23 13.04 3.23 13.03 3.22C13.01 3.22 13 3.21 12.99 3.2C12.98 3.2 12.97 3.19 12.96 3.19C12.95 3.18 12.94 3.18 12.93 3.17C12.92 3.17 12.91 3.17 12.9 3.16C12.89 3.16 12.88 3.16 12.87 3.16C12.9 3.1 13.11 3.13 13.14 3.21ZM12.84 1.64C12.94 1.57 13.17 1.64 13.32 1.64C13.3 1.65 13.28 1.66 13.26 1.67C13.24 1.68 13.22 1.68 13.2 1.68C13.18 1.69 13.16 1.69 13.14 1.69C13.12 1.69 13.09 1.69 13.07 1.69C13.05 1.68 13.03 1.68 13.01 1.68C13 1.68 12.98 1.68 12.96 1.68C12.94 1.68 12.92 1.68 12.9 1.68C12.88 1.68 12.86 1.68 12.84 1.69L12.84 1.64ZM13.52 1.6C13.55 1.54 13.69 1.6 13.82 1.6C13.83 1.6 13.85 1.61 13.86 1.61C13.88 1.61 13.89 1.61 13.91 1.61C13.93 1.61 13.94 1.61 13.96 1.61C13.97 1.61 13.99 1.6 14 1.6C13.82 1.73 13.74 1.6 13.52 1.6ZM14.93 25.63C15.01 25.72 14.93 25.74 14.93 25.8C14.77 25.76 14.85 25.55 14.93 25.63ZM15.57 25.43C15.45 25.49 15.35 25.6 15.21 25.6C15.25 25.55 15.3 25.51 15.35 25.47C15.41 25.43 15.46 25.39 15.52 25.36C15.58 25.33 15.64 25.31 15.7 25.29C15.76 25.26 15.82 25.25 15.89 25.24C15.84 25.36 15.68 25.38 15.57 25.44L15.57 25.43ZM18.02 2.41C18.06 2.37 18.12 2.42 18.2 2.46C18.22 2.48 18.23 2.49 18.25 2.5C18.27 2.51 18.29 2.51 18.3 2.52C18.32 2.53 18.34 2.53 18.36 2.53C18.38 2.53 18.4 2.53 18.42 2.53C18.32 2.7 18.16 2.46 18.02 2.41ZM19.12 23.57C18.99 23.65 18.87 23.72 18.79 23.85C18.79 23.84 18.79 23.83 18.79 23.83C18.83 23.77 18.86 23.72 18.9 23.66C18.94 23.61 18.98 23.56 19.03 23.52C19.07 23.47 19.12 23.43 19.17 23.39C19.23 23.35 19.28 23.31 19.34 23.28C19.25 23.39 19.16 23.4 19.16 23.53L19.12 23.57ZM18.74 23.97C18.73 24.01 18.67 24.04 18.52 24.19C18.36 24.33 18.24 24.36 18.09 24.51C18.07 24.53 18.05 24.54 18.03 24.56C18.01 24.57 17.99 24.58 17.97 24.59C17.95 24.6 17.93 24.61 17.91 24.62C17.89 24.63 17.87 24.64 17.85 24.65C17.79 24.69 17.8 24.79 17.71 24.79C17.69 24.8 17.67 24.81 17.64 24.82C17.62 24.83 17.6 24.84 17.58 24.85C17.56 24.86 17.54 24.86 17.51 24.87C17.49 24.88 17.47 24.88 17.45 24.89C17.45 24.85 17.52 24.83 17.61 24.77C17.64 24.75 17.66 24.73 17.69 24.71C17.72 24.68 17.75 24.67 17.78 24.65C17.81 24.63 17.84 24.62 17.87 24.6C17.91 24.59 17.94 24.58 17.97 24.57C18 24.62 18.19 24.33 18.19 24.33L18.13 24.4C18.21 24.25 18.65 24.06 18.76 23.9C18.76 23.92 18.75 23.95 18.74 23.97ZM18.76 23.9C18.77 23.88 18.78 23.86 18.79 23.85C18.79 23.86 18.78 23.88 18.76 23.9ZM24.93 9.65C24.9 9.59 24.87 9.52 24.85 9.46C24.82 9.39 24.8 9.33 24.79 9.26C24.77 9.2 24.76 9.13 24.74 9.06C24.73 8.99 24.72 8.92 24.72 8.86C24.82 9.01 24.74 9.09 24.82 9.26C24.84 9.28 24.86 9.31 24.87 9.35C24.89 9.38 24.9 9.41 24.91 9.44C24.92 9.47 24.93 9.51 24.93 9.54C24.94 9.58 24.94 9.61 24.94 9.64L24.93 9.65ZM24.97 10.18C24.95 10.15 24.94 10.12 24.94 10.08C24.93 10.05 24.93 10.02 24.94 9.98C24.95 9.95 24.96 9.92 24.98 9.89C24.99 9.92 25 9.95 25.01 9.98C25.02 10.01 25.03 10.04 25.03 10.07C25.04 10.1 25.04 10.14 25.04 10.17C25.04 10.2 25.03 10.23 25.03 10.26C25 10.24 24.98 10.21 24.97 10.18ZM0.67 23.12C0.69 23.1 0.78 23.05 0.78 23.12L0.94 23.12C0.92 23.12 0.9 23.12 0.87 23.13C0.85 23.13 0.83 23.13 0.8 23.13C0.78 23.13 0.76 23.13 0.73 23.13C0.71 23.12 0.69 23.12 0.67 23.12ZM0.67 23.11L0.66 23.12C0.66 23.12 0.66 23.11 0.67 23.11ZM25.15 11.54C25.14 11.51 25.13 11.48 25.12 11.46C25.12 11.43 25.11 11.4 25.11 11.37C25.11 11.35 25.11 11.32 25.12 11.29C25.13 11.31 25.15 11.34 25.16 11.36C25.17 11.39 25.18 11.42 25.18 11.44C25.19 11.47 25.19 11.5 25.19 11.53C25.2 11.55 25.2 11.58 25.19 11.61C25.18 11.59 25.16 11.56 25.15 11.54ZM25.19 11.95C25.27 12.06 25.19 12.31 25.19 12.47C25.05 12.39 25.19 12.13 25.19 11.95ZM2.26 24.35C2.22 24.35 2.17 24.35 2.13 24.36C2.09 24.36 2.04 24.37 2 24.37C1.96 24.38 1.91 24.39 1.87 24.4C1.83 24.4 1.79 24.41 1.74 24.43L1.83 24.43C1.99 24.44 2.26 24.46 2.26 24.35ZM3.02 24.35C3.09 24.35 3.16 24.34 3.24 24.33C3.31 24.31 3.38 24.3 3.45 24.27C3.52 24.25 3.59 24.22 3.66 24.19C3.56 24.11 3.19 24.29 3.04 24.24C2.88 24.18 2.69 24.3 2.82 24.35C2.89 24.35 2.94 24.35 3.02 24.35ZM4.79 25.03L4.79 25C4.75 25 4.7 25 4.65 25C4.6 25 4.55 25.01 4.5 25.01C4.45 25.01 4.4 25 4.35 25C4.3 25 4.25 25 4.2 25C4.04 24.97 3.86 25.06 3.9 25.08C3.95 25.1 4.14 25.11 4.04 25.2C4.17 25.25 4.87 25.21 4.8 25.03L4.79 25.03ZM10.36 24.92L10.32 24.96C10.25 24.99 10.17 25.03 10.09 25.06C10.02 25.09 9.94 25.12 9.86 25.15C9.79 25.18 9.71 25.21 9.63 25.23C9.55 25.26 9.47 25.28 9.39 25.3C9.27 25.33 9.04 25.29 8.98 25.4C8.97 25.42 8.95 25.44 8.94 25.45C8.92 25.47 8.91 25.48 8.89 25.49C8.87 25.5 8.85 25.51 8.83 25.51C8.81 25.51 8.79 25.52 8.77 25.51C8.71 25.52 8.65 25.52 8.59 25.53C8.53 25.54 8.47 25.55 8.41 25.57C8.35 25.58 8.29 25.6 8.23 25.62C8.18 25.64 8.12 25.67 8.07 25.69C7.97 25.73 7.83 25.72 7.75 25.81C7.72 25.79 7.69 25.79 7.66 25.78C7.62 25.77 7.59 25.77 7.56 25.77C7.53 25.77 7.49 25.77 7.46 25.78C7.43 25.79 7.4 25.79 7.37 25.81C7.34 25.81 7.3 25.81 7.27 25.82C7.24 25.82 7.2 25.82 7.17 25.82C7.14 25.82 7.1 25.82 7.07 25.82C7.04 25.81 7 25.81 6.97 25.81C6.93 25.8 6.89 25.8 6.86 25.8C6.82 25.81 6.78 25.81 6.74 25.81C6.71 25.82 6.67 25.82 6.63 25.83C6.59 25.84 6.56 25.85 6.52 25.86C6.5 25.86 6.49 25.86 6.47 25.86C6.46 25.86 6.44 25.87 6.43 25.87C6.41 25.87 6.4 25.88 6.38 25.88C6.37 25.89 6.35 25.89 6.34 25.9C6.31 25.91 6.29 25.91 6.26 25.92C6.24 25.92 6.21 25.92 6.19 25.92C6.16 25.92 6.14 25.92 6.11 25.92C6.09 25.91 6.06 25.91 6.04 25.9C5.92 25.91 5.81 25.93 5.69 25.95C5.58 25.97 5.47 25.99 5.35 26.02C5.24 26.05 5.13 26.08 5.02 26.12C4.91 26.16 4.8 26.2 4.69 26.24C4.78 26.24 4.87 26.24 4.95 26.24C5.04 26.24 5.12 26.24 5.21 26.24C5.29 26.23 5.38 26.23 5.46 26.22C5.55 26.22 5.63 26.21 5.72 26.2C5.74 26.24 5.65 26.36 5.65 26.36C5.88 26.47 6.49 26.24 6.74 26.24L7.6 26.08C7.64 26.07 7.67 26.07 7.71 26.06C7.75 26.05 7.78 26.04 7.82 26.03C7.85 26.03 7.89 26.01 7.92 26C7.96 25.99 8 25.98 8.03 25.97C8.21 25.9 8.52 25.88 8.59 25.85C8.66 25.81 8.9 25.78 8.92 25.68C8.94 25.59 8.96 25.53 9.07 25.53C9.09 25.52 9.11 25.52 9.13 25.52C9.15 25.52 9.18 25.52 9.2 25.52C9.22 25.52 9.24 25.52 9.27 25.52C9.29 25.52 9.31 25.52 9.33 25.53C9.36 25.53 9.39 25.54 9.43 25.54C9.46 25.54 9.49 25.54 9.52 25.53C9.55 25.53 9.58 25.52 9.61 25.51C9.64 25.5 9.67 25.48 9.69 25.47C9.79 25.45 9.7 25.4 9.69 25.32C9.68 25.24 9.91 25.22 9.97 25.19C10.03 25.16 10.43 24.92 10.43 24.92L10.36 24.92ZM14.31 25.37C14.07 25.49 13.64 25.51 13.55 25.68C13.57 25.69 13.59 25.69 13.61 25.7C13.64 25.7 13.66 25.7 13.68 25.7C13.7 25.7 13.72 25.7 13.74 25.7C13.76 25.69 13.78 25.69 13.8 25.68C13.83 25.66 13.85 25.64 13.88 25.63C13.91 25.61 13.94 25.6 13.97 25.59C14 25.58 14.03 25.58 14.06 25.58C14.09 25.58 14.13 25.58 14.16 25.59C14.15 25.5 14.48 25.35 14.32 25.35L14.31 25.37ZM15.98 24.46L15.98 24.44L15.85 24.5C15.79 24.53 14.91 24.93 15.19 25.07C15.31 25.01 15.43 24.95 15.55 24.89C15.67 24.82 15.78 24.75 15.9 24.68C16.01 24.61 16.12 24.53 16.23 24.45C16.34 24.38 16.45 24.29 16.55 24.21L15.98 24.46ZM20.22 21.76C20.22 21.82 19.99 21.96 20.22 21.96C20.22 21.87 20.38 21.81 20.22 21.76ZM37.4 15.96L37.4 15.96L37.4 15.96ZM23.35 17.58C23.35 17.57 23.35 17.55 23.35 17.53C23.35 17.54 23.35 17.55 23.35 17.57L23.35 17.58ZM3.92 20.08L3.92 20.08ZM11.29 4.98L11.29 4.98ZM2.22 20.53L2.22 20.53L2.22 20.52L2.22 20.53ZM5.19 21.76L5.19 21.76L5.19 21.76ZM6.49 21.76L6.49 21.76L6.49 21.76ZM11.46 26.78L11.46 26.78L11.46 26.78ZM13.4 3.04L13.4 3.04L13.4 3.04ZM14 1.6L14 1.6L14 1.6ZM19.16 23.54C19.16 23.54 19.16 23.54 19.16 23.53L19.16 23.53L19.16 23.54ZM14.32 25.35L14.32 25.35L14.32 25.35Z" />
	</g>
</svg>