<svg xmlns="http://www.w3.org/2000/svg" viewBox="0 0 115 28" width="115" height="28">
	<style>
		tspan { white-space:pre }
		.shp0 { fill: #ffffff } 
	</style>
	<g id="Layer">
		<path id="Layer" fill-rule="evenodd" class="shp0" d="M10.3 4.16C10.78 4.13 11.25 4.14 11.72 4.19C12.19 4.23 12.66 4.3 13.12 4.41C13.58 4.51 14.04 4.65 14.48 4.82L13.28 4.93C12.39 5.02 11.52 5.24 10.7 5.58C9.87 5.92 9.1 6.37 8.4 6.92C7.7 7.48 7.09 8.13 6.58 8.86C6.06 9.59 5.66 10.39 5.37 11.24C5.32 11.43 5.27 11.62 5.23 11.82C5.19 12.02 5.15 12.21 5.12 12.41C5.09 12.61 5.06 12.81 5.04 13.01C5.01 13.2 5 13.4 4.98 13.6C4.99 13.85 5.02 14.09 5.05 14.32C5.09 14.56 5.13 14.8 5.19 15.04C5.24 15.27 5.31 15.5 5.39 15.73C5.46 15.96 5.55 16.18 5.65 16.4C5.81 16.74 6 17.05 6.22 17.35C6.44 17.64 6.69 17.92 6.96 18.17C7.24 18.41 7.53 18.64 7.85 18.83C8.16 19.02 8.49 19.18 8.84 19.31C9.59 19.6 10.4 19.71 11.2 19.64C12.01 19.57 12.78 19.31 13.48 18.9C14.17 18.49 14.76 17.92 15.2 17.25C15.65 16.58 15.93 15.81 16.04 15.01C16.08 14.69 16.1 14.36 16.08 14.03C16.07 13.7 16.02 13.38 15.95 13.06C15.87 12.74 15.77 12.43 15.64 12.12C15.51 11.82 15.35 11.54 15.16 11.26C14.95 10.99 14.71 10.73 14.45 10.5C14.19 10.27 13.91 10.06 13.62 9.87C13.32 9.69 13.01 9.53 12.69 9.41C12.36 9.28 12.03 9.18 11.68 9.11C11.67 8.88 11.67 8.65 11.7 8.42C11.72 8.19 11.77 7.97 11.83 7.74C11.89 7.52 11.98 7.31 12.08 7.1C12.19 6.89 12.31 6.7 12.44 6.51C12.59 6.32 12.76 6.14 12.93 5.98C13.11 5.82 13.3 5.67 13.5 5.53C13.7 5.4 13.91 5.28 14.13 5.18C14.35 5.08 14.58 5 14.81 4.93C15.69 5.26 16.52 5.71 17.27 6.27C18.02 6.83 18.7 7.48 19.27 8.23C19.85 8.97 20.32 9.78 20.67 10.65C21.02 11.52 21.24 12.44 21.34 13.37C21.36 13.62 21.38 13.86 21.38 14.11C21.38 14.36 21.38 14.6 21.37 14.85C21.35 15.1 21.33 15.34 21.31 15.59C21.28 15.83 21.24 16.08 21.2 16.32C21.08 16.89 20.91 17.46 20.7 18C20.49 18.55 20.23 19.07 19.92 19.57C19.62 20.07 19.27 20.54 18.88 20.98C18.5 21.42 18.07 21.83 17.62 22.2C17.22 22.51 16.81 22.8 16.37 23.06C15.94 23.32 15.48 23.55 15.02 23.74C14.55 23.94 14.07 24.1 13.58 24.22C13.09 24.35 12.6 24.44 12.09 24.5L9.38 24.5C8.91 24.43 8.44 24.33 7.98 24.2C7.52 24.07 7.07 23.92 6.63 23.73C6.19 23.54 5.77 23.33 5.36 23.09C4.94 22.85 4.55 22.58 4.17 22.29C3.54 21.8 2.97 21.24 2.47 20.62C1.97 20 1.55 19.33 1.21 18.61C0.87 17.89 0.61 17.13 0.44 16.36C0.28 15.58 0.2 14.78 0.22 13.99C0.25 13.48 0.31 12.97 0.41 12.47C0.52 11.96 0.66 11.47 0.83 10.99C1.01 10.51 1.22 10.04 1.47 9.59C1.72 9.14 2 8.71 2.31 8.31C2.71 7.79 3.16 7.31 3.65 6.87C4.14 6.43 4.67 6.04 5.23 5.7C5.79 5.36 6.39 5.07 7 4.84C7.61 4.61 8.25 4.43 8.89 4.32C9.36 4.23 9.83 4.18 10.3 4.16ZM77.95 6.3C78.19 6.12 78.44 5.97 78.71 5.84C78.98 5.72 79.26 5.62 79.55 5.54C79.84 5.47 80.13 5.43 80.43 5.41C80.73 5.4 81.02 5.41 81.32 5.46L81.32 7.71C81.22 7.7 81.12 7.69 81.02 7.69C80.92 7.7 80.82 7.7 80.72 7.72C80.62 7.74 80.52 7.76 80.43 7.8C80.33 7.83 80.24 7.87 80.15 7.91C80.06 8.04 79.99 8.18 79.93 8.33C79.87 8.47 79.83 8.62 79.8 8.77C79.77 8.92 79.75 9.08 79.76 9.24C79.76 9.39 79.77 9.55 79.81 9.7L81.33 9.7L81.33 12.01L79.78 12.01L79.78 19.59L77.23 19.59L77.23 12.02L76.11 12.02C76.08 11.84 76.07 11.66 76.05 11.48C76.04 11.3 76.03 11.12 76.02 10.94C76.02 10.75 76.02 10.57 76.02 10.39C76.02 10.21 76.02 10.03 76.03 9.84C76.38 9.6 76.83 9.72 77.22 9.69C77.26 8.55 77.08 7.2 77.95 6.3ZM59.62 6.23C59.62 6.18 59.62 6.14 59.63 6.09C59.63 6.05 59.64 6 59.65 5.96C59.66 5.91 59.68 5.87 59.7 5.83C59.72 5.79 59.74 5.75 59.77 5.71L62.23 5.71L62.23 19.65L59.68 19.65C59.65 19.4 59.62 19.15 59.6 18.91C59.44 19.01 59.28 19.11 59.12 19.19C58.95 19.28 58.78 19.36 58.61 19.43C58.44 19.49 58.26 19.55 58.08 19.61C57.9 19.66 57.72 19.7 57.54 19.73C57.4 19.75 57.26 19.76 57.13 19.77C56.99 19.77 56.85 19.78 56.71 19.78C56.58 19.78 56.44 19.77 56.3 19.77C56.16 19.76 56.03 19.75 55.89 19.73C55.57 19.67 55.26 19.58 54.95 19.46C54.65 19.33 54.36 19.18 54.09 19C53.81 18.83 53.55 18.62 53.32 18.4C53.08 18.17 52.87 17.92 52.68 17.65C52.51 17.41 52.37 17.14 52.24 16.87C52.12 16.59 52.02 16.31 51.95 16.02C51.87 15.73 51.82 15.43 51.8 15.13C51.78 14.83 51.78 14.53 51.81 14.23C51.85 13.57 52.03 12.92 52.32 12.33C52.62 11.73 53.03 11.21 53.53 10.77C54.03 10.34 54.61 10.01 55.24 9.8C55.87 9.59 56.53 9.5 57.19 9.55C57.41 9.59 57.62 9.63 57.83 9.69C58.05 9.74 58.25 9.81 58.46 9.89C58.66 9.96 58.86 10.05 59.06 10.15C59.25 10.25 59.44 10.36 59.62 10.48L59.62 6.23ZM56.39 12.14C56.09 12.23 55.81 12.36 55.56 12.54C55.31 12.72 55.09 12.94 54.91 13.19C54.73 13.45 54.6 13.73 54.51 14.02C54.43 14.32 54.39 14.63 54.41 14.94C54.43 15.16 54.48 15.39 54.56 15.6C54.64 15.81 54.74 16.01 54.86 16.2C54.99 16.39 55.14 16.56 55.31 16.71C55.47 16.86 55.66 16.99 55.86 17.1C56.07 17.21 56.3 17.29 56.53 17.34C56.77 17.38 57.01 17.4 57.25 17.38C57.49 17.36 57.72 17.31 57.95 17.23C58.17 17.15 58.38 17.04 58.58 16.9C58.71 16.8 58.84 16.7 58.95 16.58C59.07 16.47 59.18 16.34 59.27 16.21C59.37 16.08 59.45 15.93 59.52 15.79C59.59 15.64 59.65 15.49 59.69 15.33C59.7 15.23 59.71 15.13 59.72 15.02C59.72 14.92 59.73 14.82 59.73 14.72C59.73 14.61 59.72 14.51 59.72 14.41C59.71 14.31 59.7 14.2 59.69 14.1C59.65 13.94 59.6 13.78 59.53 13.63C59.46 13.47 59.38 13.32 59.28 13.18C59.19 13.04 59.08 12.91 58.96 12.79C58.84 12.67 58.72 12.56 58.58 12.46C58.42 12.36 58.25 12.28 58.07 12.21C57.89 12.15 57.71 12.1 57.53 12.07C57.34 12.04 57.15 12.02 56.96 12.03C56.77 12.04 56.58 12.06 56.4 12.11L56.39 12.14ZM40.65 11.58C41 11.13 41.42 10.73 41.9 10.4C42.38 10.08 42.91 9.84 43.47 9.68C44.02 9.52 44.6 9.46 45.18 9.48C45.3 9.49 45.43 9.49 45.55 9.51C45.67 9.52 45.79 9.54 45.92 9.56C46.04 9.59 46.16 9.62 46.28 9.65C46.39 9.69 46.51 9.73 46.63 9.77C46.43 9.8 46.24 9.84 46.05 9.88C45.85 9.92 45.66 9.97 45.48 10.03C45.29 10.08 45.1 10.15 44.92 10.22C44.73 10.29 44.55 10.37 44.38 10.45C44.13 10.58 43.9 10.73 43.68 10.9C43.46 11.08 43.26 11.27 43.08 11.48C42.9 11.69 42.73 11.91 42.59 12.15C42.45 12.39 42.33 12.64 42.23 12.9C42.17 13.06 42.12 13.23 42.08 13.4C42.04 13.58 42.02 13.75 42.01 13.93C41.99 14.1 41.99 14.28 42.01 14.45C42.02 14.63 42.04 14.8 42.08 14.98C42.15 15.37 42.3 15.74 42.51 16.08C42.73 16.41 43.02 16.69 43.35 16.91C43.69 17.13 44.06 17.27 44.46 17.33C44.85 17.4 45.25 17.38 45.64 17.28C45.86 17.21 46.07 17.11 46.27 16.99C46.47 16.87 46.65 16.72 46.81 16.56C46.97 16.39 47.11 16.2 47.22 16C47.33 15.79 47.41 15.57 47.47 15.35C47.52 15.18 47.55 15 47.57 14.82C47.58 14.64 47.58 14.46 47.55 14.28C47.53 14.1 47.49 13.93 47.43 13.76C47.37 13.59 47.3 13.43 47.21 13.27C47.1 13.11 46.97 12.97 46.84 12.83C46.7 12.7 46.55 12.58 46.39 12.47C46.23 12.37 46.05 12.28 45.88 12.21C45.7 12.13 45.51 12.08 45.32 12.05C45.31 11.81 45.34 11.58 45.41 11.36C45.48 11.14 45.58 10.93 45.71 10.75C45.85 10.56 46.01 10.4 46.2 10.26C46.39 10.13 46.6 10.03 46.82 9.97C46.9 9.97 46.98 9.98 47.06 9.99C47.14 10.01 47.22 10.03 47.3 10.06C47.38 10.08 47.45 10.11 47.52 10.15C47.59 10.19 47.66 10.23 47.73 10.28C48.05 10.47 48.36 10.69 48.63 10.95C48.91 11.2 49.16 11.49 49.37 11.79C49.59 12.1 49.77 12.43 49.92 12.78C50.06 13.12 50.17 13.48 50.24 13.85C50.26 14.03 50.27 14.22 50.27 14.4C50.28 14.59 50.27 14.77 50.26 14.95C50.25 15.14 50.23 15.32 50.21 15.5C50.18 15.68 50.15 15.86 50.11 16.04C49.98 16.44 49.81 16.82 49.59 17.18C49.38 17.54 49.13 17.87 48.84 18.17C48.55 18.47 48.22 18.73 47.87 18.95C47.52 19.18 47.14 19.36 46.75 19.5C46.52 19.57 46.29 19.63 46.05 19.67C45.82 19.72 45.58 19.75 45.34 19.77C45.1 19.79 44.86 19.79 44.62 19.78C44.38 19.77 44.14 19.74 43.91 19.71C43.54 19.63 43.19 19.53 42.85 19.38C42.5 19.24 42.18 19.06 41.87 18.85C41.57 18.64 41.29 18.4 41.03 18.13C40.78 17.86 40.55 17.57 40.35 17.25C40.16 16.95 40 16.62 39.88 16.28C39.76 15.94 39.68 15.59 39.63 15.23C39.58 14.88 39.58 14.52 39.61 14.16C39.64 13.8 39.71 13.44 39.82 13.1C40.01 12.55 40.29 12.04 40.65 11.58ZM85.49 9.81C86.05 9.62 86.64 9.52 87.23 9.52C87.82 9.52 88.41 9.61 88.97 9.8C89.53 9.99 90.06 10.26 90.53 10.62C91 10.97 91.41 11.4 91.75 11.89C91.93 12.16 92.08 12.44 92.21 12.74C92.33 13.03 92.43 13.34 92.5 13.66C92.56 13.97 92.6 14.29 92.6 14.62C92.6 14.94 92.58 15.26 92.52 15.58C92.44 15.98 92.31 16.37 92.14 16.74C91.97 17.11 91.75 17.46 91.5 17.78C91.25 18.1 90.96 18.4 90.65 18.65C90.33 18.91 89.98 19.12 89.61 19.3C89.42 19.38 89.22 19.46 89.02 19.52C88.82 19.59 88.62 19.64 88.42 19.69C88.21 19.74 88.01 19.77 87.8 19.8C87.59 19.83 87.38 19.84 87.17 19.85C87.03 19.84 86.89 19.82 86.75 19.8C86.61 19.78 86.47 19.76 86.33 19.73C86.19 19.71 86.05 19.68 85.91 19.64C85.78 19.61 85.64 19.57 85.5 19.53C85.74 19.5 85.98 19.46 86.21 19.41C86.45 19.36 86.68 19.3 86.91 19.22C87.13 19.15 87.36 19.06 87.58 18.96C87.79 18.86 88.01 18.75 88.21 18.63C88.44 18.47 88.65 18.3 88.85 18.11C89.04 17.91 89.22 17.71 89.38 17.48C89.54 17.26 89.68 17.02 89.79 16.78C89.91 16.53 90.01 16.27 90.08 16.01C90.14 15.78 90.18 15.54 90.19 15.3C90.2 15.06 90.19 14.82 90.16 14.58C90.12 14.35 90.06 14.11 89.98 13.89C89.89 13.67 89.79 13.45 89.66 13.25C89.44 12.92 89.15 12.64 88.81 12.43C88.47 12.22 88.09 12.08 87.7 12.03C87.3 11.98 86.9 12.02 86.52 12.14C86.14 12.25 85.79 12.45 85.49 12.72C85.23 12.97 85.02 13.27 84.87 13.61C84.73 13.94 84.66 14.3 84.66 14.67C84.66 15.03 84.73 15.4 84.87 15.73C85.02 16.07 85.23 16.37 85.49 16.62C85.59 16.71 85.7 16.79 85.81 16.86C85.92 16.93 86.03 17 86.15 17.06C86.27 17.11 86.39 17.16 86.51 17.2C86.64 17.24 86.76 17.27 86.89 17.3C86.9 17.54 86.87 17.77 86.8 18C86.73 18.23 86.63 18.44 86.49 18.64C86.35 18.83 86.18 19 85.98 19.14C85.79 19.28 85.57 19.38 85.34 19.45C84.92 19.3 84.52 19.09 84.15 18.84C83.79 18.59 83.45 18.29 83.16 17.95C82.87 17.62 82.62 17.24 82.43 16.84C82.23 16.44 82.08 16.02 82 15.58C81.9 14.98 81.91 14.36 82.02 13.76C82.14 13.15 82.36 12.58 82.68 12.05C83 11.53 83.41 11.06 83.89 10.68C84.37 10.3 84.91 10 85.5 9.81L85.49 9.81ZM67.72 9.72C68.06 9.63 68.42 9.58 68.77 9.57C69.13 9.56 69.48 9.58 69.83 9.65C70.18 9.71 70.52 9.82 70.85 9.96C71.18 10.1 71.49 10.27 71.78 10.48L71.78 9.76C71.99 9.74 72.21 9.73 72.42 9.72C72.63 9.71 72.84 9.7 73.06 9.7C73.27 9.7 73.48 9.71 73.7 9.72C73.91 9.73 74.12 9.74 74.33 9.76L74.33 19.68L71.77 19.68L71.77 18.92C71.63 19.01 71.49 19.1 71.35 19.18C71.21 19.25 71.06 19.33 70.91 19.4C70.76 19.46 70.61 19.52 70.46 19.58C70.3 19.63 70.15 19.68 69.99 19.72C69.71 19.78 69.42 19.82 69.13 19.83C68.84 19.84 68.56 19.83 68.27 19.79C67.99 19.75 67.7 19.69 67.43 19.6C67.15 19.52 66.89 19.41 66.63 19.27C65.98 18.93 65.42 18.45 64.97 17.87C64.52 17.28 64.2 16.61 64.04 15.89C63.87 15.18 63.86 14.43 64 13.71C64.14 12.99 64.44 12.31 64.87 11.71C65.04 11.48 65.23 11.25 65.43 11.05C65.64 10.84 65.86 10.66 66.1 10.49C66.34 10.33 66.6 10.18 66.86 10.06C67.13 9.94 67.4 9.84 67.68 9.77L67.72 9.72ZM68.53 12.17C68.33 12.22 68.13 12.3 67.94 12.4C67.76 12.5 67.58 12.62 67.43 12.76C67.27 12.9 67.13 13.06 67.01 13.23C66.89 13.41 66.79 13.6 66.72 13.79C66.68 13.9 66.64 14.02 66.61 14.14C66.59 14.25 66.57 14.37 66.55 14.49C66.54 14.61 66.54 14.73 66.54 14.85C66.54 14.97 66.55 15.09 66.57 15.21C66.75 16.3 67.58 17.16 68.66 17.39C69.75 17.62 70.86 17.15 71.46 16.23C72.06 15.3 72.03 14.1 71.38 13.2C70.73 12.3 69.6 11.9 68.53 12.18L68.53 12.17ZM97.81 9.94C98.17 9.78 98.56 9.66 98.95 9.6C99.34 9.54 99.74 9.52 100.14 9.56C100.54 9.6 100.93 9.69 101.3 9.82C101.54 9.91 101.76 10.03 101.97 10.17C102.18 10.32 102.38 10.48 102.54 10.67C102.71 10.86 102.86 11.07 102.98 11.29C103.1 11.52 103.2 11.75 103.26 12C103.29 12.22 103.32 12.44 103.34 12.66C103.36 12.88 103.37 13.11 103.38 13.33C103.39 13.55 103.4 13.78 103.4 14C103.4 14.22 103.4 14.45 103.39 14.67L103.39 19.59C103.17 19.61 102.95 19.62 102.73 19.63C102.51 19.63 102.29 19.64 102.07 19.64C101.85 19.64 101.63 19.63 101.42 19.63C101.2 19.62 100.98 19.61 100.76 19.59L100.76 13.95C100.76 13.8 100.75 13.66 100.73 13.52C100.7 13.38 100.67 13.24 100.62 13.11C100.57 12.97 100.5 12.84 100.43 12.72C100.35 12.6 100.27 12.48 100.17 12.38C99.93 12.19 99.65 12.06 99.36 11.98C99.06 11.91 98.76 11.91 98.46 11.97C98.16 12.03 97.88 12.15 97.64 12.33C97.39 12.51 97.19 12.75 97.04 13.01C97.01 13.07 96.98 13.14 96.95 13.21C96.93 13.27 96.91 13.34 96.89 13.41C96.87 13.48 96.86 13.55 96.85 13.62C96.85 13.69 96.84 13.76 96.84 13.83L96.84 19.62L94.2 19.62L94.2 9.69L96.75 9.69C96.76 9.76 96.76 9.83 96.77 9.9C96.77 9.97 96.78 10.05 96.78 10.12C96.78 10.19 96.79 10.26 96.79 10.33C96.79 10.41 96.79 10.48 96.79 10.55C97.1 10.3 97.45 10.1 97.81 9.94ZM105.57 12.66C105.83 12.07 106.19 11.54 106.65 11.08C107.1 10.63 107.63 10.26 108.22 10C108.81 9.74 109.44 9.59 110.08 9.56C110.72 9.53 111.36 9.61 111.97 9.81C112.3 9.92 112.61 10.07 112.91 10.24C113.2 10.42 113.48 10.63 113.74 10.86C113.99 11.09 114.22 11.35 114.42 11.63C114.63 11.91 114.8 12.21 114.94 12.52C115.04 12.75 115.13 12.98 115.2 13.22C115.27 13.46 115.32 13.7 115.35 13.95C115.39 14.19 115.41 14.44 115.41 14.69C115.41 14.94 115.39 15.19 115.36 15.43L107.87 15.43C107.88 15.61 107.91 15.78 107.96 15.95C108.02 16.12 108.09 16.28 108.18 16.44C108.27 16.59 108.38 16.73 108.5 16.86C108.62 16.98 108.76 17.09 108.91 17.19C109.12 17.32 109.34 17.42 109.58 17.49C109.81 17.56 110.06 17.59 110.3 17.59C110.55 17.59 110.79 17.56 111.03 17.49C111.26 17.42 111.49 17.32 111.69 17.19C111.76 17.13 111.82 17.08 111.88 17.02C111.95 16.96 112.01 16.9 112.07 16.84C112.13 16.78 112.19 16.72 112.25 16.66C112.31 16.6 112.37 16.53 112.42 16.47L115.12 16.47C115 16.83 114.84 17.17 114.63 17.49C114.43 17.8 114.19 18.1 113.92 18.36C113.65 18.62 113.35 18.85 113.03 19.04C112.7 19.23 112.36 19.38 112 19.49C111.79 19.55 111.59 19.6 111.38 19.64C111.17 19.68 110.96 19.7 110.74 19.72C110.53 19.74 110.32 19.74 110.11 19.73C109.9 19.73 109.68 19.71 109.47 19.68C109.08 19.62 108.7 19.52 108.34 19.37C107.97 19.22 107.62 19.04 107.3 18.81C106.97 18.58 106.68 18.32 106.41 18.03C106.15 17.73 105.92 17.41 105.73 17.06C105.55 16.72 105.41 16.37 105.3 16C105.2 15.63 105.14 15.24 105.13 14.86C105.11 14.48 105.14 14.09 105.21 13.71C105.29 13.34 105.4 12.97 105.56 12.62L105.57 12.66ZM109.63 11.82C109.43 11.87 109.24 11.94 109.05 12.05C108.87 12.15 108.71 12.27 108.56 12.42C108.41 12.57 108.29 12.74 108.19 12.92C108.09 13.1 108.01 13.3 107.97 13.5L112.61 13.5C112.53 13.19 112.39 12.9 112.2 12.65C112.01 12.4 111.76 12.19 111.48 12.04C111.21 11.88 110.9 11.79 110.58 11.76C110.27 11.73 109.95 11.76 109.64 11.86L109.63 11.82ZM28.89 9.69L31.59 9.69C31.81 9.69 31.87 9.92 31.96 10.06C32.68 12.14 33.45 14.29 34.19 16.41C34.23 16.31 34.28 16.21 34.32 16.1C34.36 16 34.4 15.9 34.43 15.79C34.47 15.69 34.5 15.58 34.53 15.47C34.56 15.37 34.59 15.26 34.61 15.15C35.2 13.49 35.78 11.82 36.34 10.14C36.42 9.97 36.48 9.68 36.72 9.7L39.37 9.7C38.43 12.38 37.39 15.03 36.42 17.7C36.37 17.86 36.31 18.03 36.25 18.19C36.2 18.35 36.13 18.52 36.07 18.68C36.01 18.84 35.94 19 35.87 19.16C35.8 19.32 35.73 19.47 35.65 19.63L32.43 19.63C31.61 17.3 30.72 15.01 29.89 12.68C29.6 11.66 29.15 10.71 28.89 9.69Z" />
	</g>
</svg>